<?xml version="1.0" encoding="UTF-8" standalone="no"?>
<!-- Created with Inkscape (http://www.inkscape.org/) -->

<svg xmlns:dc="http://purl.org/dc/elements/1.1/" xmlns:cc="http://creativecommons.org/ns#"
   xmlns:rdf="http://www.w3.org/1999/02/22-rdf-syntax-ns#" xmlns:svg="http://www.w3.org/2000/svg"
   xmlns="http://www.w3.org/2000/svg" xmlns:sodipodi="http://sodipodi.sourceforge.net/DTD/sodipodi-0.dtd"
   xmlns:inkscape="http://www.inkscape.org/namespaces/inkscape" version="1.1" width="600" height="600" id="svg2"
   inkscape:version="0.48.3.1 r9886" sodipodi:docname="colorful-paint-splash-1.svg">
   <sodipodi:namedview pagecolor="#ffffff" bordercolor="#666666" borderopacity="1" objecttolerance="10"
      gridtolerance="10" guidetolerance="10" inkscape:pageopacity="0" inkscape:pageshadow="2"
      inkscape:window-width="1855" inkscape:window-height="1056" id="namedview10" showgrid="false"
      inkscape:zoom="0.92956192" inkscape:cx="720.90323" inkscape:cy="315.96211" inkscape:window-x="65"
      inkscape:window-y="24" inkscape:window-maximized="1" inkscape:current-layer="svg2" />
   <metadata id="metadata8">
      <rdf:RDF>
         <cc:Work rdf:about="">
            <dc:format>image/svg+xml</dc:format>
            <dc:type rdf:resource="http://purl.org/dc/dcmitype/StillImage" />
            <dc:title />
         </cc:Work>
      </rdf:RDF>
   </metadata>
   <defs id="defs6" />
   <path inkscape:connector-curvature="0"
      d="m 438.90494,156.50162 c 0,-0.12617 0.0458,-0.22944 0.1012,-0.22944 0.0553,0 0.16498,0.10327 0.24301,0.22944 0.0778,0.12618 0.0328,0.22945 -0.10119,0.22945 -0.1337,0 -0.24302,-0.10327 -0.24302,-0.22945 z m -51.377,7.19649 c -0.26626,-0.18641 -0.5759,-0.28225 -0.68816,-0.21286 -0.11218,0.0691 -0.57643,-0.28605 -1.0316,-0.78988 -0.45509,-0.50374 -0.93101,-0.91597 -1.05753,-0.91597 -0.1266,0 -0.23013,-0.10327 -0.23013,-0.22945 0,-0.12617 0.1094,-0.22944 0.24301,-0.22944 0.13369,0 0.1807,-0.10094 0.10448,-0.22418 -0.23506,-0.38042 0.33142,-2.07054 0.69396,-2.07054 0.1845,0 0.34568,0.1807 0.3583,0.40159 0.0147,0.2533 0.0821,0.1897 0.18243,-0.17215 0.0877,-0.31552 0.28398,-0.57365 0.43608,-0.57365 0.15201,0 0.28034,-0.10328 0.28501,-0.22945 0.013,-0.35311 0.69586,-0.51342 1.47139,-0.34542 0.38501,0.083 1.06142,0.032 1.5032,-0.11408 0.44169,-0.14613 1.00965,-0.19531 1.26208,-0.10923 0.25244,0.0856 0.6854,0.23385 0.96212,0.32857 0.53114,0.18165 0.72446,0.7331 0.86602,2.47084 0.0691,0.84295 -0.0173,1.13755 -0.47989,1.63603 -0.30999,0.33436 -0.66691,0.60796 -0.79317,0.60796 -0.12626,0 -0.51524,0.21121 -0.86446,0.46944 -0.80881,0.59803 -2.56548,0.76257 -3.22314,0.30187 z m 29.91925,20.79507 c -0.0795,-0.12825 -0.24025,-0.17379 -0.35778,-0.1012 -0.11745,0.0726 -0.21363,0.0337 -0.21363,-0.0864 0,-0.26047 1.08198,-0.56493 1.37158,-0.38587 0.11166,0.0691 0.26791,0.0207 0.34716,-0.10776 0.0795,-0.12825 -0.0164,-0.23317 -0.21364,-0.23317 -0.19669,0 -0.35769,-0.15495 -0.35769,-0.34421 0,-0.21199 0.21519,-0.34421 0.56009,-0.34421 0.30809,0 0.62396,-0.10327 0.70199,-0.22945 0.21605,-0.34965 0.57366,-0.27369 0.57366,0.12194 0,0.19324 -0.15486,0.41085 -0.34421,0.48344 -0.18935,0.0726 -0.34421,0.27006 -0.34421,0.43876 0,0.34136 -0.86507,1.02105 -1.2996,1.02105 -0.15383,0 -0.34447,-0.105 -0.42372,-0.23325 z m -0.89644,0.54462 c -0.18165,-0.47332 -0.0709,-0.59016 0.39244,-0.41248 0.19945,0.0761 0.30644,0.28544 0.23783,0.46433 -0.16697,0.43487 -0.4525,0.41136 -0.63027,-0.0519 z m -1.28127,4.85173 c 0,-0.18935 0.10008,-0.34422 0.22228,-0.34422 0.12228,0 0.1629,0.15487 0.0902,0.34422 -0.0726,0.18926 -0.17267,0.34421 -0.22227,0.34421 -0.0493,0 -0.0902,-0.15495 -0.0902,-0.34421 z m -75.66767,0.42501 c -0.41015,-0.20222 -0.74581,-0.46408 -0.74581,-0.58195 0,-0.11788 -0.11027,-0.14623 -0.24509,-0.0631 -0.13482,0.083 -0.18407,0.31059 -0.10949,0.50495 0.11096,0.28908 0.0734,0.30213 -0.20378,0.0717 -0.18667,-0.15486 -0.44714,-0.21501 -0.57893,-0.1336 -0.13171,0.0812 -0.23947,0.0389 -0.23947,-0.095 0,-0.13369 -0.15496,-0.24301 -0.34422,-0.24301 -0.18934,0 -0.34421,-0.16697 -0.34421,-0.37101 0,-0.24353 -0.13793,-0.33194 -0.40159,-0.25744 -0.22089,0.0622 -0.54687,0.15192 -0.72438,0.19894 -0.20966,0.0553 -0.4646,-0.30083 -0.72749,-1.01657 -0.22261,-0.60598 -0.53883,-1.26338 -0.70268,-1.46085 -0.79222,-0.95451 -1.01916,-3.05928 -0.32987,-3.05928 0.32399,0 1.05027,-1.42412 1.05027,-2.05948 0,-0.24068 0.10319,-0.50141 0.22945,-0.57945 0.12617,-0.0778 0.22944,0.013 0.22944,0.2024 0,0.73647 0.54652,0.6421 1.29467,-0.22357 0.4238,-0.49044 0.77061,-0.97024 0.77061,-1.06626 0,-0.0961 0.2004,-0.17465 0.44532,-0.17465 0.245,0 0.51031,-0.10492 0.58956,-0.23316 0.0795,-0.12834 0.26609,-0.15668 0.41516,-0.0631 0.37749,0.23705 1.11681,0.0884 1.56957,-0.31544 0.33799,-0.30143 0.40574,-0.29512 0.60209,0.0553 0.21208,0.37904 0.52872,0.37895 1.44357,0 0.22754,-0.0943 0.58454,0.0735 0.96427,0.45328 0.33177,0.33168 0.71133,0.53615 0.84355,0.45448 0.14363,-0.0888 0.24042,0.0877 0.24042,0.43858 0,0.38639 0.12618,0.58723 0.36876,0.58723 0.23351,0 0.32036,0.12626 0.23671,0.34421 -0.0899,0.23412 0.0121,0.34421 0.31966,0.34421 0.33946,0 0.45207,0.15677 0.45311,0.63105 0,0.34706 0.15564,0.92677 0.34421,1.28827 0.4073,0.78107 0.44109,1.29328 0.0856,1.29328 -0.17475,0 -0.16317,0.11373 0.0363,0.35389 0.22245,0.26808 0.22927,0.41836 0.0285,0.61955 -0.14614,0.14613 -0.26566,0.45474 -0.26566,0.68592 0,0.23108 -0.15486,0.47972 -0.34421,0.55231 -0.18926,0.0726 -0.34421,0.38889 -0.34421,0.70268 0,0.37766 -0.15521,0.61125 -0.45889,0.69067 -0.25244,0.0657 -0.45898,0.29496 -0.45898,0.50876 0,0.44852 -1.94964,1.05251 -2.59624,0.8044 -0.21476,-0.0821 -0.64409,0.0164 -0.95425,0.2196 -0.67227,0.44048 -0.5276,0.44143 -1.44046,-0.009 z m 81.32407,7.49688 c -0.35968,-0.36469 -0.99764,-0.82627 -1.41764,-1.02546 -0.73509,-0.34888 -0.75946,-0.40281 -0.65576,-1.44945 0.14882,-1.50172 0.48102,-2.2452 1.13669,-2.54395 0.30696,-0.13983 0.55819,-0.35977 0.55819,-0.48871 0,-0.12894 0.25813,-0.23437 0.57365,-0.23437 0.38699,0 0.57366,-0.12704 0.57366,-0.3901 0,-0.30342 0.0614,-0.32892 0.27542,-0.11477 0.15141,0.1515 0.71937,0.27542 1.26209,0.27542 0.72411,0 0.98666,0.0916 0.98666,0.34421 0,0.18927 0.10249,0.34413 0.22772,0.34413 0.40453,0 1.37857,0.98856 1.37857,1.39915 0,0.21907 0.12912,0.44515 0.28683,0.50227 0.22954,0.083 0.22954,0.20102 0,0.58973 -0.15771,0.26713 -0.28683,0.74529 -0.28683,1.06254 0,0.35761 -0.12971,0.57677 -0.34136,0.57677 -0.1877,0 -0.58584,0.38725 -0.88477,0.86058 -0.50953,0.80673 -0.62076,0.86342 -1.78121,0.90784 -1.09304,0.0423 -1.31437,-0.0302 -1.89191,-0.61583 z m -12.76992,2.74843 c 0,-0.12618 0.10328,-0.22945 0.22945,-0.22945 0.12626,0 0.22945,0.10327 0.22945,0.22945 0,0.12626 -0.10319,0.22944 -0.22945,0.22944 -0.12617,0 -0.22945,-0.10318 -0.22945,-0.22944 z m -53.7551,3.9291 c -0.0947,-0.36228 -0.0346,-0.42199 0.30083,-0.29798 0.53529,0.19799 0.63562,0.59354 0.17319,0.68255 -0.19808,0.038 -0.40808,-0.13222 -0.47402,-0.38457 z m -38.72133,3.43011 c 0,-0.76767 1.13997,-0.73985 1.79028,0.0441 0.24258,0.29236 0.13568,0.34361 -0.75376,0.3615 -0.86429,0.0173 -1.03652,-0.0501 -1.03652,-0.40523 z m 114.82725,3.11718 c 0.0743,-0.73267 0.45587,-1.05943 1.24402,-1.06461 0.73466,-0.009 0.57358,0.77225 -0.18226,0.87933 -0.30929,0.0441 -0.68954,0.25036 -0.84501,0.45889 -0.24414,0.32744 -0.27378,0.29002 -0.21675,-0.27361 z m 4.42749,3.87768 c -0.16281,-0.16273 -0.52345,-0.36806 -0.80155,-0.4563 -0.40617,-0.12894 -0.50556,-0.33479 -0.50556,-1.04655 0,-0.48724 0.14121,-1.02728 0.31388,-1.19994 0.17267,-0.17267 0.3895,-0.5518 0.4818,-0.8426 0.11502,-0.36245 0.24206,-0.45449 0.40392,-0.29262 0.16178,0.16186 0.35908,0.15936 0.62716,-0.009 0.28864,-0.18019 0.70173,-0.14104 1.57682,0.14968 1.16339,0.38638 1.18578,0.4111 1.18578,1.30676 0,0.55024 0.0912,0.85668 0.22944,0.77121 0.12626,-0.0778 0.22954,0.019 0.22954,0.21588 0,0.19678 -0.14096,0.35778 -0.31328,0.35778 -0.17232,0 -0.56113,0.19497 -0.86412,0.43331 -0.82825,0.65153 -2.19732,0.97811 -2.56383,0.61151 z m -91.66859,1.63352 c -0.57028,-0.74391 0.38803,-3.2316 1.08,-2.80391 0.13611,0.0838 0.24707,-0.009 0.24707,-0.20507 0,-0.49787 1.32578,-0.46883 2.07288,0.0449 0.78479,0.54013 0.78124,1.67414 -0.009,2.433 -0.66327,0.63812 -3.02653,1.00774 -3.39234,0.53062 z m 1.32707,0.67356 c 0,-0.0493 0.16031,-0.15167 0.35614,-0.22685 0.20421,-0.0786 0.29634,-0.0398 0.21588,0.0901 -0.13473,0.21804 -0.57202,0.32252 -0.57202,0.13672 z m -53.4802,2.5971 c -0.97197,-0.48092 -1.37728,-0.93256 -1.71267,-1.90807 -0.27949,-0.81296 0.0311,-1.32482 0.98061,-1.61788 0.28397,-0.0876 0.51627,-0.25234 0.51627,-0.36607 0,-0.11373 0.15495,-0.14735 0.34421,-0.0743 0.18935,0.0726 0.34422,0.0181 0.34422,-0.12186 0,-0.31664 0.83983,-0.3366 1.03263,-0.0242 0.0778,0.12626 0.43945,0.22953 0.80311,0.22953 0.36374,0 0.72515,0.10327 0.80319,0.22944 0.0778,0.12618 0.34222,0.22945 0.58723,0.22945 0.38526,0 0.44541,0.16541 0.44541,1.22656 0,1.20825 -0.42649,1.98603 -1.08899,1.98603 -0.13732,0 -0.28406,0.0969 -0.32615,0.21536 -0.14769,0.41568 -1.88673,0.41378 -2.72907,0 z m 135.97467,1.16461 c -0.0778,-0.12626 -0.032,-0.22954 0.10119,-0.22954 0.1337,0 0.24302,0.10328 0.24302,0.22954 0,0.12617 -0.0458,0.22944 -0.1012,0.22944 -0.0553,0 -0.16498,-0.10327 -0.24301,-0.22944 z m 4.47467,1.24851 c 0,-0.0553 -0.10327,-0.1012 -0.22945,-0.1012 -0.12626,0 -0.22944,0.10932 -0.22944,0.24302 0,0.13369 0.10318,0.17923 0.22944,0.10119 0.12618,-0.0778 0.22945,-0.18736 0.22945,-0.24301 z m 0.53278,1.41392 c -0.40116,-0.13913 -0.80552,-0.33047 -0.89877,-0.4251 -0.0932,-0.0947 -0.46814,-0.17215 -0.83318,-0.17215 -0.38708,0 -0.60416,-0.0963 -0.52085,-0.23109 0.0786,-0.12712 0.009,-0.27205 -0.15859,-0.32217 -0.16575,-0.0501 -0.50789,-0.16904 -0.76032,-0.26427 -0.25235,-0.0952 -0.54601,-0.15357 -0.65248,-0.12955 -0.10655,0.0242 -0.15011,-0.0888 -0.0968,-0.25044 0.12255,-0.37204 1.09348,-0.5308 1.09348,-0.17881 0,0.14398 0.23238,0.24302 0.51636,0.22003 1.32033,-0.10699 1.95414,0.0475 2.63003,0.64003 0.48422,0.42458 0.66907,0.75134 0.56502,0.99876 -0.12929,0.30757 -0.27404,0.32632 -0.88391,0.11476 z m -12.10818,2.40655 c -0.19453,-0.31474 0.10923,-0.93852 0.45716,-0.93852 0.41179,0 0.59483,0.33755 0.42407,0.78236 -0.15254,0.39753 -0.67486,0.49009 -0.88123,0.15616 z m -73.09193,1.47848 c -0.34741,-0.36988 -0.5403,-0.86705 -0.55629,-1.43423 -0.0285,-1.00472 0.39339,-1.33278 1.98214,-1.54165 0.87172,-0.1146 1.02944,-0.0596 1.47018,0.511 0.27154,0.35173 0.52967,0.89359 0.57366,1.20418 0.0648,0.46028 -0.019,0.56579 -0.45569,0.57046 -0.29461,0 -0.64712,0.20966 -0.78349,0.45889 -0.53218,0.97301 -1.44478,1.06764 -2.23051,0.23135 z m 67.45308,2.16483 c -0.29496,-0.55119 -0.29184,-2.51665 0,-2.51665 0.12617,0 0.22944,0.10526 0.22944,0.23386 0,0.12859 0.23239,0.17923 0.51637,0.11243 0.61151,-0.14372 0.84285,0 1.41245,0.8967 0.39209,0.61514 0.39632,0.69145 0.0518,0.94319 -0.20594,0.15063 -0.37454,0.37109 -0.37454,0.48992 0,0.11882 -0.36323,0.22642 -0.80717,0.23895 -0.56433,0.0164 -0.87501,-0.10388 -1.03255,-0.3984 z m -34.32349,8.24684 c -0.36824,-0.47281 -0.56735,-1.12572 -0.34335,-1.12572 0.33739,0 0.75022,0.65058 0.67088,1.05736 -0.064,0.32848 -0.11649,0.33937 -0.32753,0.0683 z m -0.70493,1.75277 c 0,-0.18381 0.0864,-0.28095 0.19125,-0.21596 0.10517,0.0648 0.19125,0.21536 0.19125,0.3341 0,0.11874 -0.0864,0.21596 -0.19125,0.21596 -0.10518,0 -0.19125,-0.15037 -0.19125,-0.3341 z m 9.5326,2.06865 c -0.0657,-0.29349 -0.13534,-0.49441 -0.30844,-0.88944 -0.10724,-0.24457 -0.0786,-0.52137 0.07,-0.6695 0.18356,-0.18356 0.28018,-0.16368 0.35424,0.0726 0.26903,0.85876 0.31051,1.36882 0.12116,1.48583 -0.11442,0.0709 -0.22089,0.0709 -0.23662,2.6e-4 z m 23.38863,-21.97324 c 0.10275,-0.53391 -0.35562,-1.33148 -0.76525,-1.33148 -0.18486,0 -0.33618,-0.10327 -0.33618,-0.22953 0,-0.12618 -0.10318,-0.22945 -0.22944,-0.22945 -0.12618,0 -0.22945,0.24958 -0.22945,0.55456 0,0.30498 -0.12911,0.59967 -0.28683,0.65489 -0.21104,0.0735 -0.18252,0.21813 0.10811,0.54618 0.49407,0.55776 1.63395,0.58057 1.73904,0.0346 z m -20.60633,4.31203 c 0,-0.20914 -0.16057,-0.28078 -0.45639,-0.20344 -0.25096,0.0657 -0.39978,0.21087 -0.33064,0.32278 0.20032,0.32417 0.78703,0.23515 0.78703,-0.11934 z m -12.09505,11.3959 c 0.15262,-0.79826 0.0372,-0.97655 -0.63259,-0.97655 -0.53823,0 -0.56934,0.18322 -0.22426,1.31947 0.1597,0.5257 0.73483,0.29547 0.85685,-0.34292 z m -6.03309,2.50161 c 0,-0.10629 0.34421,-0.37869 0.76499,-0.60528 0.74322,-0.40022 1.34825,-0.39849 2.64576,0.009 0.50107,0.15685 0.5219,0.13162 0.27413,-0.33142 -0.14752,-0.27568 -0.20516,-0.69992 -0.12808,-0.94285 0.19168,-0.60408 -0.28769,-1.44763 -0.72696,-1.27902 -0.19117,0.0735 -0.67374,-0.0199 -1.07239,-0.20741 -0.91632,-0.43072 -2.902,-0.61453 -2.83684,-0.26263 0.0268,0.14458 -0.21052,0.22365 -0.55525,0.18503 -0.71582,-0.0804 -1.3485,0.47816 -1.3485,1.19018 0,0.37592 0.21259,0.588 0.80319,0.80155 0.44169,0.15979 0.8031,0.40073 0.8031,0.53554 0,0.27698 0.88529,1.10203 1.18249,1.10203 0.1069,0 0.19436,-0.087 0.19436,-0.19332 z m -2.06519,5.33499 c 0,-0.20646 -0.1,-0.40885 -0.26876,-0.54393 -0.0978,-0.0786 -0.22063,-0.60278 -0.27283,-1.16538 -0.0527,-0.56259 -0.17094,-1.22941 -0.26367,-1.48185 -0.39416,-1.0723 -1.61425,-3.69187 -1.82935,-3.9278 -0.12859,-0.14095 -0.46546,-0.5282 -0.74857,-0.86049 -0.57694,-0.6771 -0.97681,-0.78063 -0.97681,-0.25278 0,0.48646 -0.49432,0.6288 -1.2225,0.35199 -0.4321,-0.16428 -0.61324,-0.39753 -0.61324,-0.78997 0,-0.70147 -1.16866,-1.49593 -1.97419,-1.34193 -0.68566,0.1311 -1.0952,0.82402 -0.91389,1.54632 0.16083,0.64081 -0.0562,1.31013 -0.36297,1.12044 -0.42726,-0.2641 -1.1111,0.62361 -0.95607,1.24108 0.11633,0.46373 0.0735,0.55171 -0.21423,0.44118 -0.19894,-0.0761 -0.41231,0 -0.47773,0.17016 -0.0648,0.16938 -0.43504,0.37766 -0.82212,0.46269 -0.40099,0.0881 -0.70398,0.30152 -0.70398,0.49606 0,0.23255 -0.14078,0.29668 -0.44187,0.2011 -0.29028,-0.0921 -0.52405,0 -0.68142,0.27144 -0.13179,0.22642 -0.24267,0.28251 -0.24656,0.12479 0,-0.1578 -0.15936,-0.28683 -0.3456,-0.28683 -0.59941,0 -1.79322,-0.87094 -2.10424,-1.53508 -0.16619,-0.35467 -0.39123,-0.79982 -0.50021,-0.98908 -0.82047,-1.42551 -0.8292,-2.3381 -0.0199,-2.12655 0.24993,0.0657 0.43919,0 0.43919,-0.15694 0,-0.16152 0.175,-0.21613 0.43175,-0.13464 0.26454,0.0838 0.4805,0.0104 0.55767,-0.19107 0.0691,-0.18054 0.53806,-0.3978 1.0418,-0.48292 0.50374,-0.0856 0.97681,-0.31353 1.0513,-0.50772 0.0985,-0.25658 0.21502,-0.28683 0.42727,-0.11071 0.17733,0.14718 0.42095,0.16239 0.62101,0.0389 0.27033,-0.16713 0.23196,-0.28778 -0.21492,-0.67529 -0.29928,-0.25952 -0.72222,-0.47185 -0.93983,-0.47185 -0.21769,0 -0.52431,-0.15495 -0.68142,-0.34421 -0.15711,-0.18935 -0.47955,-0.34422 -0.71643,-0.34422 -0.23705,0 -0.4321,-0.0778 -0.43357,-0.17206 0,-0.0947 -0.42562,-0.37489 -0.94258,-0.62266 -0.51697,-0.24776 -1.3161,-0.9189 -1.77577,-1.49127 -0.45967,-0.57236 -0.96765,-1.18015 -1.12891,-1.35057 -0.32623,-0.34482 -0.34101,-3.01806 -0.0164,-3.01806 0.10725,0 0.19505,-0.14225 0.19505,-0.31613 0,-0.17388 0.15495,-0.44463 0.34422,-0.60174 0.18934,-0.15711 0.34421,-0.65213 0.34421,-1.10005 0,-0.44791 0.16126,-0.99253 0.35838,-1.21031 0.50478,-0.55776 0.73086,-2.94098 0.30705,-3.23697 -0.22417,-0.15659 -0.24163,-0.25718 -0.0579,-0.33306 0.17933,-0.0743 0.22599,-0.61851 0.14579,-1.70352 -0.10724,-1.45307 -0.0786,-1.59489 0.31639,-1.59489 0.71055,0 1.39024,-0.6262 1.55038,-1.42835 0.083,-0.41344 0.20957,-1.03558 0.28242,-1.38264 0.0726,-0.34767 0.28623,-0.63104 0.47505,-0.63104 0.20378,0 0.29141,-0.13378 0.21614,-0.32995 -0.083,-0.21519 0.0475,-0.35485 0.37394,-0.4016 0.38129,-0.0544 0.53365,-0.27654 0.6396,-0.93213 0.0769,-0.47332 0.0519,-0.86049 -0.0544,-0.86049 -0.10639,0 -0.19341,-0.13896 -0.19341,-0.30869 0,-0.16973 -0.20447,-0.49372 -0.4544,-0.71988 -0.25002,-0.22625 -0.52155,-0.76871 -0.60348,-1.20565 -0.105,-0.55966 -0.20697,-0.70286 -0.34516,-0.48482 -0.10794,0.17025 -0.19781,0.20525 -0.19972,0.0778 0,-0.12756 0.25469,-0.51023 0.57021,-0.85055 0.43305,-0.46702 0.57063,-0.86014 0.56147,-1.60396 -0.019,-1.56732 -0.58438,-4.62617 -0.87233,-4.7221 -0.14458,-0.0484 -0.26289,-0.27801 -0.26289,-0.51083 0,-0.23273 -0.25814,-0.6262 -0.57366,-0.8744 -0.31552,-0.24811 -0.57366,-0.51653 -0.57366,-0.59639 0,-0.38681 -1.52549,-1.75277 -2.2095,-1.9785 -0.42545,-0.14044 -0.77364,-0.4048 -0.77364,-0.58749 0,-0.18546 -0.30394,-0.39295 -0.68834,-0.46978 -0.46321,-0.0926 -0.68842,-0.27473 -0.68842,-0.55655 0,-0.2304 -0.14095,-0.50141 -0.3131,-0.60235 -0.39425,-0.23109 -1.0857,-1.56542 -1.2989,-2.50645 l -0.1623,-0.71668 1.17394,0.0622 c 1.78328,0.0947 3.35397,0.37463 3.35397,0.5976 0,0.10984 0.0778,0.18744 0.17215,0.17249 0.41508,-0.0657 0.73786,0.0519 1.07887,0.39313 0.48395,0.48395 2.64999,1.27211 2.64999,0.96428 0,-0.12998 0.21286,-0.18079 0.47298,-0.11278 0.29729,0.0778 0.52207,-0.009 0.60512,-0.22063 0.097,-0.25278 0.40782,-0.32434 1.1678,-0.26903 1.22699,0.0893 1.24626,0.0493 1.28489,-2.65907 0.0173,-1.22976 0.11866,-1.84749 0.31285,-1.91231 0.15771,-0.0527 0.28683,-0.25805 0.28683,-0.45647 0,-0.33669 0.75125,-1.46223 1.44356,-2.16267 0.69508,-0.7032 0.65101,-1.14265 -0.19462,-1.94014 -0.8311,-0.78392 -1.24894,-0.9667 -1.24894,-0.54643 0,0.3576 -1.05796,0.26946 -1.37685,-0.11477 -0.15712,-0.18935 -0.43504,-0.34421 -0.61774,-0.34421 -0.21311,0 -0.30575,-0.18494 -0.25874,-0.51628 0.0674,-0.47246 0.18062,-0.51135 1.33545,-0.45802 2.03788,0.0941 3.95676,0.40608 4.82451,0.78452 0.79334,0.34585 2.5271,0.40108 3.20697,0.10215 0.68635,-0.30187 1.06185,-1.76289 1.00948,-3.92807 -0.0277,-1.13591 -0.0856,-2.26801 -0.12816,-2.51587 -0.0596,-0.34378 0.19919,-0.59241 1.0914,-1.04827 0.64322,-0.32875 1.41772,-0.82981 1.72097,-1.11353 0.30334,-0.28363 0.88711,-0.67555 1.29726,-0.87095 0.41015,-0.19531 0.74581,-0.4881 0.74581,-0.65057 0,-0.31785 1.44106,-1.25862 1.92803,-1.25862 0.16256,0 0.48621,-0.2107 0.71928,-0.46823 0.33497,-0.37014 0.66717,-0.45794 1.58452,-0.41897 0.63839,0.0268 1.49628,0.18754 1.90643,0.35657 0.45457,0.18736 0.74581,0.21649 0.74581,0.0752 0,-0.1279 0.11719,-0.23255 0.26047,-0.23255 0.31051,0 1.34582,-1.07447 1.34582,-1.39673 0,-0.28112 0.7115,-1.41504 1.02538,-1.63421 0.44213,-0.3086 0.60685,0.21873 0.7395,2.3668 0.16238,2.6315 0.32365,3.01866 1.17005,2.80883 0.75298,-0.18658 2.34285,-1.20478 2.34285,-1.50026 0,-0.11692 0.10327,-0.14873 0.22953,-0.0709 0.12618,0.0778 0.2323,0.009 0.23585,-0.15858 0.0104,-0.47609 1.30486,-1.63006 1.61441,-1.43881 0.17285,0.1069 0.23593,0.0545 0.17034,-0.14277 -0.0631,-0.18917 0.27196,-0.51273 0.84882,-0.81978 0.73967,-0.39373 1.12874,-0.46753 1.73809,-0.32961 0.93809,0.21242 2.18358,0.83232 2.41069,1.19986 0.0898,0.14528 0.2075,1.7724 0.2616,3.61583 0.0553,1.87481 0.217,3.60071 0.36763,3.91692 0.6676,1.40165 2.44621,1.47744 3.8788,0.16523 0.92375,-0.84614 2.44146,-1.42593 2.79829,-1.0691 0.3023,0.30238 2.36144,0.2857 2.5507,-0.0207 0.29746,-0.48119 1.02339,0.50417 1.02339,1.38912 0,0.46425 0.0709,0.91485 0.15729,1.00135 0.23696,0.23697 0.7522,1.80653 0.76447,2.32868 0.0138,0.60322 0.52734,1.26209 0.98312,1.26209 0.19954,0 0.42657,0.10327 0.50461,0.22944 0.0778,0.12618 0.0372,0.22945 -0.0901,0.22945 -0.34827,0 0.30221,1.3994 0.77286,1.66281 0.45846,0.2565 2.13121,0.0449 2.57844,-0.32632 0.23558,-0.19557 0.28786,-0.1311 0.24085,0.29685 -0.0328,0.30066 -0.24068,0.6816 -0.46157,0.84649 -0.22089,0.16489 -0.4016,0.46607 -0.4016,0.66924 0,0.20326 -0.0683,0.30152 -0.15097,0.21847 -0.2075,-0.20749 -0.79222,0.30679 -0.63606,0.55949 0.0691,0.11191 0.0553,0.31777 -0.0311,0.45742 -0.10941,0.17708 -0.21665,0.15962 -0.35415,-0.057 -0.13801,-0.21769 -0.19833,-0.12159 -0.20084,0.31976 0,0.34706 -0.0965,0.6052 -0.21,0.57366 -0.34387,-0.0955 -0.34862,0.10327 -0.0458,1.89312 0.21432,1.26623 0.22555,1.89174 0.0423,2.36697 -0.13689,0.35527 -0.24898,0.91139 -0.24898,1.23581 0,0.33436 -0.24845,0.82004 -0.57365,1.12139 -0.31552,0.29245 -0.57366,0.74762 -0.57366,1.01164 0,0.26392 -0.24915,0.74857 -0.5537,1.07697 -0.30446,0.32839 -0.49994,0.7369 -0.43435,0.90784 0.0657,0.17094 0.0104,0.31077 -0.12306,0.31077 -0.15279,0 -0.11943,0.29409 0.0901,0.79576 0.55421,1.32638 0.2647,3.3347 -0.48067,3.3347 -0.15435,0 -0.33281,0.27266 -0.3965,0.60598 -0.13274,0.6943 0.82782,2.51864 1.54131,2.92723 0.71668,0.41041 1.50414,1.32267 1.50414,1.74258 0,0.42294 0.76102,1.22976 0.96636,1.02443 0.0691,-0.0691 0.19937,0.26591 0.28925,0.74477 0.0898,0.47885 0.24318,0.92254 0.34084,0.98597 0.0976,0.0631 0.24318,0.32615 0.32347,0.58385 0.12427,0.39909 0,0.50755 -0.82964,0.73086 -0.77752,0.20897 -1.06867,0.43988 -1.43449,1.13764 -0.25243,0.48153 -0.69127,1.13262 -0.97525,1.44685 -0.68817,0.76154 -0.72135,2.18989 -0.0553,2.36411 0.44213,0.11563 1.50294,-0.13611 2.34657,-0.5568 0.21916,-0.10932 0.55473,-0.19868 0.74572,-0.19868 0.19108,0 0.34733,-0.11071 0.34733,-0.24587 0,-0.33073 0.45085,-0.74131 1.1474,-1.04508 0.66189,-0.28864 1.60629,0.0233 1.60629,0.53028 0,0.17223 0.24812,0.40738 0.55137,0.52267 0.30325,0.11537 0.62015,0.32096 0.70424,0.45707 0.0838,0.13603 0.26003,0.18114 0.39105,0.10016 0.15417,-0.0953 0.13067,-0.21354 -0.0666,-0.33548 -0.16757,-0.10353 -0.21605,-0.27136 -0.10776,-0.3729 0.10828,-0.10146 0.24353,-0.0536 0.30065,0.10638 0.2355,0.65999 0.8159,1.00472 1.41531,0.84061 0.32892,-0.0901 0.81944,-0.15115 1.09003,-0.13594 0.27058,0.0156 0.61505,-0.12038 0.76534,-0.30152 0.1807,-0.21769 0.40289,-0.2628 0.65532,-0.13317 0.21018,0.10785 1.03152,0.38716 1.82537,0.62075 1.15242,0.33903 1.47114,0.53477 1.58132,0.97102 0.0945,0.3742 0.019,0.6129 -0.2386,0.75722 -0.20715,0.11589 -0.37662,0.45172 -0.37662,0.74624 0,0.30437 -0.17336,0.59518 -0.4016,0.67382 -0.2208,0.076 -0.71703,0.33289 -1.10272,0.5708 -0.57064,0.35208 -1.11932,0.42822 -2.94712,0.40877 -1.92976,-0.0207 -2.28936,0.0354 -2.55355,0.39676 -0.16912,0.23135 -0.40505,0.36037 -0.52431,0.28666 -0.11926,-0.0735 -0.27421,0.15305 -0.34438,0.50383 -0.18892,0.94448 0.0648,5.15134 0.33047,5.47092 0.1553,0.18719 0.12375,0.4843 -0.0982,0.92349 -0.17992,0.35614 -0.28181,0.80241 -0.22642,0.99176 0.0631,0.21545 0.0302,0.25226 -0.0888,0.0983 -0.18632,-0.24163 -2.27294,-0.25693 -3.17266,-0.0233 -0.25244,0.0657 -0.58801,0.12712 -0.74581,0.1368 -0.15772,0.01 -0.26099,0.14666 -0.22945,0.30437 0.0311,0.15781 -0.12686,0.27197 -0.35199,0.25365 -0.30273,-0.0242 -0.37342,0.0804 -0.27136,0.40159 0.1375,0.43323 -0.21293,0.61583 -0.44886,0.23394 -0.0683,-0.11044 -0.3583,-0.20334 -0.64461,-0.20663 -0.28631,0 -0.83024,-0.13741 -1.20894,-0.29832 -0.3786,-0.16083 -0.94656,-0.32157 -1.26208,-0.35709 -1.00049,-0.11278 -1.6521,-0.32702 -1.9741,-0.64902 -0.1718,-0.1718 -0.42389,-0.34957 -0.56026,-0.39502 -0.43366,-0.1445 0.16938,-1.33511 0.67632,-1.33511 0.24639,0 0.64003,-0.24431 0.87492,-0.54281 0.87034,-1.10644 2.18341,-0.95019 2.62347,0.31232 0.21622,0.62016 0.2908,0.64997 1.53076,0.61324 1.2174,-0.0363 1.30814,-0.0778 1.37218,-0.62836 0.038,-0.32442 -0.20628,-1.13712 -0.54229,-1.8061 -0.45431,-0.90456 -0.53917,-1.26079 -0.33099,-1.38947 0.19989,-0.12349 0.20733,-0.21795 0.0259,-0.32995 -0.13966,-0.0864 -0.36176,-0.0904 -0.49346,-0.009 -0.1317,0.0812 -0.3691,0.0406 -0.52751,-0.091 -0.15841,-0.13145 -0.59276,-0.21432 -0.96523,-0.18425 -0.37247,0.0302 -1.0386,-0.0735 -1.48029,-0.22962 -1.13574,-0.40211 -1.6063,-0.37325 -1.6063,0.0984 0,0.39581 -0.62335,0.76154 -2.29472,1.34643 -0.58213,0.2037 -0.79809,0.41214 -0.78495,0.75739 0.0104,0.26203 -0.0674,0.47635 -0.17207,0.47635 -0.10465,0 -0.19029,0.3971 -0.19029,0.88235 0,1.04137 -0.6574,1.80325 -1.311,1.51945 -0.38042,-0.16524 -0.38155,-0.18494 -0.0164,-0.27266 0.3239,-0.0778 0.34628,-0.17085 0.12574,-0.52397 -0.19903,-0.31872 -0.2024,-0.56631 -0.013,-0.95995 0.45353,-0.94337 0.49968,-1.28231 0.22348,-1.63966 -0.33471,-0.43288 -0.77156,-0.50979 -1.59057,-0.28009 -0.55162,0.1547 -0.63441,0.29651 -0.65817,1.12736 -0.0147,0.52267 -0.0104,1.07947 0.0104,1.23719 0.0207,0.1578 -0.0588,0.28683 -0.17552,0.28683 -0.29219,0 -0.48257,-0.82315 -0.35424,-1.5312 0.13758,-0.75833 -0.44498,-1.20556 -1.58296,-1.21515 -0.57167,-0.009 -0.91364,0.11234 -1.00222,0.34335 -0.20853,0.54341 -0.97085,0.87578 -1.32819,0.57919 -0.48525,-0.40264 -1.04707,-0.032 -1.04707,0.69023 0,0.72438 0.43106,1.822 0.71556,1.822 0.10059,0 0.15296,0.38077 0.11632,0.84623 -0.0363,0.46538 0.12479,1.34998 0.35873,1.96563 0.42113,1.10835 0.42061,1.12615 -0.0544,1.79271 -0.26367,0.37031 -0.40143,0.67321 -0.3061,0.67321 0.0953,0 -0.11996,0.3061 -0.47834,0.6803 -0.35847,0.37412 -0.74374,0.62335 -0.85617,0.55387 -0.11243,-0.0691 -0.34309,-0.0112 -0.51264,0.12946 -0.23913,0.19851 -0.44066,0.0873 -0.89947,-0.49649 -0.32511,-0.41378 -0.74987,-0.93308 -0.94379,-1.15397 -0.19393,-0.2208 -0.3526,-0.5059 -0.3526,-0.63354 0,-0.12756 -0.19712,-0.66968 -0.43806,-1.2047 -0.24103,-0.53503 -0.49104,-1.12762 -0.5556,-1.31696 -0.0901,-0.26419 -0.12168,-0.24898 -0.13559,0.0657 -0.0156,0.34568 -0.0943,0.36892 -0.50574,0.14872 -0.41084,-0.21993 -0.57651,-0.17214 -1.05173,0.30308 -0.42994,0.42986 -0.56407,0.80665 -0.56407,1.58383 0,0.96289 -0.0493,1.0411 -0.87855,1.40044 -0.48317,0.20931 -1.155,0.44999 -1.49299,0.53485 -1.11993,0.28104 -2.40914,2.03849 -2.40914,3.28398 0,0.28328 -0.14735,0.48171 -0.3577,0.48171 -0.19678,0 -0.29409,0.10301 -0.21622,0.22892 0.21328,0.34517 -0.58749,1.55695 -1.12105,1.69643 -0.25744,0.0674 -0.63484,-0.0285 -0.83879,-0.21302 -0.20387,-0.1846 -0.44006,-0.33557 -0.52475,-0.33557 -0.25848,0 -0.1527,1.20928 0.18987,2.17122 0.17811,0.49994 0.29754,0.93533 0.2654,0.96748 -0.032,0.032 -0.46633,-0.29746 -0.96497,-0.73259 -1.00412,-0.8763 -1.25059,-0.96609 -1.25059,-0.4556 0,0.18934 0.1807,0.34749 0.40151,0.35147 0.38249,0.009 0.38249,0.0216 0,0.31215 -0.22081,0.16765 -0.40385,0.44835 -0.40661,0.62378 -0.0147,0.92876 -1.52074,1.82606 -2.85628,1.70196 -0.89532,-0.083 -0.91969,-0.0553 -1.14213,1.28792 -0.0941,0.56848 -0.28303,0.87311 -0.59155,0.95374 -0.24932,0.0648 -0.45327,0.0769 -0.45327,0.0251 z m 25.75673,-0.0544 c -0.5371,-0.35631 -0.90716,-0.71729 -0.82229,-0.80216 0.0847,-0.0847 0.0337,-0.15417 -0.11347,-0.15417 -0.14726,0 -0.26773,0.10647 -0.26773,0.23662 0,0.13015 -0.33557,0.22443 -0.74572,0.2094 -0.41024,-0.0147 -1.04292,0.0631 -1.40606,0.17396 -0.49943,0.1521 -0.8999,0.0871 -1.6445,-0.26687 -0.88771,-0.42199 -0.99176,-0.55793 -1.06081,-1.38575 -0.0795,-0.95002 0.18961,-2.17995 0.47635,-2.17995 0.0901,0 0.37913,-0.20067 0.64228,-0.44584 0.65213,-0.60754 1.51737,-0.44706 3.79273,0.70329 0.21916,0.11079 0.99366,0.203 1.72097,0.20481 1.56551,0 2.49444,0.4054 2.41312,1.04266 -0.0311,0.24509 -0.0786,0.82549 -0.10543,1.28983 -0.0268,0.46442 -0.13032,0.79394 -0.23005,0.73224 -0.0997,-0.0614 -0.18131,0.10059 -0.18131,0.36046 0,0.31465 -0.14873,0.47246 -0.44541,0.47246 -0.24501,0 -0.50928,0.10327 -0.58723,0.22944 -0.20862,0.33747 -0.36011,0.29305 -1.43544,-0.42043 z m -70.54494,0.64003 c -0.0441,-0.13162 -0.42813,-0.28346 -0.85392,-0.3373 -0.8407,-0.10638 -1.62876,-0.68212 -1.62876,-1.18992 0,-0.17526 -0.25814,-0.59708 -0.57366,-0.9374 -0.31552,-0.34024 -0.57427,-0.87786 -0.57504,-1.19468 0,-0.31682 -0.14597,-0.85306 -0.32261,-1.19156 -0.17664,-0.3386 -0.39356,-0.94527 -0.48205,-1.34816 -0.12808,-0.58299 -0.0973,-0.6943 0.15045,-0.54514 0.26073,0.15702 0.26151,0.12591 0.009,-0.19073 -0.37585,-0.46365 -0.22919,-0.72801 0.64625,-1.16477 0.86152,-0.42977 1.90194,-0.20992 3.24612,0.68574 1.12277,0.74823 2.61422,1.32344 2.92827,1.12934 0.24422,-0.15097 0.55966,0.93939 0.36357,1.25673 -0.0743,0.12038 0.01,0.2189 0.18554,0.2189 0.17656,0 0.44438,0.27075 0.59518,0.60183 0.22348,0.49061 0.20914,0.70122 -0.0778,1.13928 -0.19367,0.29556 -0.35208,0.68894 -0.35208,0.87423 0,0.18528 -0.20982,0.40341 -0.46632,0.48482 -0.2565,0.0812 -0.73284,0.38638 -1.05865,0.67779 -1.56127,1.3963 -1.59973,1.4192 -1.72918,1.031 z m -18.88976,7.12345 c -0.0778,-0.12617 -0.35994,-0.22944 -0.62655,-0.22944 -0.26652,0 -0.67797,-0.17492 -0.91415,-0.38872 -0.40367,-0.3653 -0.42053,-0.3653 -0.28035,0 0.23489,0.61211 -0.19471,0.45474 -0.8178,-0.29971 -0.31284,-0.3786 -0.65463,-0.68842 -0.75972,-0.68842 -0.105,0 -0.34162,-0.15063 -0.52578,-0.33479 -0.29262,-0.29262 -0.29305,-0.43496 0,-1.12865 0.18243,-0.4366 0.27058,-0.85496 0.19583,-0.92971 -0.0752,-0.0743 0.0631,-0.32071 0.30636,-0.54653 0.38362,-0.35622 0.68566,-0.38854 2.27804,-0.24336 1.00965,0.092 2.01645,0.17466 2.23734,0.18356 0.22089,0.009 0.40159,0.17129 0.40159,0.36055 0,0.18934 0.0952,0.34421 0.21164,0.34421 0.39158,0 0.71738,1.45584 0.49744,2.22264 -0.11451,0.39927 -0.14882,0.78539 -0.0761,0.85799 0.0726,0.0726 -0.0917,0.13196 -0.36513,0.13196 -0.27352,0 -0.70372,0.20654 -0.95615,0.45898 -0.52379,0.52371 -0.60667,0.54738 -0.80319,0.22944 z m 41.80464,2.82007 c -0.0691,-0.11174 -0.0423,-0.33825 0.0605,-0.50348 0.14104,-0.22824 0.22625,-0.23455 0.35493,-0.0259 0.0932,0.15063 0.0657,0.37723 -0.0605,0.5034 -0.12842,0.12842 -0.28475,0.14 -0.35492,0.0268 z m -0.50003,0.62197 c 0.0778,-0.12617 0.23904,-0.22945 0.35778,-0.22945 0.11874,0 0.21588,0.10328 0.21588,0.22945 0,0.12626 -0.161,0.22945 -0.3577,0.22945 -0.19678,0 -0.29391,-0.10319 -0.21596,-0.22945 z m 43.75704,0.99064 c -0.16566,-0.0666 -0.36357,-0.0579 -0.43979,0.0181 -0.076,0.0761 0.0596,0.1304 0.30118,0.12047 0.26729,-0.0112 0.32165,-0.0657 0.13861,-0.13862 z m -0.73146,1.66739 c 0,-0.1788 -0.10422,-0.35985 -0.23169,-0.40229 -0.12747,-0.0423 -0.27646,-0.30964 -0.33116,-0.5937 -0.0544,-0.28398 -0.16239,-0.61808 -0.23913,-0.74235 -0.0795,-0.12912 0.013,-0.1674 0.2164,-0.0894 0.19591,0.0752 0.35614,0.0225 0.35614,-0.11736 0,-0.13974 0.16912,-0.25399 0.37584,-0.25399 0.32235,0 0.3538,-0.18753 0.22149,-1.31947 -0.0847,-0.72567 -0.2539,-1.35386 -0.37575,-1.39594 -0.12185,-0.0423 -0.22158,-0.17725 -0.22158,-0.3004 0,-0.12315 0.10206,-0.16074 0.22685,-0.0838 0.12669,0.0786 0.17042,-0.009 0.0991,-0.19272 -0.16402,-0.42743 0.17051,-0.62447 1.63983,-0.966 1.10229,-0.25624 1.22121,-0.24198 1.59195,0.19099 0.273,0.3188 0.40064,0.8591 0.40064,1.69565 0,1.05182 -0.0864,1.29561 -0.60235,1.70153 -0.3576,0.2813 -0.60235,0.70251 -0.60235,1.03653 0,0.67554 -1.08924,1.24065 -1.41167,0.73232 -0.13853,-0.21838 -0.18857,-0.19073 -0.19116,0.10587 0,0.22089 -0.10673,0.40159 -0.23299,0.40159 -0.12618,0 -0.22945,0.20646 -0.22945,0.45889 0,0.25244 -0.10327,0.45898 -0.22944,0.45898 -0.12626,0 -0.22954,-0.14631 -0.22954,-0.32511 z m -11.58974,1.02555 c -1.39224,-0.2558 -1.65962,-0.65083 -1.79807,-2.65578 -0.0691,-1.00706 -0.13187,-1.85674 -0.13862,-1.88829 -0.009,-0.0311 -0.21268,-0.057 -0.45768,-0.057 -0.24491,0 -0.51178,-0.10742 -0.59293,-0.23878 -0.0812,-0.13136 -0.34542,-0.17604 -0.58722,-0.0993 -0.24181,0.0769 -0.4404,0.0553 -0.44118,-0.0484 0,-0.1031 -0.34188,-0.41922 -0.75773,-0.70225 l -0.75618,-0.5148 -0.89022,0.45388 c -1.08319,0.55222 -1.25715,0.805 -1.26485,1.83772 -0.01,1.29095 -0.27136,2.52599 -0.50452,2.38192 -0.11848,-0.0735 -0.34663,0.0458 -0.50703,0.26557 -0.22348,0.30567 -0.4741,0.36314 -1.07472,0.24621 -0.43072,-0.0838 -1.1207,-0.14622 -1.53327,-0.13879 -0.47056,0.009 -0.80017,-0.11684 -0.88451,-0.33669 -0.0743,-0.19272 -0.22686,-0.29323 -0.33989,-0.2234 -0.40627,0.25105 -0.19531,-1.33217 0.25355,-1.90271 0.25235,-0.32097 0.4589,-0.70943 0.4589,-0.86343 0,-0.34879 1.35688,-1.49395 1.77023,-1.49395 0.16766,0 0.41802,-0.24837 0.55637,-0.55205 0.22064,-0.48404 0.85669,-0.91977 2.0333,-1.39275 1.13332,-0.45561 2.29472,-1.40926 2.29472,-1.88423 0,-0.1737 0.15495,-0.37523 0.34422,-0.44791 0.18934,-0.0726 0.34421,-0.32754 0.34421,-0.5664 0,-0.23895 0.0913,-0.43444 0.20274,-0.43444 0.11148,0 0.25866,-0.21415 0.32719,-0.476 0.0683,-0.26177 0.33859,-0.53192 0.60036,-0.60045 0.26185,-0.0683 0.476,-0.2673 0.476,-0.44187 0,-0.17456 0.15487,-0.31742 0.34421,-0.31742 0.18935,0 0.34422,-0.0786 0.34422,-0.17448 0,-0.0959 0.23411,-0.4315 0.52016,-0.74572 1.46664,-1.6107 1.53906,-1.78061 1.21628,-2.85282 l -0.29936,-0.99479 0.83033,0.4805 c 0.45673,0.26427 0.90404,0.58835 0.99409,0.72014 0.0906,0.13265 0.97638,0.23964 1.98309,0.23973 1.42447,9e-5 1.91793,0.0891 2.27303,0.40998 0.24941,0.22538 0.81304,0.44204 1.2524,0.48145 0.43945,0.0397 0.94354,0.16229 1.12018,0.27291 0.17665,0.11062 0.52768,0.17327 0.78012,0.13922 0.34343,-0.0467 0.38059,-0.009 0.1476,0.14917 -0.20118,0.13637 -0.22711,0.26306 -0.0735,0.35821 0.13092,0.0812 0.30774,0.0346 0.39278,-0.10319 0.0927,-0.14994 0.28449,-1.7e-4 0.47842,0.37377 0.29487,0.5683 0.28251,0.65282 -0.13879,0.94794 -0.25442,0.1782 -0.46261,0.47048 -0.46261,0.64945 0,0.24898 -0.1298,0.2762 -0.55153,0.11589 -0.47177,-0.17941 -0.68739,-0.076 -1.49153,0.71176 -0.84191,0.82514 -1.03696,1.25483 -1.0017,2.20554 0.009,0.1578 -0.0923,0.28682 -0.21821,0.28682 -0.12946,0 -0.16636,0.24907 -0.0847,0.57366 0.15426,0.61471 -0.0622,0.74374 -0.50444,0.30118 -0.21043,-0.21044 -0.36478,-0.18304 -0.67693,0.1203 -0.6485,0.63017 -2.07608,1.50189 -2.22152,1.35654 -0.0735,-0.0735 -0.13335,0.0389 -0.13335,0.24897 0,0.21035 -0.0964,0.3825 -0.21398,0.3825 -0.1177,0 -0.28302,0.21735 -0.36737,0.483 -0.12271,0.38656 -0.28164,0.45734 -0.79628,0.35441 -0.54055,-0.10811 -0.66526,-0.0397 -0.78279,0.42856 -0.12004,0.47825 -0.23697,0.53779 -0.82549,0.42009 -0.57936,-0.11589 -0.68566,-0.0657 -0.68566,0.32442 0,0.33557 0.1846,0.48871 0.67633,0.56087 0.40358,0.0596 0.6205,0.009 0.53797,-0.12453 -0.0864,-0.13931 0.15227,-0.16567 0.63181,-0.07 0.42346,0.0847 0.84105,0.26894 0.9279,0.40937 0.0868,0.14052 0.27715,0.18166 0.42303,0.0915 0.14579,-0.0901 0.40375,-0.0484 0.57322,0.0919 0.47177,0.39148 -0.009,2.07849 -0.5899,2.07849 -0.3411,0 -0.40644,0.11555 -0.30161,0.5333 0.17276,0.68817 -0.27421,1.01812 -1.15924,0.85556 z m 47.84603,1.22553 c 0,-0.22997 0.12686,-0.3201 0.33687,-0.23956 0.18528,0.0709 0.39788,0.0302 0.47246,-0.0901 0.23454,-0.37948 0.56752,-0.23887 0.56752,0.23947 0,0.35691 -0.15297,0.45897 -0.68843,0.45897 -0.47928,0 -0.68842,-0.112 -0.68842,-0.36875 z m -121.2431,3.0076 c 0.088,-0.22927 -0.0104,-0.34534 -0.29409,-0.34767 -0.35813,0 -0.37118,-0.038 -0.0821,-0.22219 0.21925,-0.13922 0.37204,-0.13792 0.42069,0 0.15133,0.43937 0.49061,0.21096 0.43712,-0.29417 -0.0423,-0.39961 0.0752,-0.52976 0.51904,-0.57573 0.82497,-0.0856 1.22838,0.24586 1.03626,0.85124 -0.0881,0.27767 -0.21475,0.45033 -0.28138,0.38379 -0.0665,-0.0665 -0.2711,0.0285 -0.4544,0.21216 -0.45742,0.45743 -1.47779,0.44887 -1.30132,-0.0112 z m 35.29208,5.46574 c -0.2603,-0.0519 -0.87984,-0.44861 -1.37676,-0.88226 -0.49692,-0.43366 -0.97603,-0.7904 -1.0647,-0.79282 -0.22607,-0.009 -0.63908,-1.58158 -0.64055,-2.44337 0,-0.58273 0.12903,-0.7719 0.6905,-1.00446 1.03938,-0.43055 3.28095,-0.10949 4.39828,0.62992 0.77692,0.5142 1.56455,1.53042 1.56455,2.01878 0,0.25511 -2.6175,2.63184 -2.86267,2.59926 -0.12937,-0.0173 -0.44826,-0.0735 -0.70865,-0.12505 z m 38.90965,6.78823 c 0,-0.11372 -0.19048,-0.2068 -0.42338,-0.2068 -0.23281,0 -0.61021,-0.20646 -0.83871,-0.45889 -0.22841,-0.25243 -0.55421,-0.45898 -0.72394,-0.45898 -0.16973,0 -0.32019,-0.0778 -0.33428,-0.17206 -0.17551,-1.17774 -0.16955,-1.9786 0.0225,-3.03733 0.19747,-1.08795 0.39114,-1.41807 1.38187,-2.35522 1.04802,-0.9915 1.5095,-1.20089 2.51872,-1.14265 0.18753,0.0104 0.40756,-0.0882 0.48905,-0.22011 0.10111,-0.16368 0.43003,-0.14579 1.03601,0.0562 0.81434,0.27162 1.32439,0.37567 2.09249,0.42683 0.15772,0.0104 0.27456,0.0966 0.25961,0.19125 -0.0147,0.0946 -0.009,0.22374 0.0181,0.28683 0.0251,0.0631 0.0969,0.80311 0.1597,1.64449 0.0888,1.19079 0.0285,1.66083 -0.27309,2.12085 -0.21302,0.32511 -0.32157,0.76231 -0.24119,0.97162 0.14605,0.3806 -0.70286,1.40476 -1.06643,1.28663 -0.0971,-0.0311 -0.17656,0.057 -0.17656,0.19669 0,0.13966 -0.15486,0.19453 -0.34421,0.12185 -0.18926,-0.0726 -0.34421,-0.0432 -0.34421,0.0648 0,0.1082 -0.36141,0.26453 -0.80311,0.34732 -0.44178,0.083 -0.80319,0.22884 -0.80319,0.32434 0,0.0954 -0.36141,0.18381 -0.8031,0.19634 -0.4417,0.013 -0.80319,-0.07 -0.80319,-0.18399 z m -22.12353,2.66236 c -0.24129,-0.18425 -0.66492,-0.27836 -0.94138,-0.20897 -0.40211,0.10094 -0.57607,-0.0285 -0.87008,-0.64806 -0.49588,-1.04509 -1.21472,-1.67846 -1.58918,-1.40019 -0.16014,0.11892 -0.5702,0.33523 -0.91122,0.48067 -0.52103,0.22219 -0.59932,0.21052 -0.49061,-0.0726 0.0709,-0.18546 0.0121,-0.47868 -0.13161,-0.6517 -0.33186,-0.39978 0.0294,-0.56207 1.07014,-0.48015 l 0.74581,0.0588 0,-1.3606 c 0,-1.14957 0.0901,-1.45057 0.58048,-1.94109 0.53823,-0.53823 0.69275,-0.57107 2.12257,-0.45198 4.80852,0.40082 5.18427,0.53391 6.05176,2.14435 0.33203,0.61644 0.3392,0.78115 0.057,1.3243 -0.17699,0.34111 -0.32183,0.81503 -0.32183,1.05304 0,0.23791 -0.13196,0.4327 -0.29322,0.4327 -0.16127,0 -0.45622,0.18071 -0.65559,0.40151 -0.81278,0.90059 -1.40243,1.24031 -1.92501,1.10912 -0.29167,-0.0735 -0.56459,-0.0423 -0.60659,0.0683 -0.14838,0.39097 -1.4395,0.48862 -1.89183,0.14303 z m 30.21714,0.43426 c 0.0761,-0.076 0.27421,-0.0847 0.43988,-0.0181 0.18304,0.0735 0.12868,0.12764 -0.13871,0.13871 -0.24189,0.01 -0.3774,-0.0441 -0.30117,-0.12056 z m -1.20946,1.55937 c 0,-0.50522 0.67132,-0.9985 1.44219,-1.05969 0.46883,-0.0372 0.85167,-0.009 0.85072,0.0726 0,0.1814 -1.14758,0.71384 -1.53552,0.71384 -0.1642,0 -0.29849,0.10327 -0.29849,0.22944 0,0.12626 -0.10328,0.22945 -0.22945,0.22945 -0.12617,0 -0.22945,-0.0838 -0.22945,-0.18555 z m 3.21259,4.316 c 0,-0.12617 0.10328,-0.22944 0.22945,-0.22944 0.12617,0 0.22945,0.10327 0.22945,0.22944 0,0.12626 -0.10328,0.22954 -0.22945,0.22954 -0.12617,0 -0.22945,-0.10328 -0.22945,-0.22954 z"
      id="path3039" style="fill:#FF1800" />
</svg>