<?xml version="1.0" encoding="UTF-8" standalone="no"?>
<!-- Created with Inkscape (http://www.inkscape.org/) -->

<svg xmlns:dc="http://purl.org/dc/elements/1.1/" xmlns:cc="http://creativecommons.org/ns#"
   xmlns:rdf="http://www.w3.org/1999/02/22-rdf-syntax-ns#" xmlns:svg="http://www.w3.org/2000/svg"
   xmlns="http://www.w3.org/2000/svg" xmlns:sodipodi="http://sodipodi.sourceforge.net/DTD/sodipodi-0.dtd"
   xmlns:inkscape="http://www.inkscape.org/namespaces/inkscape" version="1.1" width="600" height="600" id="svg2"
   inkscape:version="0.48.3.1 r9886" sodipodi:docname="colorful-paint-splash-1.svg">
   <sodipodi:namedview pagecolor="#ffffff" bordercolor="#666666" borderopacity="1" objecttolerance="10"
      gridtolerance="10" guidetolerance="10" inkscape:pageopacity="0" inkscape:pageshadow="2"
      inkscape:window-width="1855" inkscape:window-height="1056" id="namedview10" showgrid="false"
      inkscape:zoom="0.92956192" inkscape:cx="720.90323" inkscape:cy="315.96211" inkscape:window-x="65"
      inkscape:window-y="24" inkscape:window-maximized="1" inkscape:current-layer="svg2" />
   <metadata id="metadata8">
      <rdf:RDF>
         <cc:Work rdf:about="">
            <dc:format>image/svg+xml</dc:format>
            <dc:type rdf:resource="http://purl.org/dc/dcmitype/StillImage" />
            <dc:title />
         </cc:Work>
      </rdf:RDF>
   </metadata>
   <defs id="defs6" />
   <path inkscape:connector-curvature="0"
      d="m 222.64998,137.10317 c 0.0109,-0.21185 -0.10145,-0.49071 -0.24966,-0.61966 -0.14815,-0.12892 -0.3714,-0.79026 -0.49603,-1.46976 -0.12465,-0.67938 -0.33128,-1.32641 -0.45935,-1.43784 -0.13467,-0.11751 -0.12991,-0.31967 0.0118,-0.48105 0.13425,-0.1535 0.18331,-0.39906 0.10845,-0.5464 -0.17421,-0.34286 0.31071,-0.90471 0.67304,-0.77939 0.32314,0.11164 1.64399,3.26822 1.66111,3.96998 0.007,0.26394 -0.0496,0.54982 -0.12455,0.63523 -0.0746,0.0858 -0.17322,0.35338 -0.21824,0.59544 -0.067,0.36019 -0.15855,0.44729 -0.50387,0.47958 -0.38109,0.0355 -0.42017,0.002 -0.4003,-0.34817 z m 24.18086,29.58224 c 0.0367,-0.32042 0.008,-0.63434 -0.0652,-0.69755 -0.19101,-0.16628 -0.73862,-2.53146 -0.61782,-2.66907 0.0559,-0.0637 0.007,-0.19826 -0.10872,-0.29898 -0.13922,-0.12064 -0.076,-0.35262 0.18541,-0.68226 0.69196,-0.87212 0.74998,-0.96329 0.80697,-1.26209 0.10594,-0.55541 0.318,-0.31548 0.26977,0.30514 -0.0577,0.74599 0.30892,0.93181 1.06701,0.54085 0.29822,-0.15383 0.68321,-0.27975 0.85554,-0.27977 0.35699,-6e-5 0.67779,0.50172 0.47092,0.73737 -0.0753,0.0865 -0.14058,0.33839 -0.14435,0.56042 -0.003,0.22393 -0.33321,0.81369 -0.73942,1.32378 -0.403,0.50587 -0.74727,1.05001 -0.76537,1.20885 -0.0181,0.15887 -0.23801,0.52263 -0.48881,0.80831 -0.25082,0.28568 -0.43151,0.60569 -0.40152,0.71114 0.0658,0.2319 -0.14839,0.50706 -0.2898,0.37259 -0.0579,-0.0504 -0.0711,-0.35831 -0.0343,-0.67873 z m 117.23614,114.21448 c 0.0611,-0.15667 -0.0131,-0.46778 -0.1645,-0.69089 -0.34573,-0.50959 -0.0906,-1.01148 1.11219,-2.18792 0.64314,-0.62858 1.02548,-0.88273 1.26307,-0.83839 0.18737,0.0351 0.41792,-0.0243 0.51225,-0.13171 0.25899,-0.295 0.73093,-0.23709 1.54217,0.18936 0.65467,0.34409 0.71369,0.42124 0.55591,0.72667 -0.0971,0.18799 -0.0824,0.35505 0.0325,0.37128 0.11503,0.0161 0.2292,0.25218 0.25428,0.52396 0.0373,0.40746 0.0791,0.4559 0.23764,0.27526 0.1061,-0.12017 0.18889,-0.30222 0.18468,-0.40401 -0.009,-0.22085 0.26488,-0.65165 1.08715,-1.70895 0.3362,-0.43298 0.63361,-0.9009 0.66024,-1.04047 0.0523,-0.27388 1.08658,-0.66282 1.29059,-0.48532 0.0685,0.0593 0.23859,-0.0223 0.37847,-0.18166 0.173,-0.19707 0.29779,-0.20404 0.3904,-0.0219 0.0818,0.16102 0.21045,0.18311 0.32041,0.0578 0.10152,-0.11537 0.66208,-0.10312 1.24599,0.0274 0.80792,0.18055 1.09352,0.32699 1.19461,0.61238 0.0732,0.20627 0.17513,0.32696 0.22655,0.26839 0.0514,-0.059 0.0715,0.0896 0.0448,0.32901 -0.027,0.23976 0.0651,0.45212 0.20445,0.4718 0.14992,0.0212 0.17131,0.1295 0.0521,0.26522 -0.11071,0.12628 -0.13827,0.28439 -0.0611,0.35155 0.077,0.0673 0.0671,0.20547 -0.0224,0.30738 -0.0897,0.10171 -0.10642,0.38737 -0.0376,0.63435 0.0788,0.28273 0.0112,0.52812 -0.18266,0.66277 -0.21301,0.1481 -0.22735,0.24124 -0.0444,0.30475 0.145,0.0499 0.22135,0.13884 0.17028,0.19702 -0.14473,0.16488 -1.77505,0.77924 -1.9414,0.73156 -0.0817,-0.0232 -0.2264,0.0465 -0.32189,0.15533 -0.096,0.10833 -0.46048,0.19036 -0.81102,0.18117 -0.35059,-0.009 -0.58411,0.0349 -0.51896,0.0978 0.18954,0.18409 -1.34765,-0.40067 -1.78419,-0.67794 -0.21818,-0.13904 -0.64057,-0.45068 -0.93799,-0.69321 -0.37727,-0.30774 -0.59948,-0.37426 -0.73469,-0.22025 -0.1069,0.12102 -0.28899,0.1379 -0.40538,0.0366 -0.21569,-0.18775 -0.23685,-0.14943 -0.54813,0.99237 -0.0993,0.36431 -0.18201,0.43323 -0.42089,0.35071 -0.24024,-0.0831 -0.30089,-0.0318 -0.31628,0.26694 -0.0128,0.24822 -0.11749,0.39074 -0.31887,0.43331 -0.16483,0.0351 -0.50093,0.20981 -0.74699,0.38829 -0.30156,0.21866 -0.53802,0.24568 -0.72538,0.0826 -0.15289,-0.13296 -0.52043,-0.21917 -0.81688,-0.19156 -0.6306,0.0587 -1.25886,-0.40935 -1.09963,-0.81929 z m -7.34804,6.91898 c -0.54266,-1.04506 -0.40107,-1.59545 0.73166,-2.8442 0.68776,-0.758 1.09357,-1.09327 1.24903,-1.03123 0.1266,0.0505 0.24774,1.9e-4 0.2691,-0.11182 0.0212,-0.11219 0.0981,-0.15204 0.1711,-0.0886 0.20555,0.17881 0.85941,-0.35372 0.87791,-0.71504 0.0123,-0.23896 0.067,-0.27978 0.20892,-0.15634 0.28801,0.2503 2.68304,0.009 2.95218,-0.29821 0.13233,-0.15024 0.50921,-0.20055 0.86793,-0.11533 0.56259,0.13367 0.66875,0.22379 0.9381,0.79662 0.25564,0.54353 0.24193,0.69493 -0.0866,0.95571 -0.30196,0.24 -0.33166,0.36078 -0.1318,0.53467 0.15762,0.13723 0.16814,0.39575 0.027,0.663 -0.12755,0.24082 -0.14664,0.58247 -0.0429,0.75891 0.19678,0.33445 0.13194,0.4442 -1.2122,2.05183 -1.00423,1.20131 -1.54715,1.63871 -1.78086,1.43536 -0.10651,-0.0919 -0.31312,-0.0309 -0.46001,0.13642 -0.21039,0.23972 -0.3102,0.23088 -0.47051,-0.0416 -0.209,-0.35525 -0.9012,-0.51548 -1.84649,-0.42746 -0.62982,0.0587 -1.88352,-0.77444 -2.26183,-1.50308 z M 227.51438,185.17186 c -0.13765,-0.622 0.12929,-0.95328 0.60804,-0.75424 0.47631,0.19799 0.49961,0.85237 0.0417,1.17054 -0.42185,0.29307 -0.50437,0.24025 -0.64955,-0.41617 z m 13.48526,27.3206 c 0.15102,-0.0828 0.20409,-0.21179 0.11922,-0.2856 -0.0855,-0.0742 -0.0882,-0.21165 -0.006,-0.30514 0.0853,-0.0971 0.16903,0.0464 0.19547,0.33447 0.0444,0.48478 -0.18869,0.7498 -0.45493,0.51816 -0.0703,-0.0609 -0.004,-0.1787 0.14672,-0.26158 z m 3.29085,4.80975 c 0.071,-0.0809 -0.0918,-0.3394 -0.36185,-0.57436 -0.34294,-0.29843 -0.43267,-0.4938 -0.2973,-0.64799 0.11625,-0.13208 0.0644,-0.33329 -0.12891,-0.50149 -0.31913,-0.27767 -0.44608,-0.81674 -0.24603,-1.04464 0.0569,-0.0647 0.19607,-0.0371 0.3094,0.0615 0.13168,0.11467 0.24977,0.0666 0.32735,-0.13297 0.11137,-0.28697 0.0941,-0.30195 -0.21304,-0.18535 -0.35172,0.13357 -0.82247,-0.13457 -0.62709,-0.35714 0.10732,-0.12145 -0.15106,-0.71596 -0.45761,-1.05383 -0.0749,-0.0832 -0.14539,-0.36062 -0.15598,-0.61714 -0.0106,-0.25652 -0.13724,-0.64031 -0.28147,-0.85278 -0.14418,-0.21251 -0.18124,-0.4786 -0.0824,-0.59122 0.0989,-0.1126 0.11669,-0.25967 0.0395,-0.32683 -0.0769,-0.0673 -0.0517,-0.22303 0.0567,-0.34645 0.11568,-0.1315 0.055,-0.41236 -0.14639,-0.67895 -0.18864,-0.25019 -0.29644,-0.50797 -0.23909,-0.57332 0.0575,-0.0653 0.008,-0.2833 -0.11067,-0.48435 -0.11827,-0.20095 -0.20041,-0.69341 -0.18257,-1.09422 0.0436,-0.97959 -0.39663,-1.85188 -1.24838,-2.4735 -0.67051,-0.48951 -0.70391,-0.57239 -0.77303,-1.92101 -0.0885,-1.72872 -0.23148,-2.97562 -0.35332,-3.08164 -0.13699,-0.11971 -0.078,-1.20658 0.0709,-1.30097 0.0713,-0.045 -0.0102,-0.2083 -0.18099,-0.36263 -0.29017,-0.26226 -0.25715,-0.28141 0.50497,-0.29339 0.9793,-0.0152 1.34088,-0.37127 1.33785,-1.3172 -8.6e-4,-0.38868 0.0933,-0.73845 0.21013,-0.77728 0.11694,-0.0387 0.18609,-0.30542 0.15334,-0.59285 -0.0325,-0.28731 0.007,-0.59733 0.0872,-0.689 0.0803,-0.0918 0.0832,-0.22164 0.006,-0.28881 -0.0769,-0.0673 0.0922,-0.38691 0.37645,-0.71069 0.35276,-0.40186 0.45537,-0.642 0.32343,-0.75678 -0.2861,-0.24895 -0.21554,-0.82076 0.10506,-0.85061 0.17305,-0.0161 0.26896,-0.20021 0.27649,-0.53313 0.007,-0.27965 0.0551,-0.69815 0.10764,-0.93008 0.0526,-0.23194 0.008,-0.4981 -0.0994,-0.59146 -0.10772,-0.0931 -0.13941,-0.70525 -0.0712,-1.3597 0.0683,-0.65441 0.12917,-1.33138 0.13547,-1.50438 0.006,-0.17291 0.0532,-0.2781 0.10429,-0.2337 0.0509,0.0449 0.10099,-0.0823 0.11143,-0.28096 0.0102,-0.19903 0.11169,-0.39275 0.22545,-0.43062 0.1135,-0.0381 0.17128,-0.13886 0.12749,-0.22485 -0.12365,-0.24344 0.28255,-1.00927 0.45555,-0.85876 0.0825,0.0715 0.0882,0.20043 0.013,0.28612 -0.0748,0.0862 -0.037,0.16997 0.0849,0.18728 0.28612,0.0404 0.31612,0.70425 0.0393,0.87172 -0.11671,0.0703 -0.08,0.32256 0.0812,0.56002 0.33059,0.48734 0.44868,2.0873 0.23026,3.1214 -0.0799,0.37838 -0.0642,0.75861 0.0349,0.84485 0.0992,0.0861 0.0673,0.28528 -0.0705,0.4424 -0.13782,0.15723 -0.22351,0.38148 -0.19026,0.49868 0.0334,0.11699 -0.0453,0.33343 -0.17448,0.48063 -0.12934,0.14709 -0.21576,0.40886 -0.19239,0.58148 0.0234,0.17265 -0.12321,0.48762 -0.32578,0.69991 -0.20238,0.21249 -0.35928,0.60548 -0.34822,0.87357 0.0111,0.26818 -0.10528,0.55637 -0.25856,0.64031 -0.1531,0.0842 -0.20914,0.21334 -0.12341,0.28794 0.0855,0.0742 0.089,0.21069 0.008,0.30301 -0.081,0.0925 -0.12572,0.68231 -0.0991,1.31099 0.0265,0.62864 0.0462,1.60645 0.0439,2.17283 -0.003,0.5664 0.11204,1.29218 0.25446,1.61287 0.14237,0.32063 0.19815,0.65224 0.12395,0.73675 -0.41376,0.47129 -0.69461,3.05561 -0.32837,3.02156 0.0761,-0.007 0.14949,0.15646 0.16285,0.36387 0.0231,0.35389 0.0604,0.62079 0.24257,1.73438 0.0436,0.26709 0.0973,0.34047 0.1305,0.1781 0.0945,-0.46438 0.29192,-0.10612 0.27461,0.49846 -0.009,0.3134 -0.0421,0.6058 -0.0735,0.64976 -0.25757,0.35917 -0.25104,1.10989 0.0104,1.23542 0.16983,0.0813 0.35866,0.29932 0.42018,0.48381 0.12725,0.38247 -0.30788,0.98303 -0.5559,0.76725 -0.0898,-0.0784 -0.1604,-0.0623 -0.15635,0.0354 0.003,0.0979 0.23929,0.1681 0.52336,0.15554 0.46349,-0.02 0.49421,0.003 0.3024,0.22105 -0.14191,0.16166 -0.0958,0.34612 0.13696,0.54867 0.28065,0.24413 0.28615,0.37874 0.0277,0.67311 -0.26699,0.30414 -0.25536,0.42667 0.067,0.70715 0.229,0.19923 0.36678,0.53338 0.33382,0.80948 -0.0309,0.25865 0.0562,0.56805 0.19353,0.68753 0.13699,0.11973 0.18968,0.28543 0.1164,0.36892 -0.0735,0.0834 -0.0674,0.28139 0.0131,0.43974 0.0806,0.15816 0.17044,0.75864 0.20002,1.33391 0.0296,0.57527 0.14582,1.12608 0.25848,1.2241 0.11279,0.0979 0.14663,0.24443 0.0756,0.32532 -0.0711,0.0809 -0.28704,0.01 -0.47996,-0.15806 -0.1929,-0.16784 -0.29264,-0.37132 -0.22156,-0.4523 z m 0.78281,0.9406 c 0.11859,-0.0396 0.35012,0.0533 0.51414,0.20607 0.28756,0.26788 0.28389,0.27395 -0.0931,0.16021 -0.53895,-0.16188 -0.67622,-0.28131 -0.42085,-0.36619 z m 91.80105,84.3033 c 0.026,-0.13617 -0.045,-0.26059 -0.15771,-0.2765 -0.11268,-0.016 -0.0562,-0.19845 0.12563,-0.40556 0.20772,-0.23665 0.25238,-0.44463 0.12013,-0.55969 -0.11578,-0.10071 -0.15048,-0.25143 -0.0772,-0.3349 0.0734,-0.0833 0.26136,-0.10749 0.41804,-0.0534 0.15663,0.0542 0.3406,0.0348 0.40881,-0.0429 0.25299,-0.2882 1.77156,-0.51103 1.89027,-0.27735 0.0673,0.13186 0.17841,0.17587 0.24716,0.0975 0.0687,-0.0784 0.33544,0.0404 0.59248,0.26406 0.35,0.30444 0.43465,0.53496 0.33727,0.91757 -0.0716,0.28102 -0.24073,0.54772 -0.37601,0.59268 -0.1353,0.0449 -0.25588,0.21393 -0.26865,0.37495 -0.0277,0.35923 -0.43949,0.83921 -0.60007,0.69951 -0.064,-0.0562 -0.20206,-0.004 -0.30612,0.1138 -0.25142,0.28642 -0.76346,0.1634 -1.66179,-0.39921 -0.48354,-0.30281 -0.72309,-0.54895 -0.69232,-0.71077 z M 185.4958,190.00329 c 0.10774,-0.0357 0.0404,-0.2002 -0.14937,-0.36533 -0.24623,-0.21421 -0.29835,-0.52174 -0.18173,-1.07265 0.09,-0.42482 0.10152,-0.89446 0.0257,-1.04368 -0.23414,-0.4606 0.27987,-0.80537 0.90618,-0.60785 0.50708,0.15985 0.59263,0.25286 0.63243,0.68715 0.0253,0.27628 -0.0706,0.85061 -0.21309,1.27635 -0.14248,0.42579 -0.20812,0.81853 -0.14582,0.87273 0.2451,0.21326 -0.39365,0.64312 -0.72168,0.48557 -0.19134,-0.0922 -0.26049,-0.19628 -0.1526,-0.23233 z m -0.11055,1.2606 c 0.0296,-0.15506 0.12663,-0.28885 0.21534,-0.29729 0.24124,-0.0225 0.20805,0.29039 -0.0471,0.44474 -0.17879,0.10817 -0.21174,0.0793 -0.169,-0.147 z m -0.10688,1.53804 c 0.19229,-0.49505 0.33905,-0.58602 0.48437,-0.30006 0.0748,0.14727 0.0261,0.39315 -0.10845,0.54639 -0.29677,0.33806 -0.5408,0.17815 -0.3761,-0.24611 z m 127.78317,116.42008 c 0.0979,-0.11152 0.36427,-0.20093 0.59197,-0.19872 0.36441,0.003 0.3741,0.0262 0.0809,0.1897 -0.18317,0.10211 -0.38644,0.24645 -0.45167,0.32078 -0.065,0.0746 -0.18175,0.0802 -0.25891,0.013 -0.077,-0.0674 -0.0602,-0.21327 0.0377,-0.32478 z m -0.46971,-0.31062 c 0.0711,-0.0809 0.15721,-0.12284 0.19109,-0.0934 0.0342,0.0289 0.0428,0.15397 0.0193,0.27647 -0.0234,0.12235 -0.10912,0.16459 -0.19103,0.0933 -0.0819,-0.0709 -0.0905,-0.19548 -0.0194,-0.27643 z m -2.49395,1.91807 c 0.055,-0.13055 0.36694,-0.31036 0.69362,-0.39915 0.32672,-0.0887 0.59116,-0.23052 0.58766,-0.31508 -0.003,-0.0842 0.24113,-0.18551 0.54347,-0.22451 l 0.54983,-0.0707 -0.19202,0.37173 c -0.12343,0.23825 -0.44642,0.41726 -0.90109,0.49918 -0.38995,0.0701 -0.80243,0.2338 -0.91652,0.36377 -0.24503,0.27909 -0.50829,0.11669 -0.36476,-0.22548 z M 183.7868,201.51818 c 0.0235,-0.12228 0.10913,-0.16459 0.19103,-0.0933 0.0819,0.0709 0.0904,0.19542 0.0194,0.27637 -0.0711,0.081 -0.15721,0.12283 -0.19108,0.0934 -0.0342,-0.029 -0.0428,-0.15397 -0.0193,-0.27642 z m 125.42186,110.00884 c 0.16843,-0.43359 0.20153,-0.4523 0.43766,-0.24686 0.11689,0.10177 0.0956,0.3139 -0.0479,0.4774 -0.30802,0.35086 -0.55813,0.20296 -0.38978,-0.23054 z m 3.45731,4.73573 c -0.2699,-0.33163 -0.49952,-0.80841 -0.50997,-1.0601 -0.0104,-0.25172 -0.0755,-0.50693 -0.1447,-0.56715 -0.0694,-0.0601 -0.002,-0.1778 0.151,-0.26118 0.15244,-0.0834 0.28639,-0.28807 0.29818,-0.45434 0.0234,-0.33171 0.36726,-0.70479 1.0103,-1.09681 0.26059,-0.15872 0.39155,-0.34309 0.34877,-0.49283 -0.0762,-0.26868 1.98724,-0.62181 2.25788,-0.38635 0.0889,0.0775 0.3787,0.12499 0.64366,0.10577 1.7132,-0.12457 2.05762,-0.065 2.60194,0.45024 0.30184,0.28642 0.50018,0.57612 0.44005,0.64462 -0.0603,0.0684 -0.014,0.13809 0.10256,0.15473 0.3352,0.0474 0.28495,0.93724 -0.0978,1.73213 -0.19265,0.39992 -0.7095,1.09793 -1.14852,1.55104 -0.63161,0.65193 -0.95627,0.84889 -1.55583,0.94407 -0.41676,0.0661 -0.78699,0.15358 -0.82275,0.19432 -0.12689,0.14452 -1.37998,0.0474 -1.95341,-0.15138 -0.65153,-0.2258 -0.91099,-0.43493 -1.62179,-1.30691 z m -38.01336,-32.9909 c -0.003,-0.0902 -0.27246,-0.42777 -0.59719,-0.75046 -0.40116,-0.39887 -0.66494,-0.9102 -0.82292,-1.59632 -0.12787,-0.55532 -0.30396,-1.07185 -0.39129,-1.14785 -0.5203,-0.45266 -3.25412,-5.5976 -3.07984,-5.79612 0.0551,-0.0628 -0.0212,-0.29299 -0.16947,-0.51166 -0.14818,-0.2188 -0.18479,-0.49418 -0.081,-0.61241 0.47461,-0.54071 -0.85852,-2.51081 -2.96218,-4.37754 -0.78049,-0.69271 -1.02197,-1.03272 -1.21712,-1.71427 -0.13393,-0.46763 -0.40724,-1.12798 -0.60735,-1.46748 -0.36009,-0.61064 -0.67632,-1.7407 -0.71013,-2.53716 -0.0321,-0.75483 0.62906,-2.3103 0.99645,-2.34451 0.1879,-0.0175 0.82856,-0.57315 1.6246,-1.40906 0.35334,-0.37067 0.50103,-0.71079 0.49668,-1.14183 -0.003,-0.33766 0.0647,-0.69459 0.15139,-0.7933 0.0867,-0.0985 0.0566,-0.50843 -0.0668,-0.91047 -0.12337,-0.40217 -0.15832,-0.80822 -0.0777,-0.90246 0.0821,-0.0937 -8.6e-4,-0.12546 -0.18339,-0.0687 -0.2818,0.0875 -0.29721,0.0646 -0.10604,-0.15684 0.12426,-0.14174 0.12923,-0.34179 0.0135,-0.44247 -0.26704,-0.23235 -0.0894,-0.44141 0.37534,-0.44135 0.26549,-1e-4 0.51924,0.2063 0.97425,0.79289 0.3385,0.4361 1.00888,1.10571 1.48974,1.48822 1.00916,0.80274 1.48493,1.75 1.17939,2.34827 -0.10933,0.21367 -0.0814,0.56143 0.0618,0.77254 0.14337,0.21077 0.18484,0.4696 0.0926,0.57462 -0.0978,0.11148 0.16348,0.72316 0.62775,1.4696 0.43743,0.70325 0.88166,1.52348 0.9872,1.82271 0.10547,0.29929 0.3699,0.63238 0.58753,0.7402 0.32647,0.16166 0.3541,0.30811 0.15504,0.84074 -0.13242,0.35458 -0.26702,0.79709 -0.29917,0.98318 -0.0322,0.1862 -0.11517,0.47134 -0.18452,0.63368 -0.0691,0.16261 -8.6e-4,0.78524 0.15181,1.38415 0.15285,0.59896 0.20452,1.27929 0.11485,1.51193 -0.19192,0.49772 -0.24324,1.63691 -0.0822,1.82349 0.0619,0.0715 0.16381,0.18942 0.2267,0.26173 0.0629,0.0723 0.12484,0.2871 0.13803,0.47698 0.0131,0.18992 0.19856,0.82533 0.41193,1.41214 0.21348,0.58679 0.38901,1.35269 0.39015,1.70206 8.6e-4,0.3494 0.0737,0.69756 0.16138,0.77383 0.0876,0.0762 0.10112,0.20478 0.0301,0.28571 -0.071,0.0809 -0.0185,0.24344 0.11679,0.36113 0.13513,0.11795 0.25035,0.56825 0.2557,1.00114 0.005,0.43288 0.0675,0.83738 0.13813,0.89885 0.0707,0.0614 0.0412,0.21103 -0.0653,0.33245 -0.10695,0.12108 -0.099,0.30318 0.0167,0.40385 0.11577,0.10071 0.1628,0.23738 0.1042,0.30414 -0.0586,0.0666 0.0561,0.53871 0.25452,1.04909 0.40123,1.03206 0.46605,1.51269 0.23891,1.77145 -0.0837,0.0954 -0.0347,0.21403 0.109,0.26365 0.16101,0.056 0.17213,0.17814 0.029,0.31923 -0.12734,0.12618 -0.14802,0.41862 -0.0453,0.65049 0.10275,0.23181 0.14241,0.47199 0.0882,0.53373 -0.1167,0.13257 -1.0308,-0.62743 -1.04061,-0.8653 z M 255.45736,268.7294 c 0.18021,-0.0991 0.33018,-0.11273 0.33365,-0.0298 0.003,0.0831 -0.1439,0.16425 -0.32747,0.18058 -0.26518,0.0237 -0.26651,-0.007 -0.006,-0.15073 z m 1.00881,1.22872 c 0.0748,-0.0862 0.19994,-0.10093 0.27709,-0.0338 0.0769,0.0673 0.11451,0.15142 0.0833,0.18697 -0.0312,0.0353 -0.15599,0.0509 -0.27709,0.0338 -0.12097,-0.0172 -0.15879,-0.10098 -0.0833,-0.18697 z m -0.6222,-0.41875 c 0.1157,-0.13151 0.24287,-0.11148 0.32577,0.0517 0.0748,0.14733 0.0842,0.32692 0.0207,0.3992 -0.0632,0.0726 -0.21009,0.0491 -0.32586,-0.0516 -0.11573,-0.10066 -0.12502,-0.28033 -0.0206,-0.3992 z m -8.56091,-6.1373 c -0.0546,-0.38245 -0.2591,-1.10088 -0.45439,-1.59658 -0.19524,-0.49568 -0.39745,-1.14539 -0.44936,-1.44372 -0.0519,-0.29843 -0.24646,-0.92058 -0.43237,-1.38271 -0.32698,-0.81282 -0.17337,-1.62891 0.33862,-1.79898 0.11321,-0.0377 0.12351,-0.14095 0.0231,-0.22917 -0.101,-0.0878 0.0728,-0.10506 0.38542,-0.0367 0.61339,0.13377 1.42398,0.77627 1.36556,1.08242 -0.0195,0.10389 0.10748,0.31326 0.28274,0.46574 0.17532,0.15252 0.48423,0.71278 0.68648,1.24505 0.20231,0.53231 0.43129,1.02352 0.50889,1.09171 0.0777,0.068 0.10543,0.31538 0.0619,0.54951 -0.0435,0.23414 0.0898,0.71536 0.2963,1.06931 0.60856,1.04295 0.5765,1.48063 -0.15809,2.15654 -0.34898,0.32119 -0.77042,0.56614 -0.93645,0.54465 -0.60295,-0.0783 -1.41542,-0.99706 -1.51831,-1.71706 z m -6.97069,-3.23109 c 0.10691,-0.12103 0.28846,-0.13836 0.40424,-0.0376 0.11572,0.10067 0.12322,0.28248 0.0167,0.40384 -0.10696,0.1211 -0.28852,0.13832 -0.40425,0.0377 -0.11577,-0.10071 -0.12326,-0.28241 -0.0167,-0.40385 z m 9.47128,9.47327 c 0.0443,-0.0685 0.14014,-0.17347 0.21406,-0.23229 0.0734,-0.0592 0.0964,-0.29244 0.0514,-0.51802 -0.0995,-0.49838 0.20654,-0.57034 0.47614,-0.11203 0.23075,0.39206 -0.33314,1.41237 -0.63522,1.14954 -0.10236,-0.0891 -0.14985,-0.21837 -0.10593,-0.28677 z m 1.04282,5.71364 c 0.0373,-0.17661 -0.14858,-0.58194 -0.41302,-0.90077 -0.26543,-0.31986 -0.46779,-0.80445 -0.45161,-1.08117 0.0161,-0.27581 -0.0321,-0.55489 -0.10716,-0.62022 -0.15111,-0.13149 0.1245,-0.75394 0.55209,-1.24698 0.1965,-0.22375 0.57812,-0.26855 1.3019,-0.14801 1.32812,0.22112 1.6049,0.18715 2.18903,-0.26883 0.2663,-0.20781 0.56103,-0.367 0.65516,-0.35373 0.094,0.0134 0.26068,-0.14953 0.37062,-0.36159 0.14547,-0.28165 0.2204,-0.31264 0.2761,-0.1156 0.0422,0.14878 0.17652,0.23768 0.29882,0.19734 0.23012,-0.0756 0.63288,0.14966 1.12511,0.62943 0.18702,0.18169 0.20423,0.43234 0.0507,0.72287 -0.15517,0.29354 -0.13717,0.52963 0.053,0.69507 0.36424,0.31695 0.39536,0.93352 0.0659,1.30879 -0.13954,0.15904 -0.1931,0.40852 -0.11898,0.55444 0.10946,0.21535 0.007,0.28208 -0.54319,0.35435 -0.37295,0.0489 -0.7235,0.206 -0.77904,0.34899 -0.0556,0.14294 -0.35336,0.33671 -0.66205,0.4304 -0.38099,0.11574 -0.74442,0.40978 -1.13197,0.9157 -0.49721,0.64921 -0.61108,0.71846 -0.88312,0.5372 -0.17183,-0.11435 -0.67304,-0.44853 -1.11403,-0.74228 -0.61604,-0.41047 -0.78608,-0.60863 -0.73396,-0.85527 z m 47.65399,42.2996 c 0.071,-0.0809 0.066,-0.20208 -0.0112,-0.26926 -0.0769,-0.0673 -0.19842,-0.0558 -0.26946,0.0251 -0.071,0.0809 -0.066,0.20207 0.0111,0.2692 0.077,0.0674 0.19847,0.0558 0.2695,-0.0251 z m -0.89474,0.29248 c 0.14416,-0.0479 0.27043,-0.25502 0.2812,-0.45984 0.0157,-0.30685 0.10899,-0.36547 0.52675,-0.33103 0.3336,0.0274 0.56075,-0.0748 0.66251,-0.29844 0.097,-0.21353 0.31793,-0.32756 0.59095,-0.30735 0.5214,0.0393 1.42032,-0.53832 1.17288,-0.7536 -0.1015,-0.0883 0.015,-0.1691 0.30367,-0.21047 0.25771,-0.0369 0.56145,-0.17299 0.67515,-0.30252 0.11369,-0.1294 0.36591,-0.25121 0.56062,-0.27047 0.43173,-0.0428 1.0772,-0.35553 1.20056,-0.58182 0.13225,-0.243 1.01118,-0.5641 1.0612,-0.38784 0.0232,0.0828 0.15182,-0.0319 0.28555,-0.25409 0.24311,-0.40498 1.21258,-0.64967 1.51872,-0.38332 0.0967,0.0837 0.18312,-0.0224 0.25837,-0.31653 0.14187,-0.5575 0.30686,-0.58217 0.41079,-0.0614 0.0763,0.38232 0.0474,0.41432 -0.58919,0.651 -0.36829,0.13684 -0.74895,0.18052 -0.84581,0.0971 -0.0967,-0.0838 -0.29252,-0.0192 -0.43463,0.14266 -0.14212,0.16188 -0.20605,0.33979 -0.14231,0.39523 0.21921,0.19076 -0.80355,0.89413 -1.21787,0.83755 -0.28395,-0.0387 -0.56502,0.11475 -0.89185,0.48707 -0.61861,0.70469 -1.36296,1.10845 -1.95384,1.05976 -0.37818,-0.0311 -0.53992,0.0748 -0.81897,0.53622 -0.20938,0.34617 -0.40453,0.52565 -0.49009,0.4512 -0.078,-0.0684 -0.19224,0.005 -0.25341,0.16221 -0.11893,0.30629 -0.82992,0.45249 -1.09189,0.22457 -0.0872,-0.0759 -0.17771,-0.0378 -0.20112,0.0846 -0.0235,0.12228 -0.0726,0.19639 -0.10965,0.16413 -0.0372,-0.0319 -0.21613,-0.10976 -0.39845,-0.17277 -0.23146,-0.08 -0.25263,-0.14059 -0.0695,-0.20158 z m -0.49152,0.72287 c 0.0313,-0.0353 0.15599,-0.0509 0.27705,-0.0337 0.12099,0.0173 0.15884,0.10103 0.0834,0.18696 -0.0748,0.0862 -0.19994,0.10092 -0.27715,0.0338 -0.0769,-0.0673 -0.11451,-0.15142 -0.0833,-0.18697 z m -0.489,-0.57049 c 0.071,-0.0809 0.19233,-0.0922 0.26945,-0.0251 0.077,0.0673 0.0822,0.18828 0.0111,0.2692 -0.0711,0.081 -0.19228,0.0922 -0.26946,0.0251 -0.0769,-0.0673 -0.0822,-0.1882 -0.0111,-0.2692 z m -70.5457,-44.23204 c -0.57781,-0.94738 -0.67948,-1.20015 -0.55023,-1.36737 0.0747,-0.0968 0.23682,-0.34302 0.36054,-0.547 0.27142,-0.44849 0.71193,-0.2317 1.39251,0.68515 0.24945,0.33602 0.59445,0.79793 0.76674,1.02642 0.1725,0.22825 0.23372,0.44185 0.13648,0.47416 -0.0972,0.0323 -0.14943,0.15942 -0.11239,0.28559 0.0418,0.14714 -0.0358,0.24553 -0.22071,0.28012 -0.15679,0.0293 -0.33282,0.1285 -0.39122,0.2205 -0.12957,0.20485 -1.03388,-0.4874 -1.38165,-1.05751 z m -12.19212,-10.72685 c 0.1373,-0.35355 0.35569,-0.36471 0.73178,-0.0375 0.16716,0.14547 0.30714,0.33667 0.31061,0.42539 0.0135,0.32836 -0.51715,0.43313 -0.82734,0.16325 -0.17645,-0.15348 -0.27321,-0.40153 -0.21505,-0.55113 z m 80.51996,83.13733 c 0.071,-0.0809 0.19228,-0.0923 0.26945,-0.0251 0.077,0.0674 0.0822,0.18832 0.0112,0.26923 -0.0711,0.081 -0.19239,0.0922 -0.26955,0.0251 -0.0769,-0.0673 -0.0822,-0.18827 -0.0111,-0.26925 z m 22.05628,19.97654 c 0.0687,-0.0785 0.18639,-0.022 0.26119,0.12531 0.0748,0.14731 0.11325,0.29383 0.0853,0.32564 -0.0277,0.0316 -0.14546,-0.0245 -0.26121,-0.12528 -0.11572,-0.10067 -0.15418,-0.24721 -0.0853,-0.32567 z m -23.38949,-13.87712 c -0.12944,-0.2654 -0.0897,-0.53206 0.11389,-0.76394 0.25847,-0.29446 0.42037,-0.29554 0.93327,-0.006 0.49635,0.28015 0.58456,0.28212 0.44073,0.01 -0.12077,-0.22838 -0.0957,-0.32829 0.0762,-0.30398 0.1408,0.0199 0.31918,0.21518 0.39695,0.4334 0.11428,0.3225 0.21833,0.36629 0.55195,0.23262 0.30427,-0.12186 0.55356,-0.0408 0.95909,0.31207 0.3014,0.26222 0.64518,0.44451 0.76391,0.405 0.11857,-0.0396 0.3393,0.0357 0.49011,0.16689 0.2449,0.21307 1.00018,0.43755 1.35945,0.4041 0.0741,-0.007 0.45238,0.24373 0.84058,0.55685 0.38818,0.31324 0.83656,0.55726 0.99625,0.54235 0.15975,-0.0149 0.49347,0.14968 0.7417,0.36564 0.24823,0.21588 0.54239,0.33749 0.6537,0.27013 0.30933,-0.18717 0.70445,0.93975 0.46794,1.33485 -0.26137,0.43662 -1.24212,0.38576 -1.5604,-0.081 -0.13375,-0.19659 -0.30301,-0.28904 -0.37633,-0.20552 -0.0733,0.0831 -0.35536,0.033 -0.62724,-0.11163 -0.27195,-0.14466 -0.65969,-0.23221 -0.86173,-0.1944 -0.61645,0.11506 -1.85275,-0.2858 -2.51747,-0.81633 -1.12127,-0.8954 -1.67594,-1.27006 -2.14715,-1.45188 -0.25416,-0.0981 -0.55307,-0.28551 -0.66428,-0.41637 -0.11122,-0.13097 -0.30416,-0.20397 -0.42835,-0.16291 -0.26497,0.088 -0.33601,0.0267 -0.60044,-0.52244 z m -2.11574,0.64843 c 0.0312,-0.0353 0.15604,-0.051 0.27709,-0.0338 0.12101,0.0173 0.15879,0.10098 0.0833,0.18698 -0.0748,0.0861 -0.19994,0.10092 -0.27709,0.0338 -0.0769,-0.0673 -0.11451,-0.15141 -0.0833,-0.18697 z m 0.26049,1.39464 c 0.0748,-0.0861 0.19987,-0.10097 0.27709,-0.0338 0.0769,0.0673 0.11451,0.15143 0.0833,0.18697 -0.0312,0.0353 -0.15599,0.0509 -0.2771,0.0338 -0.121,-0.0173 -0.15826,-0.10155 -0.0833,-0.18696 z m 52.43591,51.3313 c 0.0748,-0.0862 0.19994,-0.10092 0.27709,-0.0338 0.0769,0.0673 0.11451,0.15141 0.0833,0.18697 -0.0313,0.0353 -0.15599,0.0509 -0.2771,0.0338 -0.12089,-0.0173 -0.15826,-0.10156 -0.0833,-0.18697 z m -55.05083,-47.5069 c 0.0312,-0.0353 0.15604,-0.0509 0.27714,-0.0337 0.12095,0.0172 0.15879,0.10097 0.0833,0.18697 -0.0748,0.0861 -0.19994,0.10092 -0.27709,0.0338 -0.077,-0.0674 -0.11455,-0.15147 -0.0833,-0.18702 z m 10.70726,10.35391 c 0.13618,-0.15552 0.46285,0.0137 0.42365,0.21923 -0.0235,0.12459 -0.14132,0.14087 -0.26192,0.0359 -0.12073,-0.10424 -0.19292,-0.21965 -0.16176,-0.25514 z m -15.67574,1.78955 c 0.071,-0.0809 0.19233,-0.0922 0.26945,-0.0251 0.0769,0.0673 0.0822,0.18828 0.0111,0.2692 -0.071,0.0809 -0.19233,0.0922 -0.26945,0.0251 -0.0769,-0.0673 -0.0822,-0.18828 -0.0111,-0.2692 z m -68.21049,-56.50913 c -0.0379,-0.13358 0.0389,-0.27873 0.17076,-0.32256 0.16199,-0.0538 0.67552,0.34167 1.58386,1.21985 1.31982,1.27604 1.54708,1.57577 1.35844,1.79067 -0.12115,0.13849 -3.02167,-2.36593 -3.11306,-2.68796 z m 109.00687,96.14492 c 0.0225,-0.11694 0.17056,-0.0998 0.32948,0.0385 0.33877,0.2947 0.30107,0.40633 -0.0914,0.27071 -0.15316,-0.0531 -0.26028,-0.19226 -0.23807,-0.30919 z m 5.21223,9.99678 c 0.071,-0.0809 0.19233,-0.0922 0.26945,-0.0251 0.077,0.0674 0.0822,0.18833 0.0111,0.26924 -0.0711,0.081 -0.19233,0.0923 -0.26956,0.0251 -0.0769,-0.0673 -0.0822,-0.18826 -0.0111,-0.26925 z M 272.3733,371.66259 c 0.13032,-0.16015 0.23943,-0.21858 0.24327,-0.12902 0.003,0.0892 -0.1026,0.22088 -0.23655,0.29174 -0.14796,0.0783 -0.15043,0.0147 -0.007,-0.16269 z m 35.78875,43.28788 c 0.0894,-0.009 0.21527,0.0915 0.27913,0.22228 0.0705,0.1445 0.007,0.15032 -0.16279,0.0152 -0.15319,-0.12263 -0.20591,-0.22905 -0.11627,-0.23753 z m 8.28989,7.39353 c 0.0641,-0.0736 0.21288,0.0111 0.33004,0.18774 0.11735,0.17644 0.19082,0.34647 0.16358,0.3775 -0.0272,0.031 -0.17581,-0.0535 -0.33015,-0.18773 -0.15437,-0.13425 -0.22787,-0.30414 -0.16347,-0.37751 z m -3.85309,-0.26197 c 0.0235,-0.12228 0.10965,-0.16413 0.19103,-0.0933 0.0819,0.0709 0.0905,0.19547 0.0195,0.27642 -0.0711,0.0809 -0.15721,0.12284 -0.19109,0.0934 -0.0342,-0.029 -0.0428,-0.15398 -0.0194,-0.27648 z m -28.13411,-24.18749 c 0.0711,-0.081 0.22826,-0.13316 0.34929,-0.11604 0.12089,0.0173 0.16216,0.0971 0.0909,0.17826 -0.071,0.0809 -0.22826,0.13317 -0.34928,0.11604 -0.1209,-0.0173 -0.16222,-0.0971 -0.0909,-0.17826 z m -36.89218,-30.67899 c 0.13037,-0.16019 0.23948,-0.21863 0.24326,-0.12901 0.003,0.0892 -0.10255,0.22083 -0.23649,0.29168 -0.14796,0.0783 -0.15049,0.0146 -0.007,-0.16263 z m -13.52862,-3.35661 c 0.0235,-0.12228 0.10965,-0.16413 0.19103,-0.0933 0.0819,0.0709 0.0905,0.19548 0.0194,0.27642 -0.071,0.0809 -0.15715,0.12279 -0.19103,0.0933 -0.0342,-0.029 -0.0428,-0.15396 -0.0194,-0.27642 z m 4.2,6.91391 c 0.0312,-0.0353 0.15599,-0.0509 0.2771,-0.0337 0.12089,0.0173 0.15879,0.10098 0.0833,0.18698 -0.0748,0.0861 -0.19988,0.10086 -0.27705,0.0337 -0.077,-0.0673 -0.11455,-0.15146 -0.0833,-0.18702 z m 0.99183,0.84338 c 0.10584,-0.1199 0.1261,-0.27581 0.0457,-0.34573 -0.23834,-0.20729 -0.24684,-1.19117 -0.0111,-1.26952 0.1197,-0.0398 0.19072,-0.1663 0.15824,-0.28107 -0.0855,-0.30096 1.00161,-0.36061 1.10066,-0.0605 0.0602,0.18284 0.0816,0.15596 0.0804,-0.10219 -0.003,-0.62029 0.15601,-0.56162 0.74694,0.27665 0.33693,0.478 0.49882,0.88012 0.38758,0.96291 -0.10499,0.0781 -0.18337,0.32598 -0.1741,0.55067 0.0238,0.57682 -0.54443,1.18072 -0.85707,0.90997 -0.13487,-0.1177 -0.56636,-0.2604 -0.95791,-0.31818 -0.581,-0.0857 -0.67667,-0.14534 -0.52012,-0.32368 z m 72.27893,66.80418 c 0.13035,-0.16018 0.23947,-0.21862 0.24325,-0.12901 0.003,0.0892 -0.10255,0.22084 -0.23649,0.29168 -0.14796,0.0783 -0.1505,0.0146 -0.007,-0.16263 z m -68.17802,-57.28202 c -0.36254,-0.93867 0.25279,-1.70259 1.61544,-2.00577 0.56124,-0.12478 0.76736,-0.0711 1.06098,0.27658 0.43562,0.51571 0.56084,1.7195 0.24259,2.33194 -0.24207,0.46591 -0.99276,0.70308 -1.32115,0.41738 -0.0975,-0.0845 -0.25189,-0.11095 -0.34346,-0.0583 -0.32189,0.18494 -1.01747,-0.34842 -1.2544,-0.96178 z m 84.32791,74.96656 c 0.13035,-0.16018 0.23942,-0.21856 0.24325,-0.12901 0.003,0.0893 -0.1026,0.22089 -0.23655,0.29174 -0.14796,0.0783 -0.15049,0.0146 -0.007,-0.1627 z m -30.3952,-23.4664 c 0.0748,-0.0861 0.19994,-0.10091 0.27709,-0.0338 0.077,0.0673 0.11456,0.15147 0.0834,0.18702 -0.0312,0.0353 -0.15604,0.0509 -0.27715,0.0337 -0.12096,-0.0172 -0.15879,-0.10098 -0.0833,-0.18697 z m 19.08646,28.01095 c 0.0234,-0.12233 0.10907,-0.16464 0.19104,-0.0933 0.0819,0.0709 0.0904,0.19549 0.0194,0.27638 -0.071,0.0809 -0.15715,0.1228 -0.19103,0.0933 -0.0342,-0.029 -0.0428,-0.15397 -0.0194,-0.27637 z m -15.89067,-13.04679 c 0.0711,-0.081 0.15721,-0.12284 0.19108,-0.0934 0.0342,0.029 0.0428,0.15401 0.0193,0.27647 -0.0235,0.12228 -0.10912,0.16458 -0.19103,0.0933 -0.0819,-0.0709 -0.0904,-0.19555 -0.0194,-0.27642 z m 8.08822,12.84993 c 0.0894,-0.009 0.21533,0.0916 0.27908,0.22234 0.0706,0.14455 0.007,0.15036 -0.16277,0.0151 -0.15371,-0.12204 -0.20592,-0.22904 -0.11633,-0.23748 z m -77.90628,-65.44539 c 0.0894,-0.009 0.21527,0.0915 0.27907,0.22234 0.0705,0.1445 0.007,0.15025 -0.16278,0.0151 -0.15326,-0.12256 -0.20596,-0.22909 -0.11628,-0.23751 z m 67.63205,71.71724 c 0.071,-0.0809 0.19234,-0.0922 0.26946,-0.0251 0.0769,0.0673 0.0822,0.18827 0.0112,0.2692 -0.0711,0.081 -0.19234,0.0922 -0.26946,0.0251 -0.0769,-0.0673 -0.0822,-0.18821 -0.0111,-0.2692 z m -0.97098,-0.58527 c 0.071,-0.0809 0.15716,-0.12278 0.19104,-0.0933 0.0342,0.029 0.0428,0.15401 0.0194,0.27641 -0.0235,0.12239 -0.10911,0.1647 -0.19108,0.0934 -0.0819,-0.0709 -0.0905,-0.19548 -0.0194,-0.27649 z m -16.12867,-0.79526 c 0.0711,-0.081 0.18867,-0.0955 0.26127,-0.0323 0.0726,0.0632 0.11289,0.21504 0.0895,0.33747 -0.0235,0.12227 -0.14102,0.1368 -0.26116,0.0323 -0.12073,-0.10424 -0.16061,-0.25655 -0.0896,-0.33746 z m 8.82718,15.5963 c 0.10696,-0.12108 0.25695,-0.16579 0.33411,-0.0987 0.0769,0.0673 0.0531,0.22137 -0.0535,0.3428 -0.10691,0.12103 -0.2569,0.16574 -0.33402,0.0986 -0.077,-0.0673 -0.0531,-0.22141 0.0534,-0.34279 z m -113.33321,-93.0237 c 0.071,-0.0809 0.15716,-0.12278 0.19103,-0.0933 0.0342,0.0289 0.0428,0.15401 0.0195,0.27641 -0.0235,0.12228 -0.10906,0.16464 -0.19104,0.0933 -0.0819,-0.0709 -0.0905,-0.19548 -0.0194,-0.27643 z m 98.43317,85.75491 c 0.11069,-0.12627 0.2286,-0.13353 0.26186,-0.0164 0.0334,0.11698 0.006,0.27535 -0.0611,0.35149 -0.0667,0.0763 -0.18473,0.0836 -0.26185,0.0164 -0.0769,-0.0673 -0.0497,-0.2253 0.0611,-0.3515 z m -6.44684,-5.05923 c 0.0312,-0.0353 0.15604,-0.0509 0.27715,-0.0338 0.12095,0.0172 0.15879,0.10099 0.0833,0.18697 -0.0747,0.0861 -0.19993,0.10093 -0.27709,0.0338 -0.077,-0.0673 -0.11456,-0.15146 -0.0833,-0.18701 z m 7.68949,10.97275 c 0.0748,-0.0861 0.19994,-0.10093 0.27709,-0.0338 0.077,0.0673 0.11451,0.15142 0.0833,0.18698 -0.0312,0.0352 -0.15599,0.0509 -0.27709,0.0338 -0.12095,-0.0172 -0.15878,-0.10099 -0.0833,-0.18697 z m -13.38441,6.50843 c 0.0711,-0.081 0.19239,-0.0922 0.26956,-0.0251 0.0769,0.0673 0.0822,0.18828 0.0111,0.26925 -0.071,0.0809 -0.19233,0.0922 -0.26945,0.0251 -0.077,-0.0674 -0.0822,-0.18832 -0.0111,-0.26924 z m 11.82009,20.92552 c 0.071,-0.0809 0.19234,-0.0922 0.26946,-0.0251 0.077,0.0673 0.0822,0.18831 0.0111,0.26923 -0.071,0.0809 -0.19234,0.0922 -0.26951,0.0251 -0.0769,-0.0673 -0.0822,-0.18827 -0.0112,-0.2692 z m -7.62409,-6.1141 c 0.0235,-0.12238 0.10918,-0.16463 0.19109,-0.0934 0.0819,0.0709 0.0905,0.19547 0.0194,0.27647 -0.071,0.0809 -0.15715,0.12279 -0.19103,0.0933 -0.0342,-0.029 -0.0428,-0.15397 -0.0194,-0.27641 z m -71.65371,-61.41135 c 0.13036,-0.16018 0.23942,-0.21855 0.24326,-0.12901 0.003,0.0893 -0.1026,0.22089 -0.23655,0.29174 -0.14796,0.0783 -0.15048,0.0146 -0.007,-0.16268 z m 59.88896,63.11493 c 0.24109,-0.27469 0.31303,-0.28131 0.32334,-0.0302 0.0105,0.2513 -0.0585,0.32977 -0.31008,0.35318 -0.25148,0.0234 -0.25445,-0.0484 -0.0133,-0.3231 z m -16.38852,-10.36533 c 0.071,-0.0809 0.19228,-0.0922 0.26946,-0.0251 0.077,0.0673 0.0822,0.18827 0.0111,0.26919 -0.0711,0.081 -0.19239,0.0922 -0.26951,0.0251 -0.077,-0.0673 -0.0822,-0.18826 -0.0111,-0.26924 z m -31.63761,-20.68987 c 0.13245,0.043 0.29028,0.18027 0.35074,0.30515 0.0605,0.12493 -0.0477,0.0895 -0.24056,-0.0783 -0.1929,-0.16784 -0.24261,-0.26972 -0.11018,-0.22684 z m 48.25004,46.30403 c 0.071,-0.0809 0.19234,-0.0922 0.26951,-0.0251 0.0769,0.0673 0.0822,0.18827 0.0111,0.26919 -0.0711,0.081 -0.1924,0.0922 -0.2695,0.0251 -0.077,-0.0673 -0.0822,-0.18832 -0.0112,-0.2693 z m -36.4842,-30.16726 c 0.0218,-0.11397 0.14046,-0.19284 0.2633,-0.17559 0.12319,0.0172 0.13352,0.13432 0.0223,0.26102 -0.22694,0.25847 -0.34446,0.22328 -0.28559,-0.0854 z m 44.63513,39.22713 c 0.1304,-0.16012 0.23941,-0.21856 0.24325,-0.12902 0.003,0.0893 -0.10261,0.2209 -0.23651,0.2917 -0.14801,0.0784 -0.15047,0.0147 -0.007,-0.16263 z M 179.1897,453.67875 c 0.0251,-0.1304 0.10305,-0.24277 0.17392,-0.24915 0.071,-0.007 0.0761,0.1228 0.0122,0.28741 -0.13273,0.34188 -0.25341,0.31735 -0.18586,-0.038 z m 11.59012,22.18563 c 0.0312,-0.0353 0.15599,-0.0509 0.27715,-0.0338 0.12089,0.0173 0.15878,0.10097 0.0833,0.18697 -0.0748,0.0861 -0.19994,0.10092 -0.27709,0.0338 -0.077,-0.0673 -0.11456,-0.15146 -0.0833,-0.18701 z m 26.04116,24.47988 c 0.13042,-0.16012 0.23942,-0.21856 0.24326,-0.12901 0.003,0.0893 -0.10261,0.22089 -0.23655,0.29174 -0.14797,0.0783 -0.15049,0.0146 -0.007,-0.16274 z m 37.19221,34.28367 c 0.0711,-0.081 0.19238,-0.0922 0.26951,-0.0251 0.077,0.0673 0.0822,0.18832 0.0111,0.2693 -0.071,0.0809 -0.19232,0.0922 -0.2695,0.0251 -0.0769,-0.0673 -0.0822,-0.18826 -0.0112,-0.2692 z m 2.54762,2.73557 c 0.071,-0.0809 0.19234,-0.0922 0.26951,-0.0251 0.0769,0.0673 0.0822,0.18827 0.0111,0.26919 -0.0711,0.0809 -0.19239,0.0922 -0.2695,0.0251 -0.077,-0.0673 -0.0822,-0.18833 -0.0112,-0.2693 z m -19.83533,-16.84653 c 0.1303,-0.16013 0.23941,-0.21856 0.24326,-0.12901 0.003,0.0893 -0.10262,0.22089 -0.23655,0.29174 -0.14797,0.0783 -0.15048,0.0146 -0.007,-0.16273 z m 14.9214,14.12864 c 0.0235,-0.12229 0.10907,-0.16465 0.19104,-0.0933 0.0819,0.0709 0.0905,0.19547 0.0194,0.27642 -0.071,0.0809 -0.15716,0.12279 -0.19102,0.0933 -0.0342,-0.029 -0.0428,-0.15401 -0.0195,-0.27641 z m -0.84522,0.82197 c 0.0711,-0.081 0.19233,-0.0923 0.2695,-0.0251 0.077,0.0673 0.0822,0.18832 0.0111,0.2693 -0.071,0.0809 -0.19234,0.0922 -0.2695,0.0251 -0.0769,-0.0673 -0.0822,-0.18827 -0.0111,-0.26919 z m -12.05876,-8.6705 c 0.0236,-0.12452 0.14131,-0.14086 0.26192,-0.036 0.24644,0.21441 0.20518,0.33434 -0.10014,0.29117 -0.11263,-0.016 -0.18534,-0.13092 -0.16182,-0.25518 z m 7.70263,7.9951 c 0.071,-0.0809 0.19233,-0.0922 0.26946,-0.0251 0.0769,0.0673 0.0822,0.18827 0.0111,0.26919 -0.071,0.0809 -0.19232,0.0922 -0.26945,0.0251 -0.0769,-0.0673 -0.0822,-0.18828 -0.0111,-0.2692 z M 135.38052,438.6208 c -0.53637,-0.61535 -0.87176,-1.21212 -1.01414,-1.80462 -0.117,-0.48681 -0.30705,-1.13065 -0.42218,-1.43072 -0.11525,-0.30006 -0.17334,-0.83467 -0.12915,-1.18799 0.097,-0.77597 0.65712,-2.44259 0.82605,-2.45837 0.13793,-0.0129 0.92974,-1.51606 1.49203,-2.8322 0.208,-0.48696 0.77026,-1.45775 1.24949,-2.15729 0.47919,-0.6995 0.82923,-1.34624 0.77785,-1.43719 -0.0514,-0.0908 0.19208,-0.17099 0.54106,-0.17811 0.45202,-0.009 0.92903,-0.24056 1.65877,-0.80465 0.56345,-0.43548 1.06732,-0.90225 1.11976,-1.03737 0.0524,-0.13506 0.16347,-0.1863 0.24182,-0.11813 0.094,0.0811 0.67973,-0.48524 1.6261,-1.57257 0.99787,-1.14741 1.59942,-1.72216 1.84719,-1.76866 0.20215,-0.0377 0.72348,-0.42977 1.15855,-0.87125 0.435,-0.44147 1.02691,-1.00622 1.31498,-1.25519 0.28832,-0.24885 0.82768,-0.71397 1.19894,-1.03327 0.37151,-0.31918 0.83339,-0.74927 1.02694,-0.95527 0.23612,-0.25045 0.39199,-0.29569 0.47333,-0.13567 0.0847,0.16754 0.19943,0.12071 0.3817,-0.15509 0.14293,-0.217 0.41452,-0.38939 0.6034,-0.38332 0.18867,0.006 0.52564,-0.19729 0.74886,-0.45156 0.22319,-0.2543 0.46638,-0.40965 0.54031,-0.34534 0.0745,0.065 0.26957,-0.11228 0.43774,-0.39773 0.24049,-0.40804 0.35215,-0.47227 0.53835,-0.31029 0.18281,0.15907 0.23217,0.13257 0.2217,-0.11863 -0.008,-0.17768 0.19523,-0.56073 0.45021,-0.8512 0.44054,-0.50193 0.87479,-1.67267 0.91562,-2.4688 0.0104,-0.20203 0.0957,-0.37457 0.18967,-0.38326 0.0943,-0.009 0.18291,-0.13292 0.19813,-0.27559 0.0149,-0.14283 0.20181,-0.63341 0.41518,-1.09018 0.21342,-0.45672 0.42527,-1.03151 0.47096,-1.2773 0.14455,-0.77882 4.03554,-5.0908 5.42175,-6.00844 0.29603,-0.19592 0.49841,-0.3909 0.45,-0.43302 -0.0484,-0.0425 0.0507,-0.0897 0.22038,-0.10571 0.17161,-0.016 0.43683,-0.24603 0.59713,-0.51798 0.16467,-0.27893 0.4458,-0.51847 0.65433,-0.55758 0.20118,-0.0376 0.4154,-0.19593 0.47601,-0.35191 0.0708,-0.18144 0.15357,-0.19835 0.23045,-0.0469 0.11398,0.22431 0.94838,-0.17926 1.15406,-0.55816 0.0476,-0.0882 0.17177,-0.15544 0.27599,-0.14922 0.3294,0.019 1.10868,-0.33204 1.35185,-0.60903 0.12893,-0.14667 0.3471,-0.27963 0.48497,-0.29535 0.13786,-0.0156 0.62201,-0.40622 1.07582,-0.86787 0.61741,-0.628 0.80946,-0.93265 0.76944,-1.20403 -0.049,-0.32083 -0.0255,-0.33935 0.19586,-0.15402 0.23104,0.19128 0.2719,0.15345 0.48839,-0.45444 0.13023,-0.36577 0.41423,-0.80586 0.63099,-0.97796 0.21699,-0.17182 0.36382,-0.41434 0.33131,-0.53441 -0.0402,-0.14138 0.28881,-0.37255 0.90934,-0.63959 0.5347,-0.2299 1.03646,-0.49118 1.11493,-0.58056 0.0783,-0.0897 0.20165,-0.11136 0.27358,-0.0488 0.072,0.0626 0.30245,3.9e-4 0.51224,-0.13829 0.2101,-0.13841 0.68716,-0.39498 1.06078,-0.56952 0.81729,-0.38176 1.68782,-1.35846 1.57661,-1.76839 -0.0583,-0.21488 -0.0317,-0.2548 0.0971,-0.1456 0.19867,0.17285 0.70701,-0.32162 0.62599,-0.60793 -0.0295,-0.10276 0.23087,-0.44858 0.57803,-0.76803 0.54619,-0.50248 0.63454,-0.69736 0.65618,-1.4448 0.0137,-0.4752 0.12804,-0.92463 0.25416,-0.99879 0.28581,-0.16783 0.7296,-1.55589 0.61602,-1.92674 -0.0462,-0.15107 0.0299,-0.33714 0.16911,-0.41346 0.29374,-0.16104 0.60672,-1.18968 0.53126,-1.74633 -0.0284,-0.21029 0.0469,-0.49476 0.16753,-0.63215 0.12034,-0.13764 0.23594,-0.71287 0.25644,-1.2788 0.0205,-0.56594 0.0967,-1.09676 0.16946,-1.17962 0.0728,-0.0827 0.0545,-0.28411 -0.0404,-0.44733 -0.19538,-0.33596 0.0265,-1.64346 0.31931,-1.88167 0.10627,-0.086 0.12661,-0.21427 0.0462,-0.2842 -0.0808,-0.0698 -0.0302,-0.2599 0.11191,-0.42177 0.14211,-0.16189 0.1952,-0.34924 0.11805,-0.41635 -0.077,-0.0674 -0.0311,-0.24642 0.1023,-0.39839 0.1337,-0.15166 0.22018,-0.44116 0.1929,-0.64259 -0.0273,-0.20149 0.11945,-0.55892 0.32612,-0.79435 0.21488,-0.2448 0.3175,-0.5428 0.23972,-0.69591 -0.0748,-0.14733 -0.008,-0.41405 0.14928,-0.5929 0.32155,-0.36634 0.23532,-1.8517 -0.15975,-2.75075 -0.31625,-0.71952 -0.49648,-3.04001 -0.3259,-4.19499 0.23285,-1.57636 1.2367,-2.61183 2.76734,-2.85466 0.32349,-0.0512 0.62571,-0.13878 0.67162,-0.19435 0.0928,-0.1164 1.30588,-0.0201 1.76111,0.13764 0.20796,0.072 0.49596,-0.10288 0.93413,-0.5673 0.34893,-0.36889 0.71611,-0.69893 0.81704,-0.73242 0.10108,-0.0334 0.28591,-0.43315 0.41107,-0.88806 0.30276,-1.10098 -0.0715,-1.72283 -2.05927,-3.42192 -2.23538,-1.91064 -3.75401,-2.9721 -4.19366,-2.93116 -0.20708,0.0194 -0.43068,-0.0119 -0.49683,-0.0696 -0.0659,-0.0579 -0.2791,-0.0913 -0.47323,-0.075 -0.74323,0.0622 -2.7277,-1.07059 -4.2699,-2.43748 -0.82239,-0.72927 -1.55628,-1.48929 -1.63021,-1.6898 -0.0742,-0.20028 -0.26733,-0.69689 -0.42935,-1.10354 -0.46519,-1.16718 -0.5366,-2.21061 -0.22651,-3.30805 0.396,-1.40127 1.78767,-2.83489 2.82248,-2.90767 0.45226,-0.0317 0.71298,-0.16822 0.91725,-0.48023 0.0423,-0.0651 0.13279,-0.009 0.20055,0.12464 0.0679,0.13329 0.29342,0.22693 0.50165,0.20733 0.20811,-0.0193 0.67303,0.13336 1.03318,0.33937 1.08146,0.61875 3.8123,2.89018 4.35853,3.62542 1.39152,1.87274 2.01612,2.58263 3.29342,3.74299 1.40112,1.2728 1.50852,1.32913 3.31444,1.73495 0.4133,0.0929 0.87093,0.2728 1.01686,0.39976 0.14596,0.12695 0.48806,0.24917 0.76023,0.2716 0.27223,0.0224 0.94664,0.13868 1.49862,0.25832 0.55203,0.1197 1.15115,0.23989 1.33139,0.26718 0.18017,0.0272 0.60886,0.14147 0.95265,0.25368 0.34373,0.11227 0.66898,0.1541 0.72269,0.0929 0.0536,-0.0613 0.24775,0.0194 0.43121,0.17898 0.18342,0.15965 0.49932,0.25927 0.70197,0.22141 0.20261,-0.0378 0.45458,0.006 0.55984,0.0977 0.1051,0.0917 0.4872,0.0151 0.84867,-0.17003 0.42352,-0.21684 0.75195,-0.25424 0.92336,-0.10512 0.30593,0.26617 1.20801,0.19286 1.19607,-0.0972 -0.004,-0.10686 0.062,-0.0564 0.14817,0.11223 0.10715,0.21077 0.41769,0.27347 0.99197,0.2004 0.74671,-0.0951 0.92329,-0.20587 1.65437,-1.03868 0.45411,-0.51731 0.92576,-0.9172 1.05968,-0.89824 0.13274,0.0188 0.38422,-0.18321 0.55897,-0.44884 0.17454,-0.26573 0.40063,-0.47117 0.50173,-0.45691 0.10103,0.0146 0.22706,-0.1428 0.27954,-0.34916 0.13473,-0.5291 2.88123,-3.49465 3.44284,-3.71745 0.98146,-0.38936 1.22696,-0.52347 1.80958,-0.98917 0.33128,-0.26465 0.90921,-0.5973 1.28442,-0.73916 0.37523,-0.14186 0.76062,-0.34712 0.85637,-0.45619 0.0962,-0.10858 0.38482,-0.17563 0.64245,-0.14786 0.35367,0.0381 0.63461,-0.12225 1.14782,-0.65519 0.37344,-0.38837 0.72677,-0.865 0.78455,-1.05979 0.0577,-0.19474 0.39176,-0.69511 0.74212,-1.11197 0.35022,-0.41698 0.61186,-0.8469 0.58099,-0.95568 -0.0308,-0.1089 0.1212,-0.18691 0.33789,-0.17355 0.33609,0.0207 0.40689,-0.0446 0.48103,-0.44394 0.0693,-0.37298 0.16154,-0.48202 0.45323,-0.53655 0.21317,-0.0397 0.74946,-0.50236 1.28389,-1.10745 0.71041,-0.80936 0.99535,-1.02459 1.26561,-0.9741 0.27665,0.0517 0.55491,-0.17193 1.35855,-1.09185 0.84331,-0.96069 1.06052,-1.3407 1.30762,-2.25248 0.35117,-1.29552 0.36286,-1.31339 0.68324,-1.04236 0.22933,0.18975 0.0196,-0.40392 -0.54444,-1.56439 -0.12129,-0.24941 -0.27886,-0.60742 -0.35,-0.79551 -0.0713,-0.18802 -0.2153,-0.41654 -0.32008,-0.50771 -0.25387,-0.22089 -0.38847,-1.43737 -0.18468,-1.66953 0.089,-0.10095 0.10011,-0.30439 0.0253,-0.45167 -0.0748,-0.14733 -0.0874,-0.32327 -0.0279,-0.39105 0.15947,-0.18159 0.10956,-1.84707 -0.0735,-2.45328 -0.0984,-0.32556 -0.55695,-0.88514 -1.21005,-1.47624 -0.6457,-0.58426 -1.14439,-1.19095 -1.29185,-1.57087 -0.13209,-0.34042 -0.30571,-0.69734 -0.38578,-0.79319 -0.0799,-0.0961 -0.1852,-0.31951 -0.23355,-0.49694 -0.0484,-0.17747 -0.2922,-0.81941 -0.54186,-1.42645 -0.2497,-0.60709 -0.36911,-1.2004 -0.26549,-1.31846 0.10391,-0.11788 0.14266,-0.29552 0.0865,-0.39421 -0.12643,-0.22256 1.2215,-3.35094 1.65814,-3.84835 0.17562,-0.20007 0.39169,-0.76329 0.48018,-1.25169 0.0884,-0.48835 0.21336,-0.94786 0.27767,-1.02113 0.17302,-0.19707 -0.14855,-1.30665 -0.44173,-1.52437 -0.1548,-0.11509 -0.1579,-0.24085 -0.008,-0.3231 0.14612,-0.0804 0.15082,-0.29146 0.0111,-0.52202 -0.12915,-0.21298 -0.25758,-0.6149 -0.28551,-0.89316 -0.028,-0.27821 -0.26093,-0.95994 -0.51776,-1.51487 -0.25677,-0.55497 -0.47574,-1.22512 -0.48664,-1.48925 -0.011,-0.26417 -0.0938,-0.54466 -0.18416,-0.62326 -0.0903,-0.0788 -0.18585,-0.31878 -0.21209,-0.5336 -0.10728,-0.87708 -0.79818,-1.92452 -1.48188,-2.24645 -0.62564,-0.29457 -3.22711,-0.30434 -3.48278,-0.0131 -0.14417,0.1643 -1.42402,-0.35421 -1.90299,-0.77094 -0.18961,-0.16493 -0.42909,-0.27185 -0.5322,-0.23762 -0.10291,0.0345 -0.47372,-0.11284 -0.82355,-0.32699 -0.34965,-0.21424 -0.83006,-0.37125 -1.06734,-0.34915 -0.56012,0.0521 -2.49338,-1.40484 -2.85007,-2.14791 -0.13974,-0.29106 -0.31725,-0.64747 -0.39453,-0.79193 -0.0773,-0.14452 -0.67066,-0.73705 -1.31869,-1.31673 -0.88392,-0.7906 -1.23992,-1.2336 -1.42521,-1.7733 -0.41683,-1.21367 -0.63061,-2.08263 -0.53878,-2.18916 0.049,-0.0552 0.18057,-0.34953 0.29413,-0.65258 0.11351,-0.30309 0.54666,-0.91488 0.96249,-1.35961 0.42601,-0.45484 0.72751,-0.90943 0.69062,-1.03928 -0.0359,-0.12704 0.0169,-0.25807 0.1177,-0.29153 0.32522,-0.10805 0.10723,-2.70538 -0.27084,-3.22687 -0.19683,-0.27146 -0.45153,-0.78346 -0.566,-1.13779 -0.34302,-1.06176 -1.83003,-2.93996 -3.21872,-4.06556 -0.69148,-0.56056 -1.81607,-1.52435 -2.49934,-2.1413 -0.68286,-0.6175 -1.58415,-1.43003 -2.00326,-1.80542 -0.41851,-0.3759 -1.65461,-1.37799 -2.74701,-2.22656 -1.09214,-0.84884 -2.40737,-1.9298 -2.92272,-2.40212 -0.51559,-0.47205 -1.47337,-1.15686 -2.12893,-1.52126 -1.96272,-1.09104 -3.3207,-2.1304 -3.7397,-2.86248 -0.20636,-0.36049 -0.76684,-0.97421 -1.24539,-1.36369 -0.47889,-0.38924 -1.28592,-1.24948 -1.79401,-1.91109 -1.03658,-1.34975 -2.55385,-2.7498 -2.86736,-2.64566 -0.11341,0.0379 -0.25721,-0.0312 -0.3192,-0.15328 -0.0618,-0.12225 -0.70054,-0.31018 -1.41902,-0.41809 -0.83838,-0.12601 -1.61602,-0.39518 -2.1708,-0.75136 -1.1806,-0.75796 -4.02806,-3.65803 -4.93121,-5.0222 -0.80982,-1.22332 -1.27537,-2.99607 -0.95218,-3.62551 0.10827,-0.2103 0.19329,-1.01236 0.18937,-1.78193 -0.007,-1.35824 0.23364,-1.98045 0.78585,-2.03187 0.14762,-0.0137 0.46421,-0.19962 0.70363,-0.41301 0.66497,-0.59298 1.33977,-1.02874 1.44761,-0.93491 0.0529,0.0468 0.3803,-0.078 0.7266,-0.27621 0.34635,-0.19837 0.69247,-0.30601 0.76919,-0.23927 0.0766,0.067 0.15652,0.0322 0.17738,-0.0768 0.0505,-0.26491 0.92214,-0.15203 1.59658,0.20681 0.29906,0.15912 0.63345,0.25954 0.74305,0.22313 0.10942,-0.0366 0.31654,0.0358 0.45989,0.16053 0.14341,0.12465 0.34061,0.17836 0.43835,0.11924 0.62407,-0.37766 5.45805,3.88243 4.99917,4.40516 -0.0563,0.0642 0.18034,0.36285 0.526,0.6636 0.3457,0.30082 0.78377,0.84822 0.97357,1.21653 0.40027,0.77688 1.38116,1.97691 1.95925,2.39707 0.2201,0.16022 0.3799,0.39797 0.35525,0.52806 -0.0249,0.1303 0.0773,0.34368 0.22711,0.47402 0.14972,0.1303 0.22212,0.29412 0.16072,0.36407 -0.0616,0.0697 -0.0111,0.55167 0.11181,1.07057 0.12289,0.51894 0.23392,1.0909 0.24666,1.27108 0.0127,0.1802 0.1123,0.47911 0.22121,0.66419 0.10906,0.1849 0.14531,0.3966 0.0808,0.47003 -0.0641,0.0736 -0.01,0.42314 0.12185,0.77727 0.13154,0.35412 0.22787,0.78348 0.21419,0.95406 -0.0136,0.17058 0.24785,0.74243 0.58112,1.2708 0.6555,1.03912 1.80576,1.93705 2.92489,2.28318 0.40814,0.12616 0.93573,0.51863 1.61382,1.20037 0.63238,0.63615 1.35182,1.18586 1.9368,1.47346 0.57812,0.28647 1.59641,1.05894 2.69396,2.04356 0.97043,0.87073 1.97037,1.65466 2.22156,1.74251 0.25129,0.0877 0.85996,0.44135 1.35259,0.78571 1.63579,1.14373 1.96369,1.28953 2.64257,1.17502 l 0.6678,-0.11272 0.28306,0.7621 c 0.31827,0.85703 1.81749,2.28626 2.62682,2.50405 0.69537,0.18721 2.11169,0.93738 2.17219,1.15052 0.058,0.20453 3.32224,3.12159 5.70809,5.10095 0.84075,0.69721 1.5558,1.36436 1.58921,1.48245 0.0334,0.11799 0.16111,0.18125 0.28377,0.14046 0.12253,-0.0408 0.24754,0.0127 0.27764,0.11877 0.03,0.10627 0.56092,0.31725 1.17948,0.46922 1.00351,0.2465 1.16789,0.22717 1.52504,-0.17968 0.28757,-0.3275 0.37194,-0.66191 0.29953,-1.18688 -0.0877,-0.63622 -0.0162,-0.82731 0.55288,-1.47551 0.62309,-0.70977 0.6826,-0.73404 1.2747,-0.51597 0.3416,0.12575 0.79354,0.37869 1.00425,0.56202 0.37103,0.3228 1.03133,1.86511 0.92967,2.17147 -0.0274,0.0832 0.0487,0.23699 0.1694,0.34199 0.34742,0.30224 1.32218,2.23421 1.19836,2.37525 -0.0617,0.0698 0.0545,0.27218 0.25792,0.44912 0.20622,0.17933 0.37057,0.588 0.37164,0.92362 0.004,1.41134 0.25781,1.79729 1.87245,2.85362 1.75967,1.15121 1.70056,1.10272 2.6693,2.18983 0.60489,0.67882 0.96951,0.93632 1.71843,1.21369 0.52285,0.1936 1.00014,0.29567 1.06052,0.22689 0.0606,-0.0686 0.38957,-0.1405 0.73148,-0.15937 0.42081,-0.0232 0.79936,-0.21396 1.17162,-0.59047 0.85707,-0.86699 0.91891,-1.00322 0.73295,-1.61885 -0.0958,-0.31724 -0.19207,-0.81012 -0.21394,-1.09522 -0.0219,-0.28518 -0.16357,-0.77718 -0.31483,-1.09344 -0.7222,-1.50975 0.0503,-2.77484 1.43144,-2.34415 0.99988,0.31178 2.21688,1.5747 2.22115,2.305 0.002,0.36673 0.23123,0.8084 0.68635,1.32323 0.37566,0.42495 0.67506,0.92799 0.66532,1.11774 -0.0204,0.39856 0.96023,1.31677 1.67157,1.56508 0.29367,0.10253 0.46389,0.24729 0.44038,0.37333 -0.0426,0.22315 0.85978,0.80665 1.26807,0.8199 0.13722,0.004 0.78151,0.36138 1.43186,0.79319 0.65029,0.43176 1.40592,0.83122 1.67925,0.88771 0.27329,0.0565 0.70489,0.24993 0.95906,0.42973 0.25406,0.18003 0.75653,0.5322 1.11634,0.78308 0.89577,0.62463 2.18402,0.74478 2.46135,0.22968 0.11485,-0.21257 0.3077,-0.37283 0.42926,-0.35563 0.37605,0.0532 0.72067,-0.50894 0.57104,-0.9313 -0.0806,-0.22736 -0.19446,-0.34231 -0.26262,-0.26466 -0.0724,0.0824 -0.27779,-0.10396 -0.51641,-0.46878 -0.21812,-0.33298 -0.57698,-0.78037 -0.79751,-0.99425 -0.41097,-0.39855 -0.73985,-1.18072 -1.09738,-2.60984 -0.11151,-0.44561 -0.53874,-1.41856 -0.94945,-2.16211 -1.05327,-1.90697 -1.66638,-3.58369 -1.33311,-3.64593 0.1609,-0.0301 0.29211,-0.18191 0.3253,-0.38118 0.0851,-0.47195 0.21869,-0.5797 0.45923,-0.37042 0.11574,0.10067 0.25719,0.12988 0.31413,0.065 0.057,-0.0649 0.52699,0.0386 1.04444,0.23023 1.72827,0.63993 3.47485,2.9333 3.79498,4.98316 0.0525,0.33587 0.22055,0.7382 0.37339,0.89415 0.1527,0.15616 0.20865,0.33961 0.12387,0.40816 -0.0846,0.0687 -0.0833,0.19151 0.003,0.27366 0.0848,0.0844 0.16153,0.24 0.16615,0.35109 0.004,0.11103 0.12189,0.30067 0.26065,0.42139 0.139,0.12044 0.20354,0.41071 0.14402,0.64445 -0.0595,0.23379 -0.0364,0.48738 0.0512,0.56364 0.0876,0.0763 0.17855,0.3476 0.20192,0.60293 0.0401,0.43801 0.0809,0.44459 0.72123,0.11677 0.3733,-0.19116 0.79408,-0.47899 0.93517,-0.63972 0.3386,-0.38574 1.49725,-0.0818 2.38119,0.62454 0.80733,0.64473 0.97314,0.9102 0.73742,1.17872 -0.21816,0.2485 -0.18716,1.75618 0.0409,1.98777 1.4491,1.47135 1.45602,1.47567 2.73566,1.68787 0.69474,0.11522 1.43381,0.35795 1.64241,0.53945 0.20857,0.18143 0.65946,0.45381 1.00206,0.60515 0.34257,0.15142 0.93384,0.50466 1.31386,0.78505 0.69727,0.51478 1.85005,0.79614 1.91278,0.46733 0.0188,-0.0978 0.37576,-0.18038 0.79354,-0.18336 0.58986,-0.004 0.78229,-0.0887 0.86077,-0.37785 0.0557,-0.2049 0.18213,-0.41886 0.28117,-0.47541 0.099,-0.0566 0.0626,-0.60303 -0.0811,-1.2143 -0.14362,-0.61126 -0.21065,-1.16878 -0.14892,-1.23911 0.0619,-0.07 0.01,-0.32808 -0.11584,-0.57284 -0.1254,-0.24477 -0.18096,-0.49857 -0.12345,-0.56408 0.0576,-0.0655 0.0181,-0.40123 -0.0874,-0.74606 -0.10558,-0.34484 -0.13757,-0.689 -0.0711,-0.76469 0.1164,-0.13224 0.16921,-0.74278 0.1832,-2.11143 0.003,-0.35297 0.0562,-0.69823 0.1169,-0.76739 0.0608,-0.0689 -0.0128,-0.23275 -0.16335,-0.36373 -0.1505,-0.13091 -0.2472,-0.36961 -0.21497,-0.5303 0.0323,-0.16073 -0.10353,-0.61491 -0.30181,-1.00912 -0.28637,-0.56947 -0.29705,-0.86293 -0.0519,-1.42703 0.26855,-0.61816 0.37013,-0.71902 0.78327,-0.77823 0.47709,-0.0683 1.18247,0.41717 1.47564,1.01573 0.0829,0.16894 0.18485,0.83364 0.22675,1.47682 0.0419,0.64318 0.14526,1.22948 0.22976,1.30299 0.0845,0.0734 0.0442,0.25818 -0.0895,0.41042 -0.32777,0.37337 -0.0649,1.82089 0.34107,1.87824 0.17873,0.0253 0.32308,0.16713 0.34642,0.34065 0.0285,0.2099 0.21679,0.28045 0.64165,0.24107 0.83729,-0.0779 1.85604,-1.29871 2.92678,-3.50714 0.24725,-0.5099 0.59281,-1.15292 0.76785,-1.42886 0.90087,-1.41979 1.06725,-1.69819 1.17349,-1.96392 0.13038,-0.32613 0.54828,-1.01492 0.82448,-1.35908 0.10129,-0.12602 0.1934,-0.39633 0.20478,-0.60049 0.0194,-0.34706 0.2733,-0.90765 0.82213,-1.81535 0.20239,-0.33457 0.29068,-0.33116 0.69818,0.0234 0.40514,0.35242 0.43303,0.50524 0.2113,1.15723 -0.33687,0.99067 -1.27409,2.33052 -1.49543,2.13794 -0.0902,-0.0787 -0.12704,0.0438 -0.0814,0.27222 0.0574,0.2879 -0.0964,0.63087 -0.502,1.11903 -0.32138,0.38732 -0.5378,0.74545 -0.4804,0.79628 0.0579,0.0504 -0.0118,0.22493 -0.1539,0.3868 -0.14212,0.16189 -0.19525,0.3493 -0.1181,0.4164 0.077,0.0674 -0.0307,0.31681 -0.23963,0.55485 -0.209,0.238 -0.35232,0.52981 -0.31865,0.64845 0.0388,0.13676 -0.0647,0.26343 -0.28282,0.3466 -0.20005,0.076 -0.38124,0.276 -0.43256,0.47788 -0.0486,0.19087 -0.28732,0.60523 -0.53046,0.92076 -0.24331,0.31537 -0.4228,0.71571 -0.39927,0.88924 0.0235,0.1736 -0.0548,0.42669 -0.17397,0.56242 -0.11892,0.13615 -0.21171,0.36877 -0.20551,0.51767 0.006,0.1489 -0.42492,0.78598 -0.95793,1.41577 -0.53312,0.6296 -0.90958,1.15336 -0.83687,1.16365 0.0728,0.0105 0.0706,0.45047 -0.004,0.9782 -0.14178,0.99363 0.11141,1.827 0.93064,3.0634 0.88452,1.33495 1.14736,2.04281 0.89804,2.41854 -0.13005,0.19583 -0.14168,0.43859 -0.0259,0.53933 0.11573,0.10066 0.1933,0.35476 0.17247,0.56459 -0.0864,0.86617 1.76276,3.24535 2.36641,3.04477 0.1368,-0.0454 0.27867,0.0229 0.31523,0.15187 0.084,0.29589 1.33649,0.62782 2.19125,0.58079 0.37341,-0.0206 0.83904,0.12111 1.09433,0.33297 0.24435,0.20288 0.6393,0.49558 0.87712,0.651 0.23797,0.15526 0.39072,0.33011 0.33646,0.39192 -0.0528,0.0605 0.0432,0.38947 0.21364,0.73151 0.17039,0.34199 0.26479,0.73789 0.20968,0.87978 -0.0549,0.14208 -0.009,0.33782 0.10386,0.43542 0.11233,0.0974 0.0764,0.46597 -0.0795,0.81855 -0.40974,0.92677 -0.31476,1.33853 0.34016,1.47394 l 0.5254,0.10864 -0.15897,-0.44856 c -0.13727,-0.38728 -0.0235,-0.33441 0.83337,0.38734 0.90956,0.76585 0.99826,0.90463 1.06409,1.66047 0.0395,0.45358 0.0137,0.89079 -0.0571,0.97148 -0.25434,0.28975 0.008,0.59278 0.56802,0.65661 0.31384,0.0358 0.6286,0.17907 0.69936,0.31844 0.0711,0.13908 0.18503,0.18935 0.25393,0.11086 0.0688,-0.0785 0.24708,-0.0365 0.39613,0.0932 0.14912,0.12972 0.58036,0.15451 0.95831,0.055 0.378,-0.0994 0.76592,-0.11229 0.86199,-0.0287 0.0963,0.0834 0.46111,-0.003 0.81117,-0.19091 0.35001,-0.18863 0.66326,-0.24844 0.69599,-0.13295 0.0346,0.12111 0.0814,0.0953 0.11132,-0.062 0.0303,-0.15932 0.23273,-0.26504 0.49251,-0.25222 0.2423,0.0107 0.36944,-0.0461 0.2825,-0.12626 -0.32588,-0.3008 1.01836,-0.92441 1.66234,-0.77135 0.75114,0.17846 0.75197,0.17919 0.51556,0.44851 -0.10691,0.12104 -0.11873,0.29388 -0.0271,0.38326 0.0915,0.0896 -0.0385,0.11086 -0.28921,0.0476 -0.62949,-0.15875 -0.78064,0.0938 -0.26518,0.44307 0.29863,0.20218 0.48979,0.20502 0.63686,0.009 0.14874,-0.19816 0.26046,-0.1948 0.3817,0.0114 0.18429,0.31321 0.94924,0.0636 1.40855,-0.45962 0.13603,-0.15537 0.43623,-0.24322 0.66657,-0.19561 0.23037,0.0477 0.55054,-0.0633 0.71147,-0.24666 0.16091,-0.18325 0.4244,-0.34551 0.58554,-0.36053 0.21094,-0.0197 0.27453,-0.0921 0.22729,-0.25884 -0.0944,-0.33258 0.14599,-0.5451 0.29179,-0.25803 0.0861,0.16873 0.22526,0.11582 0.46446,-0.17674 0.34927,-0.42651 1.42661,-0.66471 1.7476,-0.38574 0.0933,0.0805 0.33321,-0.0206 0.53377,-0.22513 0.20074,-0.20452 0.51737,-0.34349 0.70402,-0.30867 0.1866,0.0349 0.42096,-0.0296 0.52079,-0.14336 0.0998,-0.1136 0.48462,-0.23494 0.85515,-0.26945 0.37054,-0.0345 0.7223,-0.1181 0.78174,-0.18582 0.0595,-0.0675 0.60528,0.11276 1.21309,0.40098 0.88098,0.41773 1.24818,0.69956 1.81105,1.39006 0.38825,0.47632 0.72137,0.88022 0.74027,0.89744 0.0194,0.0162 -0.0531,0.13055 -0.15962,0.25193 -0.10696,0.12108 -0.0991,0.30312 0.0167,0.40384 0.13972,0.12112 0.082,0.32947 -0.17068,0.61728 -0.22108,0.25181 -0.33367,0.57693 -0.26807,0.77408 0.0863,0.25944 -0.0572,0.52166 -0.60614,1.1077 -0.39533,0.42263 -0.8653,0.85972 -1.04379,0.97208 -0.17861,0.11223 -0.29191,0.31904 -0.25224,0.45911 0.0536,0.18885 -0.14112,0.34515 -0.7512,0.60309 -0.85518,0.36162 -1.52007,0.33981 -1.89422,-0.0621 -0.11988,-0.12872 -0.31928,-0.30884 -0.4432,-0.40024 -0.30821,-0.22717 -2.20571,-0.10423 -2.8759,0.18607 -0.30058,0.13017 -0.81075,0.20985 -1.1337,0.17707 -1.08603,-0.11023 -3.11707,-1.26518 -2.81996,-1.60364 0.071,-0.0809 -0.0602,-0.3119 -0.29168,-0.5133 -0.27055,-0.23535 -0.48659,-0.29139 -0.60475,-0.15678 -0.10122,0.11506 -0.54146,0.2427 -0.97847,0.28339 -0.8182,0.0762 -1.77348,0.58668 -1.51637,0.81037 0.078,0.0684 -0.0188,0.24643 -0.21572,0.39627 -0.3471,0.26409 -0.34371,0.26968 0.10759,0.18064 0.32313,-0.0638 0.72001,0.0929 1.29585,0.5118 0.79391,0.57753 0.82087,0.62718 0.6206,1.13846 -0.2706,0.69065 -0.87361,0.80127 -1.71696,0.31474 -0.7098,-0.40953 -1.42334,-0.42899 -1.57331,-0.0429 -0.0582,0.15012 -0.18163,0.20688 -0.26948,0.13045 -0.0899,-0.0784 -0.18352,-0.0378 -0.20794,0.09 -0.0245,0.12768 -0.17695,0.25786 -0.33872,0.28925 -0.79486,0.1532 -1.55873,1.6822 -1.0584,2.11751 0.10631,0.0917 0.19684,0.46128 0.20213,0.82033 0.005,0.35904 0.0876,0.72264 0.18288,0.80796 0.0966,0.0836 0.0859,0.25445 -0.0207,0.37588 -0.1069,0.12102 -0.26954,0.15482 -0.36216,0.0742 -0.1303,-0.11336 -0.16559,-0.0737 -0.15402,0.17538 0.0153,0.37159 0.38834,0.81223 1.96875,2.32606 1.38046,1.32185 2.19677,2.44626 2.38002,3.27703 0.0749,0.33989 0.23489,0.63193 0.35541,0.649 0.12631,0.018 0.0985,0.0974 -0.0649,0.18661 -0.18495,0.10134 -0.20587,0.22369 -0.0558,0.35421 0.17328,0.15071 0.12926,0.26847 -0.18287,0.48976 -0.34638,0.24554 -0.36156,0.33428 -0.098,0.56358 0.26234,0.22824 0.25362,0.28319 -0.0554,0.34114 -0.49306,0.092 -0.5339,0.70057 -0.0623,0.92693 0.18798,0.0902 0.2832,0.2308 0.21148,0.31251 -0.0716,0.0815 -0.0122,0.32221 0.13201,0.53479 0.16361,0.24114 0.16979,0.52561 0.0166,0.75633 -0.16114,0.24188 -0.1474,0.48492 0.0389,0.7032 0.35366,0.41415 0.46768,1.23524 0.18468,1.32928 -0.11951,0.0395 -0.0969,0.086 0.0523,0.10709 0.15489,0.022 0.2447,0.27063 0.21905,0.60474 -0.0472,0.60899 -0.23661,0.95971 -0.38951,0.72102 -0.0519,-0.0804 -0.18461,-0.0433 -0.29534,0.0828 -0.1107,0.12627 -0.10918,0.24243 0.003,0.25834 0.11268,0.016 0.18775,0.11937 0.16663,0.22995 -0.0213,0.11032 -0.17478,0.13541 -0.34113,0.0556 -0.22862,-0.10996 -0.47596,0.0314 -1.0113,0.57719 -0.4737,0.48336 -0.65424,0.76967 -0.54396,0.86562 0.12104,0.10453 0.0777,0.15942 -0.16041,0.20402 -0.23743,0.0443 -0.32156,0.14613 -0.31189,0.3775 0.01,0.24273 -0.0262,0.28249 -0.15767,0.16806 -0.0924,-0.0808 -0.23275,-0.0732 -0.31142,0.0164 -0.0784,0.0898 -0.009,0.20912 0.15428,0.26556 0.22815,0.0789 0.21701,0.15261 -0.0492,0.31883 -0.20412,0.12737 -0.28236,0.27181 -0.19039,0.35183 0.0857,0.0745 0.0705,0.20729 -0.0339,0.29496 -0.29219,0.24578 -0.45022,0.85548 -0.2294,0.88672 0.10851,0.0153 0.0125,0.23813 -0.21316,0.49517 -0.32686,0.3724 -0.34868,0.49701 -0.10615,0.61427 0.24754,0.11962 0.21431,0.26173 -0.17882,0.76434 -0.26551,0.33957 -0.648,0.6491 -0.85064,0.68716 -0.26904,0.0511 -0.33811,0.12252 -0.25707,0.26616 0.0611,0.10782 -0.0394,0.30062 -0.22286,0.42809 -0.23814,0.16522 -0.27196,0.32465 -0.11888,0.55539 0.14894,0.22443 0.11738,0.39127 -0.10274,0.54424 -0.18469,0.12864 -0.24718,0.2816 -0.14574,0.36986 0.0947,0.0818 0.0507,0.21563 -0.097,0.29666 -0.38759,0.21243 -0.20203,0.63613 0.23116,0.5279 0.32994,-0.0824 0.35863,-0.0528 0.29222,0.30312 -0.0418,0.22508 -0.19829,0.43588 -0.36416,0.49127 -0.18376,0.061 -0.30804,0.31969 -0.33782,0.70098 -0.0363,0.46888 -0.10989,0.59537 -0.32847,0.56443 -0.40228,-0.0569 -2.91328,2.82242 -2.80223,3.21344 0.0627,0.22119 0.0156,0.2577 -0.22569,0.17432 -0.22303,-0.077 -0.33204,-0.005 -0.4056,0.26725 -0.0554,0.2049 -0.19492,0.62355 -0.31015,0.93041 -0.1838,0.48954 -0.15889,0.55989 0.20326,0.57401 0.22699,0.009 0.11157,0.0619 -0.25641,0.11766 -0.66786,0.10134 -0.66888,0.1023 -0.52267,0.51474 0.0826,0.23319 0.0342,0.47453 -0.11129,0.55429 -0.14582,0.08 -0.19344,0.3223 -0.10989,0.55843 0.0813,0.22948 0.0791,0.4956 -0.005,0.59137 -0.22309,0.25418 -0.0402,1.45658 0.26154,1.71911 0.14241,0.1237 0.20059,0.2914 0.12958,0.37227 -0.071,0.0809 -0.0344,0.22957 0.0813,0.33024 0.11577,0.10072 0.11908,0.28719 0.008,0.41439 -0.11162,0.12722 -0.19552,0.41297 -0.18629,0.63506 0.009,0.22214 -0.0682,0.50056 -0.17195,0.61871 -0.10397,0.11794 -0.31673,0.17057 -0.47341,0.11645 -0.15663,-0.0542 -0.36969,-0.002 -0.47347,0.11651 -0.13156,0.14942 -0.25041,0.10989 -0.39209,-0.13087 -0.11895,-0.20219 -0.42725,-0.37181 -0.743,-0.40735 -0.2968,-0.0338 -0.59759,-0.17566 -0.6685,-0.31516 -0.0791,-0.15577 -0.26061,-0.16227 -0.47001,-0.0168 -0.25155,0.17479 -0.45516,0.13781 -0.77519,-0.14064 -0.23874,-0.20767 -0.49216,-0.31138 -0.56318,-0.23045 -0.0711,0.081 -0.2555,0.0373 -0.40984,-0.097 -0.15432,-0.13419 -0.3449,-0.17084 -0.42356,-0.0812 -0.0784,0.0899 -0.20429,0.0423 -0.2791,-0.10491 -0.083,-0.16303 -0.21044,-0.18311 -0.3258,-0.0517 -0.10462,0.11863 -0.28442,0.13376 -0.40019,0.033 -0.11578,-0.10071 -0.28893,-0.0937 -0.38492,0.0156 -0.0965,0.1088 -0.49748,0.18623 -0.89233,0.17083 -0.71884,-0.0278 -1.24775,0.26551 -0.84395,0.46816 0.1178,0.0595 0.13951,0.093 0.0477,0.0747 -0.0918,-0.0181 -0.17506,0.12403 -0.18493,0.31573 -0.0118,0.23051 -0.0684,0.30454 -0.16688,0.21883 -0.0823,-0.0712 -0.12977,-0.23159 -0.10609,-0.35602 0.062,-0.32455 -0.30169,-0.32897 -0.5459,-0.007 -0.27933,0.36812 -1.83221,1.40968 -2.06758,1.3867 -0.10355,-0.01 -0.18661,0.24018 -0.18477,0.55615 0.003,0.46178 -0.0496,0.55621 -0.26671,0.48123 -0.33725,-0.11649 -1.62602,0.98709 -1.6478,1.41096 -0.0112,0.21926 -0.10219,0.27745 -0.31742,0.20309 -0.42484,-0.14676 -0.45494,0.28523 -0.0448,0.64209 0.18838,0.16389 0.28093,0.36802 0.20565,0.45378 -0.0748,0.0861 -0.037,0.16997 0.0849,0.18718 0.12196,0.0172 0.16868,0.1678 0.10388,0.33466 -0.0646,0.167 -0.0278,0.38152 0.082,0.47715 0.1102,0.0954 0.14637,0.3115 0.0811,0.47973 -0.0655,0.16814 -0.0178,0.50294 0.1056,0.74386 0.12338,0.24088 0.14259,0.5962 0.0428,0.78956 -0.12364,0.23848 -0.0424,0.52239 0.25196,0.88373 0.23851,0.29254 0.51007,0.69862 0.6036,0.90218 0.26731,0.58203 1.0263,1.5106 1.84936,2.26257 0.41517,0.37975 0.82088,0.86901 0.901,1.08771 0.12493,0.34083 0.50677,0.80197 2.04193,2.46607 0.13925,0.15147 0.31744,0.45584 0.39545,0.67707 0.1575,0.44661 4.66868,4.35211 5.7649,4.99027 0.36019,0.20987 0.77514,0.49826 0.92213,0.6409 0.14653,0.14313 0.90291,0.83543 1.67978,1.5396 0.7768,0.70424 1.36899,1.3299 1.31563,1.39068 -0.0532,0.0608 0.82885,0.92681 1.96044,1.92457 1.13139,0.998 2.4982,2.2634 3.03732,2.81205 0.53884,0.54897 1.43986,1.38761 2.00197,1.86399 0.56217,0.47642 1.00248,0.96904 0.97839,1.09522 -0.0293,0.15385 0.0696,0.22919 0.30055,0.22919 0.22021,-1e-4 1.19932,0.71276 2.71469,1.97645 1.42038,1.18398 2.49972,1.97651 2.69318,1.97641 0.17757,-5e-5 0.78257,0.38438 1.34437,0.85431 0.56167,0.4701 1.1066,0.82613 1.21063,0.7916 0.3924,-0.13033 3.31716,3.04456 3.27825,3.55865 -0.013,0.17255 0.0813,0.44785 0.20971,0.61167 0.15432,0.19684 0.13237,0.40539 -0.0644,0.61481 -0.22654,0.24039 -0.21843,0.3858 0.0326,0.60415 0.22808,0.19848 0.26969,0.45546 0.1345,0.83079 -0.10767,0.2989 -0.26214,0.59185 -0.34319,0.65096 -0.081,0.0593 -0.11396,0.23496 -0.0733,0.39044 0.0603,0.23081 0.0182,0.27606 -0.22943,0.24591 -0.22157,-0.0269 -0.2845,0.0295 -0.23325,0.20947 0.0525,0.18488 -0.0189,0.26268 -0.28712,0.31276 -0.2704,0.0505 -0.35386,0.14226 -0.34421,0.37822 0.0171,0.4151 -0.40687,0.88049 -0.62815,0.69002 -0.0966,-0.0836 -0.43468,-0.0561 -0.75069,0.0607 -0.31599,0.11666 -0.8468,0.15052 -1.17956,0.0752 -0.33274,-0.0755 -0.75521,-0.10468 -0.93885,-0.0651 -0.20423,0.044 -0.4542,-0.0843 -0.64368,-0.3306 -0.1703,-0.2215 -0.38235,-0.37858 -0.47157,-0.34862 -0.20893,0.0695 -1.24135,-1.3154 -1.24893,-1.67527 -0.003,-0.18666 0.0213,-0.19277 0.0781,-0.019 0.0464,0.14132 0.15202,0.17916 0.23481,0.0849 0.0843,-0.096 0.0183,-0.2173 -0.14956,-0.2753 -0.16531,-0.0568 -0.34816,-0.32082 -0.40697,-0.58583 -0.0586,-0.26518 -0.21882,-0.57973 -0.356,-0.69906 -0.13689,-0.11964 -0.19519,-0.27874 -0.12878,-0.35438 0.0661,-0.0757 -0.0347,-0.30934 -0.22435,-0.51962 -0.2149,-0.23771 -0.28678,-0.55488 -0.19085,-0.83954 0.16691,-0.49514 -0.36785,-1.50164 -1.11962,-2.10731 -0.23931,-0.19259 -0.50896,-0.54702 -0.59947,-0.78746 -0.11512,-0.30581 -0.25929,-0.43799 -0.47986,-0.43993 -0.17346,-0.002 -0.60481,-0.30724 -0.95867,-0.67933 -0.35374,-0.37222 -1.12317,-1.1131 -1.70963,-1.64656 -0.58629,-0.53366 -1.02846,-1.01312 -0.98216,-1.06586 0.1472,-0.16771 -1.94057,-2.12959 -2.44077,-2.29357 -0.71262,-0.23359 -5.37179,-4.27063 -5.26018,-4.55796 0.0575,-0.1474 -0.30274,-0.5678 -1.02451,-1.19576 -0.61207,-0.53255 -1.30156,-1.27678 -1.53209,-1.6539 -0.35854,-0.58631 -0.48442,-0.68314 -0.8687,-0.66782 -0.35742,0.0142 -0.5556,-0.12093 -0.968,-0.65989 -0.52579,-0.68707 -1.3202,-1.27604 -2.02349,-1.5004 -0.97576,-0.31123 -3.04804,-1.52164 -4.05771,-2.37006 -0.75585,-0.63511 -1.20357,-0.90356 -1.39909,-0.83858 -0.23824,0.0792 -0.26921,0.0508 -0.17938,-0.16606 0.0818,-0.19946 0.0121,-0.27664 -0.29755,-0.32932 -0.2227,-0.0379 -0.85471,-0.43502 -1.40448,-0.88235 -0.54994,-0.44713 -1.16534,-0.84773 -1.36799,-0.88964 -0.20263,-0.0419 -0.53043,-0.21711 -0.72842,-0.38936 -0.19794,-0.17229 -0.40814,-0.25833 -0.4675,-0.19073 -0.1269,0.14453 -1.42057,-1.13917 -2.04979,-2.03424 -0.4455,-0.63354 -0.66726,-0.92246 -1.47281,-1.91891 -0.24527,-0.30341 -0.42893,-0.64083 -0.40815,-0.74973 0.0208,-0.10874 -0.11113,-0.32747 -0.29304,-0.48575 -0.1819,-0.15831 -0.29281,-0.37433 -0.24642,-0.48007 0.21105,-0.48098 -2.16796,-2.47514 -2.84887,-2.38771 -0.21327,0.0273 -0.90158,-0.50191 -2.28518,-1.75721 -1.29684,-1.17621 -2.02586,-1.74398 -2.11352,-1.64412 -0.0736,0.0836 -0.22822,0.0697 -0.344,-0.0309 -0.11577,-0.1007 -0.26008,-0.12656 -0.32069,-0.0575 -0.11595,0.13176 -1.37668,-1.08739 -1.60602,-1.55313 -0.15918,-0.32304 -0.60401,-0.86157 -1.09909,-1.33054 -0.22501,-0.21335 -0.27552,-0.38681 -0.1347,-0.46401 0.14786,-0.0813 0.0301,-0.36514 -0.3448,-0.83008 -0.81662,-1.01273 -0.83238,-1.02684 -2.1875,-1.96477 -0.67744,-0.46858 -1.47391,-1.05178 -1.76992,-1.29591 -0.29621,-0.24403 -0.58965,-0.38535 -0.65251,-0.31375 -0.0626,0.0719 -0.24647,0.0151 -0.408,-0.12537 -0.17521,-0.15243 -0.42689,-0.1631 -0.62363,-0.0265 -0.1815,0.12606 -0.35392,0.14426 -0.38342,0.0404 -0.0295,-0.10382 -0.14427,-0.0855 -0.25501,0.0407 -0.11066,0.1262 -0.28834,0.1537 -0.39464,0.0612 -0.27688,-0.2409 -0.97175,-0.0705 -1.20097,0.29458 -0.10735,0.17112 -0.32899,0.26488 -0.49233,0.20839 -0.16352,-0.0562 -0.39833,0.0129 -0.5222,0.15397 -0.1865,0.21251 -0.37365,0.13541 -1.09022,-0.44932 -0.47566,-0.38844 -0.81037,-0.76819 -0.74407,-0.84375 0.0664,-0.076 -0.0488,-0.21942 -0.25661,-0.31897 -0.30942,-0.14859 -0.31786,-0.21405 -0.0471,-0.36239 0.505,-0.27684 0.44142,-1.07643 -0.10788,-1.35582 -0.24566,-0.12476 -0.57776,-0.23053 -0.73818,-0.23473 -0.16044,-0.004 -0.32669,-0.13074 -0.36934,-0.28121 -0.0547,-0.19277 0.0505,-0.21222 0.35635,-0.0659 0.38158,0.18245 0.41529,0.16729 0.27955,-0.12568 -0.1059,-0.2286 -0.31906,-0.31222 -0.67989,-0.26554 -0.28908,0.0372 -0.52323,0.12257 -0.52046,0.18979 0.003,0.067 -0.19909,-0.0449 -0.44862,-0.24927 -0.38615,-0.31643 -1.25676,-0.51835 -0.90158,-0.20933 0.069,0.0597 -0.077,0.0982 -0.32919,0.0808 -0.28368,-0.0175 -0.43833,-0.11109 -0.41196,-0.24932 0.0232,-0.12191 -0.39938,-0.0634 -0.93921,0.12965 -0.53978,0.19311 -1.29493,0.30597 -1.67813,0.25088 -0.67519,-0.0971 -0.68927,-0.089 -0.45763,0.26565 l 0.23915,0.36594 -0.54689,0.012 c -0.3008,0.007 -0.49867,0.054 -0.43976,0.10527 0.0589,0.0514 -0.1624,0.10122 -0.49224,0.11062 -0.3297,0.01 -0.48359,0.044 -0.34201,0.0764 0.16491,0.0379 0.16179,0.16817 -0.009,0.36218 -0.14631,0.16665 -0.32911,0.24807 -0.40632,0.18089 -0.0769,-0.0673 -0.25311,0.006 -0.39104,0.16359 -0.13781,0.15723 -0.36479,0.26951 -0.50427,0.24981 -0.17626,-0.0249 -0.22831,0.0901 -0.17095,0.37755 0.0649,0.32506 0.009,0.42722 -0.2649,0.47821 -0.27176,0.0507 -0.31732,0.1242 -0.20918,0.33707 0.0764,0.14949 0.0803,0.33863 0.009,0.41955 -0.0711,0.081 -0.19048,0.0266 -0.26528,-0.12064 -0.16417,-0.32309 -0.35146,-0.13765 -0.58057,0.5754 -0.1181,0.36704 -0.24358,0.52208 -0.4063,0.5022 -0.12948,-0.0159 -0.63882,0.4087 -1.1318,0.94341 -0.77526,0.84062 -0.86453,1.0039 -0.66101,1.20697 0.21986,0.22013 0.21555,0.22569 -0.0687,0.089 -0.16768,-0.0803 -0.38754,-0.0519 -0.48894,0.0636 -0.10146,0.11532 -0.27897,0.12757 -0.39474,0.0269 -0.1514,-0.13178 -0.36902,-0.0118 -0.77606,0.42789 -0.31079,0.33636 -0.60048,0.66385 -0.64103,0.73025 -0.0427,0.0645 -0.3902,0.15882 -0.77277,0.20906 -0.38267,0.0502 -0.75349,0.15713 -0.82407,0.23754 -0.0706,0.0804 -0.31326,0.13488 -0.53915,0.12095 -0.34656,-0.0213 -0.44625,0.0647 -0.63774,0.5501 -0.20308,0.5149 -0.27319,0.56259 -0.66661,0.45393 -0.31127,-0.086 -0.55284,0.008 -0.82742,0.32036 -0.21332,0.24304 -0.58997,0.46059 -0.83698,0.4836 -0.24703,0.023 -0.58127,0.19239 -0.74285,0.37645 -0.16151,0.18401 -0.51739,0.34416 -0.7908,0.35603 -0.27336,0.0118 -0.54465,0.1442 -0.60299,0.29422 -0.0616,0.1593 -0.19266,0.19729 -0.31499,0.0909 -0.11506,-0.10004 -0.35133,-0.10129 -0.52519,-0.003 -0.60326,0.34207 -1.45645,0.61461 -1.58211,0.50529 -0.0696,-0.0602 -0.37116,0.0858 -0.67048,0.32503 -0.37605,0.30038 -0.6203,0.36881 -0.79001,0.22115 -0.17885,-0.15552 -0.32309,-0.10446 -0.53012,0.18765 -0.1924,0.27118 -0.3536,0.3412 -0.49752,0.21599 -0.12975,-0.11282 -0.25643,-0.0741 -0.32374,0.0994 -0.061,0.15652 -0.20554,0.2712 -0.32114,0.25499 -0.11559,-0.0165 -0.39805,0.17988 -0.6272,0.43602 -0.3824,0.42497 -0.41308,0.42873 -0.37538,0.0319 0.0232,-0.24363 -0.051,-0.40318 -0.16912,-0.36395 -0.11571,0.0385 -0.15984,0.1716 -0.098,0.29601 0.15557,0.31324 -2.07275,0.44859 -2.41942,0.14697 -0.1868,-0.1625 -0.30629,-0.14186 -0.38733,0.0669 -0.0686,0.1769 -0.35428,0.3155 -0.6897,0.3348 -0.31487,0.0182 -0.6199,0.15508 -0.67778,0.30425 -0.0582,0.14901 -0.16528,0.21904 -0.23851,0.15534 -0.0733,-0.0638 -0.31553,0.0132 -0.53833,0.17119 -0.22265,0.15809 -0.56129,0.22219 -0.75229,0.14283 -0.1911,-0.0792 -0.36496,-0.0513 -0.3866,0.0622 -0.0215,0.11372 -0.11089,0.14438 -0.19803,0.0685 -0.0915,-0.0799 -0.15126,0.0405 -0.14114,0.28511 0.0231,0.55817 -0.0168,0.58533 -0.57323,0.39119 -0.26043,-0.0909 -0.55589,-0.0715 -0.65665,0.0433 -0.10081,0.11463 -0.31127,0.16437 -0.46795,0.11025 -0.46624,-0.16107 -0.85985,0.45305 -0.50211,0.78347 l 0.30781,0.2836 -0.44457,-0.14594 c -0.24457,-0.0802 -0.4647,-0.0405 -0.4893,0.0884 -0.0245,0.12879 -0.17807,0.25904 -0.3403,0.29004 -0.203,0.0381 -0.37025,0.30756 -0.5323,0.85756 -0.12997,0.44116 -0.33465,0.83473 -0.45479,0.87457 -0.12002,0.0401 -0.38713,0.2755 -0.59324,0.52342 -0.27982,0.3368 -0.37802,0.37325 -0.38734,0.14473 -0.007,-0.16837 -0.0791,-0.36363 -0.16033,-0.43382 -0.17272,-0.15029 -2.27212,2.00156 -2.3497,2.40847 -0.0283,0.14828 -0.74794,1.04365 -1.59925,1.98964 -0.89193,0.9917 -1.49188,1.76852 -1.4159,1.83462 0.0725,0.0631 -0.0324,0.29305 -0.23293,0.51112 -1.13175,1.22984 -3.38633,4.20962 -3.48819,4.60985 -0.0888,0.34847 -0.17248,0.4464 -0.32822,0.3846 -0.11552,-0.0457 -0.37924,0.10972 -0.58645,0.34576 -0.20723,0.23602 -0.43987,0.37428 -0.51704,0.30713 -0.077,-0.0673 -0.36939,0.13894 -0.64942,0.45793 -0.27999,0.31895 -0.59101,0.5682 -0.69072,0.55426 -0.10021,-0.0138 -0.53974,0.48943 -0.97485,1.12111 -0.52704,0.75814 -0.93313,1.19973 -1.20282,1.30761 -0.22389,0.0897 -0.42693,0.26745 -0.45128,0.39503 -0.0244,0.12764 -0.28001,0.26595 -0.5679,0.30755 -0.40384,0.0582 -0.69035,0.2799 -1.25322,0.96962 -0.57248,0.702 -0.77426,0.85548 -0.93641,0.71439 -0.11375,-0.0988 -0.28907,-0.086 -0.38973,0.0287 -0.10072,0.11452 -0.26989,0.17387 -0.376,0.1316 -0.10608,-0.0424 -0.57947,0.31509 -1.05171,0.79413 -0.4725,0.47872 -1.0267,0.9758 -1.23208,1.10396 -0.31082,0.19398 -0.31538,0.25521 -0.0273,0.36463 0.32241,0.12245 0.31423,0.13037 -0.11992,0.11591 -0.25659,-0.009 -0.53422,-0.073 -0.61703,-0.14281 -0.0819,-0.0709 -0.1122,0.0195 -0.0653,0.1987 0.0568,0.21716 0.0261,0.27569 -0.0923,0.17528 -0.11658,-0.10147 -0.39372,0.0962 -0.82325,0.58547 -0.39142,0.44596 -0.58387,0.78975 -0.48844,0.87278 0.10656,0.0919 0.0598,0.15779 -0.14246,0.20047 -0.16482,0.0351 -0.64523,0.38181 -1.06761,0.77051 -0.58354,0.53716 -0.73743,0.76679 -0.64134,0.95597 0.0697,0.13692 0.002,0.31766 -0.15127,0.40141 -0.15281,0.0837 -0.24116,0.28744 -0.19622,0.45273 0.045,0.16524 0.0174,0.24679 -0.0611,0.18123 -0.0769,-0.0673 -0.46656,0.21174 -0.86222,0.61617 -0.39575,0.40426 -0.82519,0.74517 -0.95467,0.75715 -0.12944,0.0121 -0.27577,0.12614 -0.32527,0.25345 -0.0493,0.12737 -0.37948,0.26954 -0.73347,0.31599 -0.35401,0.0465 -0.83056,0.26661 -1.05911,0.48916 -0.22875,0.22239 -0.49744,0.37228 -0.59764,0.3327 -0.10031,-0.0394 -0.43546,0.21665 -0.74507,0.56934 -0.30963,0.35269 -0.6623,0.62727 -0.78387,0.61005 -0.12172,-0.0169 -0.32461,0.16489 -0.45136,0.40464 -0.12659,0.23981 -0.37002,0.46184 -0.54033,0.49381 -0.50312,0.0939 -1.79845,1.33268 -1.92877,1.84451 -0.0964,0.37886 -0.15421,0.42133 -0.34616,0.25434 -0.15824,-0.1377 -0.27006,-0.0983 -0.35709,0.12576 -0.0843,0.21701 -0.33741,0.32284 -0.7552,0.31634 -0.69345,-0.0111 -0.91931,0.19252 -2.90021,2.61472 -0.59524,0.72803 -1.16751,1.32992 -1.26837,1.3406 -0.30325,0.0283 -0.80172,0.69257 -0.6311,0.84101 0.10741,0.0928 0.0609,0.157 -0.14352,0.19957 -0.56008,0.11583 -1.63769,1.22523 -2.42573,2.49734 -0.50294,0.81177 -0.98173,1.40339 -1.33574,1.6504 -0.37324,0.26052 -0.55757,0.49875 -0.56993,0.73628 -0.0143,0.27936 -0.0669,0.30873 -0.25675,0.14357 -0.18666,-0.16236 -0.29868,-0.10395 -0.51288,0.26755 -0.151,0.26118 -0.47595,0.76682 -0.72265,1.12323 -0.24665,0.35636 -0.42147,0.78832 -0.38841,0.95979 0.0842,0.43705 -0.77808,1.43024 -1.50426,1.73271 -0.33457,0.13941 -0.68924,0.41009 -0.78815,0.60165 -0.099,0.19145 -0.28695,0.31133 -0.4186,0.2657 -0.25022,-0.0864 -1.10062,1.04277 -1.20764,1.60341 -0.0294,0.15391 -0.20432,0.30815 -0.3892,0.3425 -0.24658,0.0461 -0.31785,0.12589 -0.26578,0.30277 0.0372,0.13084 -0.045,0.29961 -0.18262,0.37502 -0.13778,0.0753 -0.22896,0.21097 -0.20405,0.30035 0.0256,0.0898 -0.21803,0.43661 -0.54122,0.77026 -0.32289,0.33402 -0.59556,0.71671 -0.60479,0.8515 -0.0286,0.40821 -0.91185,1.66115 -2.26822,3.21755 -2.15789,2.47623 -3.15581,3.3321 -3.29861,2.82918 -0.031,-0.10899 -0.1705,-0.0682 -0.30965,0.0903 -0.16677,0.1899 -0.44814,0.21421 -0.82322,0.071 -0.32103,-0.12253 -0.58944,-0.1151 -0.61465,0.017 -0.0492,0.2576 -1.09123,0.32533 -1.37808,0.0895 -0.0966,-0.0837 -0.26207,-0.0538 -0.36272,0.0608 -0.10071,0.11452 -0.13338,0.31053 -0.0728,0.43522 0.0605,0.12493 -0.0365,0.10847 -0.21565,-0.0362 -0.17946,-0.14442 -0.39024,-0.18968 -0.46885,-0.10011 -0.0787,0.0902 -0.20913,0.0329 -0.29063,-0.12755 -0.0812,-0.15971 -0.29993,-0.29041 -0.48619,-0.29035 -0.18619,9e-5 -0.44413,-0.15905 -0.57326,-0.3536 -0.12916,-0.1945 -0.34583,-0.36052 -0.48206,-0.36852 -0.13594,-0.008 -0.60779,-0.4287 -1.04838,-0.93458 z m 108.24447,95.01513 c 0.0235,-0.12228 0.10906,-0.16465 0.19103,-0.0933 0.0819,0.0709 0.0905,0.19546 0.0195,0.27641 -0.0711,0.081 -0.15721,0.12285 -0.19109,0.0934 -0.0342,-0.029 -0.0428,-0.15402 -0.0193,-0.27647 z m -68.6663,-57.31967 c -0.004,-0.0984 0.0526,-0.2479 0.12607,-0.33153 0.0808,-0.0924 0.13867,-0.0267 0.1466,0.16658 0.007,0.17526 -0.0495,0.32446 -0.1261,0.33154 -0.0766,0.008 -0.14279,-0.0675 -0.14652,-0.16665 z m 59.24275,53.89551 c 0.0893,-0.009 0.21532,0.0916 0.27913,0.22239 0.0705,0.1445 0.007,0.15026 -0.16285,0.0151 -0.15315,-0.12257 -0.20591,-0.22904 -0.11627,-0.23752 z m -34.95139,-26.01162 c 0.13245,0.043 0.29028,0.18027 0.35067,0.30521 0.0605,0.12494 -0.0477,0.0894 -0.2405,-0.0784 -0.19291,-0.16784 -0.24261,-0.26971 -0.11022,-0.22679 z m -22.75939,-12.6217 c 0.0711,-0.0809 0.15715,-0.12278 0.19103,-0.0933 0.0342,0.029 0.0428,0.15389 0.0195,0.2764 -0.0235,0.12229 -0.10906,0.16464 -0.19103,0.0933 -0.0819,-0.0709 -0.0905,-0.19548 -0.0194,-0.27642 z m 64.60311,62.84095 c 0.13618,-0.15553 0.4629,0.0136 0.42365,0.21922 -0.0236,0.12464 -0.14132,0.14087 -0.26188,0.036 -0.12072,-0.10423 -0.19296,-0.21969 -0.1618,-0.25519 z m -42.01758,-36.7019 c 0.0711,-0.0809 0.19239,-0.0922 0.2695,-0.0252 0.077,0.0673 0.0822,0.18828 0.0111,0.26925 -0.071,0.0809 -0.19227,0.0922 -0.26946,0.0251 -0.0769,-0.0673 -0.0822,-0.18828 -0.0111,-0.2692 z m 39.45747,35.10811 c 0.0711,-0.081 0.19232,-0.0923 0.26949,-0.0251 0.077,0.0673 0.0822,0.18827 0.0111,0.26925 -0.071,0.0809 -0.19234,0.0922 -0.26946,0.0251 -0.077,-0.0673 -0.0822,-0.18827 -0.0111,-0.2692 z m -7.64491,-6.65135 c 0.0235,-0.12459 0.14132,-0.14087 0.26191,-0.036 0.24645,0.21441 0.20515,0.33429 -0.10019,0.29112 -0.11264,-0.016 -0.18528,-0.13098 -0.16176,-0.25513 z m -3.4846,-1.50068 c -0.11677,-0.23834 -0.14474,-0.4396 -0.0622,-0.44728 0.0822,-0.008 0.23976,0.24386 0.34955,0.55886 0.22082,0.63394 0.0443,0.56539 -0.28732,-0.11158 z m 11.06353,11.47765 c 0.022,-0.11646 0.23836,-0.17071 0.48094,-0.12036 0.40431,0.0837 0.40569,0.10508 0.0166,0.26095 -0.47378,0.18983 -0.55609,0.1665 -0.49751,-0.14059 z m -21.534,-18.74808 c 0.071,-0.0809 0.15716,-0.12279 0.19103,-0.0933 0.0342,0.029 0.0428,0.15401 0.0194,0.27641 -0.0234,0.12234 -0.10906,0.16464 -0.19103,0.0933 -0.0819,-0.0709 -0.0905,-0.19548 -0.0194,-0.27642 z m 16.42616,14.55089 c 0.071,-0.0809 0.15717,-0.12279 0.19104,-0.0933 0.0342,0.029 0.0428,0.15397 0.0195,0.27643 -0.0236,0.12234 -0.10913,0.16459 -0.19104,0.0933 -0.0819,-0.0709 -0.0905,-0.19546 -0.0195,-0.27641 z m -24.43776,-20.22355 c 0.0235,-0.12228 0.14103,-0.1368 0.26122,-0.0322 0.12068,0.10419 0.16055,0.25649 0.0895,0.33742 -0.0711,0.081 -0.1886,0.0955 -0.2612,0.0324 -0.0726,-0.0632 -0.1129,-0.21505 -0.0895,-0.33753 z m -18.09855,-13.91418 c 0.0748,-0.0862 0.19993,-0.10092 0.27709,-0.0338 0.0769,0.0673 0.1145,0.15142 0.0833,0.18697 -0.0312,0.0353 -0.15598,0.0509 -0.27709,0.0338 -0.12096,-0.0172 -0.15878,-0.10098 -0.0833,-0.18697 z m 38.33155,33.85364 c 0.0711,-0.081 0.19233,-0.0922 0.26945,-0.0251 0.077,0.0674 0.0822,0.18821 0.0112,0.2692 -0.071,0.0809 -0.19227,0.0922 -0.26945,0.0251 -0.0769,-0.0673 -0.0822,-0.18827 -0.0111,-0.2692 z"
      id="path3331" style="fill:#FFB81A" />
</svg>