<?xml version="1.0" encoding="UTF-8" standalone="no"?>
<!-- Created with Inkscape (http://www.inkscape.org/) -->

<svg xmlns:dc="http://purl.org/dc/elements/1.1/" xmlns:cc="http://creativecommons.org/ns#"
   xmlns:rdf="http://www.w3.org/1999/02/22-rdf-syntax-ns#" xmlns:svg="http://www.w3.org/2000/svg"
   xmlns="http://www.w3.org/2000/svg" xmlns:sodipodi="http://sodipodi.sourceforge.net/DTD/sodipodi-0.dtd"
   xmlns:inkscape="http://www.inkscape.org/namespaces/inkscape" version="1.1" width="600" height="600" id="svg2"
   inkscape:version="0.48.3.1 r9886" sodipodi:docname="colorful-paint-splash-1.svg">
   <sodipodi:namedview pagecolor="#ffffff" bordercolor="#666666" borderopacity="1" objecttolerance="10"
      gridtolerance="10" guidetolerance="10" inkscape:pageopacity="0" inkscape:pageshadow="2"
      inkscape:window-width="1855" inkscape:window-height="1056" id="namedview10" showgrid="false"
      inkscape:zoom="0.92956192" inkscape:cx="720.90323" inkscape:cy="315.96211" inkscape:window-x="65"
      inkscape:window-y="24" inkscape:window-maximized="1" inkscape:current-layer="svg2" />
   <metadata id="metadata8">
      <rdf:RDF>
         <cc:Work rdf:about="">
            <dc:format>image/svg+xml</dc:format>
            <dc:type rdf:resource="http://purl.org/dc/dcmitype/StillImage" />
            <dc:title />
         </cc:Work>
      </rdf:RDF>
   </metadata>
   <defs id="defs6" />
   <path inkscape:connector-curvature="0"
      d="m 332.32536,96.0774 c -0.20914,-0.231088 -0.31137,-0.489139 -0.2272,-0.573313 0.0838,-0.08383 0.18174,-0.421558 0.21674,-0.749524 0.0657,-0.615053 0.65688,-1.219996 1.20496,-1.232786 0.22357,-0.0086 0.26998,0.171199 0.1642,0.623696 -0.24232,1.036525 -0.63208,1.893124 -0.86152,1.893124 -0.11831,0 -0.15133,0.103272 -0.0735,0.229533 0.23014,0.372298 -0.0138,0.262717 -0.42381,-0.19073 z m 3.70441,1.123637 c -0.10682,-0.727918 0.2857,-1.22086 1.15285,-1.447627 0.51506,-0.134643 0.68894,0.14147 0.25718,0.408336 -0.13369,0.08296 -0.21432,0.372645 -0.17923,0.64461 0.0838,0.651177 -0.19402,1.068069 -0.71263,1.068069 -0.28838,0 -0.45016,-0.210261 -0.51817,-0.673388 z m -100.00219,4.587883 c 0,-0.11874 0.10327,-0.27974 0.22945,-0.35778 0.12626,-0.0778 0.22953,0.019 0.22953,0.21596 0,0.19678 -0.10327,0.35779 -0.22953,0.35779 -0.12618,0 -0.22945,-0.0972 -0.22945,-0.21597 z m 3.75099,14.17303 c 0.0674,-0.21165 -0.0251,-0.50729 -0.20534,-0.65706 -0.18036,-0.14976 -0.27836,-0.35251 -0.21778,-0.45059 0.0605,-0.0981 -0.14639,-0.34655 -0.46001,-0.55206 -0.31362,-0.2055 -0.54505,-0.4983 -0.51429,-0.65066 0.0302,-0.15244 -0.16117,-0.3105 -0.4264,-0.35138 -0.38189,-0.0588 -0.45898,-0.19652 -0.37014,-0.66094 0.0614,-0.32261 0.0104,-0.653 -0.11459,-0.73423 -0.26004,-0.16947 -1.38022,-2.01489 -1.58694,-2.61448 -0.0761,-0.22089 -0.2259,-0.40159 -0.3328,-0.40159 -0.1069,0 -0.18503,-0.46417 -0.17362,-1.03143 0.0112,-0.56726 -0.0974,-1.17376 -0.2418,-1.34772 -0.14441,-0.17397 -0.19808,-0.4843 -0.11926,-0.68964 0.0964,-0.25114 0.0199,-0.37325 -0.23273,-0.37325 -0.20681,0 -0.44438,-0.1807 -0.52803,-0.40159 -0.0838,-0.22089 -0.28787,-0.53901 -0.4538,-0.70692 -0.16601,-0.16792 -0.24318,-0.4003 -0.17145,-0.51628 0.0717,-0.11606 -0.0432,-0.21095 -0.25546,-0.21095 -0.31699,0 -0.33479,-0.0614 -0.10016,-0.34421 0.2609,-0.3144 0.16204,-0.4423 -0.28683,-0.37144 -0.65818,0.10397 0.34767,-1.46136 1.21801,-1.89554 0.55991,-0.27931 0.69482,-0.28052 0.92098,-0.009 0.14579,0.17561 0.35666,0.26272 0.46848,0.19358 0.11192,-0.0691 0.20352,0.17906 0.20352,0.55162 0,0.39054 0.14579,0.73337 0.34422,0.8095 0.18926,0.0726 0.34421,0.34508 0.34421,0.60546 0,0.2603 0.15486,0.53278 0.34421,0.60546 0.18926,0.0726 0.34421,0.28199 0.34421,0.4652 0,0.1833 0.0949,0.27456 0.21095,0.20283 0.11607,-0.0717 0.3303,0.23118 0.47618,0.67313 0.14579,0.44187 0.40203,0.88175 0.56934,0.97733 0.16722,0.0957 0.36141,0.74183 0.43141,1.43596 0.07,0.69413 0.13188,1.28792 0.13758,1.31947 0.009,0.0311 0.17621,0.057 0.37904,0.057 0.24301,0 0.32088,0.12461 0.22849,0.36538 -0.0943,0.24569 0.0147,0.406 0.33264,0.48914 0.26047,0.0683 0.42259,0.25468 0.36097,0.41525 -0.0613,0.1604 -0.0415,0.36193 0.0441,0.44792 0.14752,0.14752 0.17215,0.23057 0.24232,0.8165 0.0156,0.13179 0.20292,0.20922 0.41594,0.17215 0.43305,-0.0752 0.60953,0.51765 0.8655,2.90804 0.14519,1.3555 0.12471,1.44547 -0.357,1.57147 -0.28104,0.0735 -0.71401,0.0251 -0.96203,-0.10777 -0.33695,-0.18036 -0.5072,-0.16281 -0.67296,0.0691 -0.17137,0.23982 -0.19401,0.22288 -0.0992,-0.0743 z m 107.39147,25.172 c 0.14588,-0.31302 0.38855,-0.5454 0.53927,-0.51628 0.15071,0.0294 0.43279,-0.15365 0.62672,-0.40609 0.30437,-0.39623 0.38414,-0.41188 0.5829,-0.11476 0.34767,0.51956 0.30446,0.60356 -0.57893,1.12476 -1.13954,0.67235 -1.51114,0.64452 -1.16996,-0.0876 z m -1.45575,0.33972 c 0,-0.12618 0.10319,-0.22945 0.22945,-0.22945 0.12617,0 0.22944,0.10327 0.22944,0.22945 0,0.12617 -0.10327,0.22944 -0.22944,0.22944 -0.12626,0 -0.22945,-0.10327 -0.22945,-0.22944 z m -49.40945,-0.0897 c -0.0867,-0.22582 -0.089,-0.52155 -0.009,-0.65714 0.0838,-0.1356 0.17596,-0.54592 0.20473,-0.91191 0.038,-0.47946 -0.0346,-0.63208 -0.259,-0.546 -0.51489,0.19764 -0.60451,-0.27707 -0.10301,-0.5454 0.25598,-0.13698 0.46537,-0.40773 0.46537,-0.60166 0,-0.31086 0.0398,-0.3125 0.33894,-0.0138 0.49398,0.49406 0.48145,2.53445 -0.0173,2.85766 -0.13879,0.09 -0.30057,0.31319 -0.35942,0.49614 -0.0847,0.26254 -0.14026,0.24604 -0.26462,-0.0778 z m 49.93048,0.63951 c 0.0761,-0.0761 0.27421,-0.0847 0.43988,-0.0182 0.18304,0.0735 0.12868,0.12764 -0.1387,0.13862 -0.24189,0.01 -0.3774,-0.0441 -0.30118,-0.12047 z m -49.16869,0.35449 c 0,-0.25977 0.10327,-0.40859 0.22945,-0.33064 0.12626,0.0778 0.22944,0.29063 0.22944,0.47255 0,0.18183 -0.10318,0.33064 -0.22944,0.33064 -0.12618,0 -0.22945,-0.21259 -0.22945,-0.47255 z m -0.09,2.57784 c -0.2049,-0.33151 0.0363,-1.18742 0.33488,-1.18742 0.25001,0 0.25304,0.39157 0.009,1.01743 -0.12047,0.30757 -0.22564,0.35968 -0.34283,0.16999 z m 50.11439,0.41888 c 0,-0.12618 0.161,-0.22945 0.35778,-0.22945 0.19677,0 0.29391,0.10327 0.21587,0.22945 -0.0778,0.12617 -0.23895,0.22944 -0.35769,0.22944 -0.11883,0 -0.21596,-0.10327 -0.21596,-0.22944 z m -17.43972,0.96116 c 0,-0.27628 0.12099,-0.50218 0.26877,-0.50218 0.14786,0 0.45829,-0.17155 0.68981,-0.38112 0.2316,-0.20957 0.497,-0.30506 0.58981,-0.21225 0.0929,0.0928 -0.013,0.27033 -0.23437,0.39443 -0.22175,0.1241 -0.60814,0.44558 -0.85858,0.71443 l -0.45544,0.48888 0,-0.50219 z m -32.35526,0.19773 c 0,-0.34913 0.27118,-0.92945 0.43435,-0.92945 0.28449,0 0.16091,0.90456 -0.13931,1.01976 -0.1623,0.0622 -0.29504,0.0216 -0.29504,-0.0903 z m 30.66626,1.43553 c -0.2584,-0.25848 -0.15737,-0.52915 0.19747,-0.52915 0.18935,0 0.34421,0.0971 0.34421,0.21588 0,0.28933 -0.35838,0.49657 -0.54168,0.31327 z m -50.52117,-0.0795 c -0.0812,-0.13136 -0.33263,-0.1801 -0.55879,-0.10828 -0.29374,0.0933 -0.45111,-0.019 -0.55119,-0.39226 -0.24094,-0.89921 -0.16411,-1.09642 0.42735,-1.09642 0.59544,0 0.78867,0.34836 0.28683,0.51723 -0.224,0.0752 -0.2183,0.17958 0.0259,0.47557 0.17207,0.20844 0.40437,0.32235 0.51628,0.25321 0.11191,-0.0691 0.20352,0.0354 0.20352,0.23195 0,0.41378 -0.13871,0.46088 -0.35,0.119 z m 49.22711,0.7223 c 0,-0.23264 0.69888,-0.54946 0.85893,-0.38941 0.0579,0.0579 0.0372,0.21493 -0.0467,0.34957 -0.18304,0.29625 -0.81253,0.32711 -0.81253,0.0397 z m 6.29452,10.50544 c -0.0867,-0.14035 -0.0181,-0.34128 0.15218,-0.44662 0.24535,-0.15167 0.22357,-0.22452 -0.10465,-0.35053 -0.252,-0.0967 -0.31872,-0.21803 -0.17025,-0.30981 0.28856,-0.17837 0.51161,-2.76839 0.23843,-2.76839 -0.1031,0 -0.25234,0.10491 -0.33159,0.23316 -0.0795,0.12833 -0.24111,0.17336 -0.35951,0.10016 -0.12056,-0.0743 -0.0631,-0.28545 0.13058,-0.47911 0.19021,-0.1903 0.34594,-0.47333 0.34594,-0.62906 0,-0.34473 2.14729,-2.43774 2.50092,-2.43774 0.13905,0 0.25269,-0.15487 0.25269,-0.34422 0,-0.18926 0.14311,-0.34421 0.31803,-0.34421 0.17483,0 0.61376,-0.15426 0.97525,-0.34283 0.78193,-0.40781 1.23089,-0.44083 1.23089,-0.0906 0,0.1661 0.27395,0.20361 0.7853,0.10768 0.89108,-0.16713 1.3441,0.23196 0.75341,0.66388 -0.20196,0.1477 -0.53753,1.01709 -0.74563,1.93202 -0.36642,1.61113 -0.4353,1.71864 -2.18531,3.40911 -2.07988,2.00901 -3.39192,2.73572 -3.78668,2.09707 z m 53.82657,-5.82586 c 0,-0.22253 -0.88123,-0.9928 -0.99997,-0.87406 -0.18788,0.18788 0.38811,0.98883 0.71098,0.98883 0.15893,0 0.28899,-0.0519 0.28899,-0.11477 z m -1.78795,7.76159 c -0.23524,-0.0945 -0.23826,-0.18901 -0.0147,-0.45838 0.22504,-0.2711 0.21544,-0.38128 -0.0475,-0.54782 -0.18123,-0.11468 -0.51014,-0.21008 -0.73103,-0.21199 -0.24743,0 -0.4016,-0.17966 -0.4016,-0.46243 0,-0.25244 -0.10327,-0.45898 -0.22945,-0.45898 -0.12617,0 -0.22944,-0.20646 -0.22944,-0.45889 0,-0.25244 -0.15089,-0.45898 -0.33531,-0.45898 -0.66017,0 -1.27099,-0.95814 -1.27099,-1.99372 0,-0.54419 -0.10897,-0.98934 -0.24223,-0.98934 -0.15495,0 -0.19989,-0.4582 -0.12471,-1.27211 0.0975,-1.05588 0.0415,-1.34841 -0.33142,-1.72106 -0.24708,-0.2469 -0.44904,-0.70709 -0.44904,-1.02261 0,-0.31552 -0.11433,-0.57366 -0.25408,-0.57366 -0.13965,0 -0.19582,-0.15158 -0.1247,-0.33686 0.0709,-0.18529 0.0216,-0.40341 -0.11019,-0.48482 -0.1317,-0.0812 -0.18848,-0.34301 -0.12617,-0.58135 0.0622,-0.23835 0.0199,-0.3755 -0.0947,-0.30481 -0.11442,0.0709 -0.21769,0.0449 -0.22944,-0.057 -0.19298,-1.67431 -0.13473,-2.11678 0.33107,-2.51621 0.27594,-0.23654 0.84753,-0.42303 1.29666,-0.42303 0.65817,0 0.81632,0.0932 0.87647,0.51627 0.0406,0.28398 0.22098,0.51637 0.40151,0.51637 0.19721,0 0.32822,0.2291 0.32822,0.57365 0,0.31553 0.11451,0.57366 0.25443,0.57366 0.15668,0 0.19902,0.2202 0.11035,0.57366 -0.11692,0.46581 -0.0596,0.57366 0.30576,0.57366 0.34637,0 0.49363,0.22443 0.64029,0.97525 0.13222,0.67702 0.34698,1.04457 0.70199,1.20177 0.2813,0.12461 0.51144,0.35691 0.51144,0.51636 0,0.15936 0.18787,0.28976 0.41749,0.28976 0.53425,0 1.41825,1.00922 1.41825,1.61909 0,0.30774 0.24725,0.57228 0.72092,0.77147 0.39658,0.16671 0.59716,0.34439 0.44584,0.39486 -0.39434,0.13144 -0.0622,0.84156 0.4728,1.01138 0.36591,0.11615 0.39771,0.2055 0.17051,0.47928 -0.22772,0.27447 -0.1947,0.35865 0.17915,0.45639 0.33479,0.0875 0.45846,0.31319 0.45846,0.8362 0,0.39391 0.12047,0.75644 0.26764,0.80553 0.41871,0.13948 0.31449,0.85539 -0.19116,1.31307 -0.25243,0.22841 -0.4671,0.58005 -0.47704,0.78132 -0.0121,0.23723 -0.0588,0.26506 -0.13386,0.0795 -0.14104,-0.34948 -0.76595,-0.38361 -0.76595,-0.0415 0,0.13473 -0.19194,0.18399 -0.42657,0.10959 -0.24621,-0.0778 -0.54911,0.0121 -0.71651,0.21397 -0.27931,0.33661 -1.61027,0.45138 -2.25116,0.19427 z m -24.77317,2.10658 c -0.33583,-0.38146 -0.38181,-1.03359 -0.0726,-1.03359 0.11771,0 0.27957,-0.20646 0.3596,-0.45872 0.11831,-0.37273 0.22884,-0.4143 0.58913,-0.22141 0.48827,0.26125 0.57331,0.92686 0.20602,1.61312 -0.27836,0.52008 -0.67978,0.55742 -1.0819,0.1006 z m -26.44645,1.85899 c 0,-0.3469 0.71236,-1.51573 0.92384,-1.51573 0.12288,0 0.22356,-0.13188 0.22356,-0.29305 0,-0.52596 2.55243,-2.98142 3.36824,-3.24033 0.2717,-0.0864 0.56052,-0.0493 0.64167,0.0821 0.22746,0.36797 0.80889,0.2825 0.80889,-0.119 0,-0.1967 0.10328,-0.29392 0.22954,-0.21588 0.12617,0.0778 0.22944,0.34836 0.22944,0.60071 0,0.25243 0.10327,0.39511 0.22945,0.31716 0.4041,-0.24976 0.2488,1.17497 -0.19039,1.74742 -0.23091,0.301 -0.48585,0.728 -0.56648,0.94881 -0.10094,0.27654 -0.39313,0.40159 -0.93818,0.40159 -0.43539,0 -0.94734,0.0596 -1.13781,0.13283 -0.25995,0.0998 -0.31518,0.0138 -0.2215,-0.34421 0.16826,-0.64323 -0.26626,-0.60823 -1.00999,0.0812 -0.33134,0.30714 -0.86896,0.62499 -1.19476,0.70623 -0.32581,0.0812 -0.77303,0.31068 -0.99392,0.5097 -0.22089,0.19903 -0.4016,0.28916 -0.4016,0.20024 z m -102.65469,4.85172 c -0.0795,-0.30299 -0.2431,-0.41378 -0.47833,-0.32356 -0.21813,0.0838 -0.35796,0.013 -0.35796,-0.18053 0,-0.17483 -0.1215,-0.35838 -0.27006,-0.4079 -0.14856,-0.0493 -0.20006,-0.20335 -0.11451,-0.3418 0.23749,-0.38431 1.073,-0.0674 1.073,0.40679 0,0.23031 0.11926,0.49233 0.26496,0.58238 0.15807,0.0977 0.20283,0.0631 0.11097,-0.0856 -0.20422,-0.33047 0.23091,-0.58437 0.60062,-0.3506 0.22158,0.14008 0.17146,0.30212 -0.20819,0.67295 -0.49527,0.48378 -0.50106,0.48404 -0.6205,0.0277 z m 0.82627,0.45924 c 0.0519,-0.15772 0.34447,-0.31569 0.65014,-0.35095 0.53814,-0.0622 0.54159,-0.0527 0.11027,0.28691 -0.53935,0.42493 -0.88901,0.4544 -0.76041,0.064 z m 12.8482,0.25667 c 0.10284,-0.2921 1.47502,-0.35286 1.75044,-0.0778 0.24734,0.24733 -0.19202,0.35665 -0.5861,0.14579 -0.28614,-0.15314 -0.56709,-0.15037 -0.85098,0.009 -0.3284,0.18382 -0.399,0.16644 -0.31336,-0.0769 z m 11.87831,3.25632 c 0,-0.13369 0.10327,-0.24302 0.22945,-0.24302 0.12626,0 0.22953,0.0458 0.22953,0.1012 0,0.0553 -0.10327,0.16498 -0.22953,0.24302 -0.12618,0.0778 -0.22945,0.032 -0.22945,-0.1012 z m 1.75978,4.59765 c -0.11001,-0.55007 -0.24716,-0.72334 -0.49692,-0.6275 -0.2291,0.0879 -0.34499,-0.009 -0.34499,-0.28536 0,-0.22971 -0.31794,-0.75039 -0.70648,-1.157 -0.45423,-0.47531 -0.65507,-0.87327 -0.56243,-1.11456 0.0919,-0.23964 -0.0467,-0.52207 -0.38353,-0.78124 l -0.52751,-0.40583 0.50279,-0.009 c 0.27646,0 0.56658,0.0982 0.64453,0.22435 0.0778,0.12626 0.36815,0.23108 0.64461,0.23299 0.36287,0 0.41767,0.057 0.19669,0.19755 -0.24613,0.15608 -0.23455,0.2215 0.0596,0.33428 0.20101,0.0769 0.33877,0.25813 0.30601,0.40211 -0.0328,0.14406 0.19246,0.30411 0.50029,0.35579 0.70381,0.11814 0.68609,0.0967 0.78599,0.95452 0.0458,0.39485 -0.032,0.76534 -0.17215,0.82324 -0.1406,0.0579 -0.0674,0.11355 0.16265,0.12349 0.27049,0.0121 0.39105,0.16014 0.3411,0.41966 -0.0423,0.22089 -0.16878,0.35 -0.28052,0.28683 -0.11183,-0.0631 -0.27395,0.087 -0.36046,0.33349 -0.12998,0.37066 -0.18347,0.31673 -0.30921,-0.31171 z m -82.30166,4.73056 c -0.63994,-0.32373 -0.98666,-1.24359 -0.38128,-1.01129 0.25433,0.0976 0.31647,0.0337 0.21803,-0.22245 -0.10301,-0.2685 -0.0276,-0.32796 0.29859,-0.23601 0.2399,0.0674 0.66872,0.18987 0.95278,0.27153 0.28415,0.0821 0.61194,0.32659 0.72844,0.54436 0.1686,0.31509 0.11079,0.4035 -0.28363,0.43314 -0.27257,0.0207 -0.53157,0.14519 -0.57548,0.27707 -0.1024,0.30722 -0.25692,0.29815 -0.95745,-0.0562 z m 46.2361,12.81208 c -0.3786,-0.13378 -1.02399,-0.41525 -1.43414,-0.62534 -0.41024,-0.21017 -0.74581,-0.28674 -0.74581,-0.17016 0,0.11649 -0.15487,0.21181 -0.34421,0.21181 -0.18926,0 -0.34421,-0.0897 -0.34421,-0.19928 0,-0.21208 -2.16985,-0.44653 -5.73676,-0.61989 -2.72535,-0.1324 -2.75361,-0.13612 -2.75361,-0.35917 0,-0.1012 -0.16187,-0.12194 -0.35968,-0.0458 -0.98165,0.37671 -2.01783,-1.24393 -1.36562,-2.13588 0.28018,-0.3831 2.62156,-0.49631 3.16757,-0.15305 0.15331,0.0964 0.58852,0.18926 0.96713,0.20646 0.37869,0.0173 1.27219,0.14173 1.98559,0.27663 0.71349,0.1349 1.51374,0.18866 1.77845,0.11943 0.28855,-0.0752 0.48118,-0.0173 0.48118,0.14588 0,0.15538 0.17371,0.21657 0.40566,0.14294 0.38734,-0.12289 3.81857,-0.22201 4.29846,-0.1241 0.12626,0.0259 0.33272,0.0251 0.45898,0 0.43694,-0.092 2.75863,-0.0216 3.90093,0.11796 0.63104,0.0769 1.50881,0.13542 1.95051,0.12946 0.44178,-0.009 0.95805,0.11727 1.1474,0.27395 0.35484,0.29366 1.00654,1.32587 0.87639,1.388 -0.0406,0.019 -0.44213,0.22219 -0.89307,0.45086 -0.45085,0.22867 -1.17367,0.42354 -1.60621,0.43314 -0.43262,0.01 -1.28498,0.21138 -1.89416,0.44834 -1.18145,0.45967 -2.79034,0.49623 -3.94077,0.0895 z m 140.53282,9.47158 c -0.15538,-0.64893 -0.11606,-0.93956 0.16524,-1.22086 0.26038,-0.26038 0.40375,-0.27568 0.62706,-0.0674 0.45769,0.42753 0.29089,1.20453 -0.27637,1.28801 -0.27412,0.0406 -0.50625,0.0406 -0.51593,0 z m 2.77124,2.43714 c 0,-0.22383 -0.0639,-0.343 -0.14207,-0.26488 -0.26091,0.26082 -0.66051,-0.40081 -0.7109,-1.17721 -0.038,-0.59216 0.0268,-0.73795 0.28683,-0.6383 0.18512,0.0709 0.33661,0.0121 0.33661,-0.13128 0,-0.14328 0.0683,-0.19254 0.15106,-0.10958 0.083,0.083 0.29202,0.0337 0.46443,-0.10915 0.17249,-0.14311 0.3799,-0.19384 0.46096,-0.11269 0.0812,0.0812 0.0268,0.14743 -0.1203,0.14743 -0.14726,0 -0.26773,0.10319 -0.26773,0.22945 0,0.36824 0.62603,0.26401 0.77701,-0.12928 0.18857,-0.49156 0.65066,-0.16273 0.48862,0.34775 -0.0717,0.22513 -0.0294,0.67296 0.0928,0.99522 0.19738,0.51912 0.15218,0.61142 -0.39572,0.80993 -0.34015,0.12332 -0.79922,0.29737 -1.02011,0.3869 -0.29262,0.11857 -0.40151,0.0527 -0.40151,-0.24431 z m -30.86373,14.4163 c -0.76672,-0.14086 -1.49153,-0.57953 -1.49153,-0.90257 0,-0.38717 -0.4525,-0.4048 -0.47773,-0.0181 -0.0104,0.15772 -0.16774,-0.0545 -0.34992,-0.47151 -0.36495,-0.83543 -0.26704,-1.19217 0.32702,-1.19217 0.21458,0 0.51921,-0.20654 0.67684,-0.45898 0.36262,-0.58066 0.73483,-0.59708 0.58541,-0.0259 -0.0622,0.23817 0,0.50244 0.1362,0.58722 0.13724,0.0847 0.2495,0.41733 0.2495,0.7389 0,0.41213 0.0966,0.54764 0.32744,0.45906 0.40393,-0.15504 0.81348,0.30256 0.737,0.8235 -0.0735,0.50262 -0.1674,0.5626 -0.72023,0.46105 z m -6.02359,7.80601 c -0.28397,-0.0536 -0.51627,-0.19272 -0.51627,-0.31017 0,-0.11744 -0.29426,-0.21345 -0.65394,-0.21345 -0.64194,0 -0.65196,-0.0199 -0.54558,-1.08527 0.11555,-1.15752 0.63951,-1.80843 1.12883,-1.40234 0.15123,0.12548 0.81615,0.19435 1.4777,0.15313 1.11819,-0.07 1.21334,-0.0346 1.35178,0.49865 0.36686,1.41271 -0.79109,2.63107 -2.24252,2.35945 z m 8.11341,-54.81211 c -0.0769,-0.19964 -0.13931,-0.47843 -0.13931,-0.61955 0,-0.17647 -0.0743,-0.18261 -0.23706,-0.0199 -0.2698,0.2698 -0.0605,1.00213 0.28614,1.00213 0.12618,0 0.16679,-0.16334 0.0902,-0.36297 z m -8.17079,4.72883 c 0,-0.12298 0.30005,-0.37869 0.66665,-0.56839 0.81183,-0.41974 0.90681,-0.51688 2.77539,-2.83942 0.82038,-1.01968 1.61312,-1.85891 1.76159,-1.86495 0.22547,-0.01 0.9921,-1.21767 0.9921,-1.56378 0,-0.28778 -2.29783,0.29245 -3.20775,0.80993 -0.57063,0.3246 -1.39888,0.76992 -1.84066,0.98977 -0.4417,0.21986 -1.05347,0.66725 -1.3594,0.99427 -0.30601,0.32701 -0.69127,0.59466 -0.85616,0.59466 -0.34793,0 -0.64902,0.98605 -0.45526,1.49101 0.0726,0.1896 0.032,0.34473 -0.09,0.34473 -0.4143,0 -0.22504,0.49147 0.44852,1.16495 0.67426,0.67433 1.16495,0.86264 1.16495,0.44722 z m 14.80078,18.35171 c -0.0778,-0.12617 -0.18736,-0.22945 -0.24293,-0.22945 -0.0553,0 -0.10119,0.10328 -0.10119,0.22945 0,0.12617 0.10932,0.22944 0.24292,0.22944 0.1337,0 0.17924,-0.10327 0.1012,-0.22944 z m -4.93356,14.65897 c 0,-0.12618 -0.10328,-0.16559 -0.22945,-0.0876 -0.12626,0.0778 -0.22953,0.24508 -0.22953,0.37126 0,0.12626 0.10327,0.16566 0.22953,0.0877 0.12617,-0.0778 0.22945,-0.24508 0.22945,-0.37134 z m -0.68843,0.01 c 0,-0.10872 -0.15486,-0.13827 -0.34421,-0.0657 -0.18926,0.0726 -0.34421,0.22107 -0.34421,0.32987 0,0.10872 0.15495,0.13827 0.34421,0.0657 0.18935,-0.0726 0.34421,-0.22107 0.34421,-0.32978 z m -0.14812,0.74287 c -0.46909,-0.10509 -0.62733,0.0935 -0.44757,0.56191 0.13697,0.35691 0.17621,0.35302 0.47185,-0.0475 0.27949,-0.37843 0.2762,-0.44713 -0.0242,-0.51437 z m -83.60756,21.84275 c -0.66984,-0.56364 -0.71279,-0.68566 -0.58593,-1.66368 0.0752,-0.58049 0.18529,-1.60094 0.24423,-2.26759 0.13896,-1.5706 0.53779,-2.30656 2.06338,-3.80794 0.95252,-0.93748 1.46923,-1.26502 2.17304,-1.37762 0.5078,-0.0812 0.92331,-0.24829 0.92331,-0.37126 0,-0.12307 0.33557,-0.36608 0.74581,-0.54005 0.84251,-0.35743 2.0078,-1.57457 2.0078,-2.09724 0,-0.19039 0.0921,-0.3462 0.20465,-0.3462 0.11252,0 0.26453,-0.23239 0.33773,-0.51637 0.13067,-0.50633 1.27357,-1.31938 1.85475,-1.31938 0.16204,0 0.56675,-0.21406 0.89929,-0.47565 0.48188,-0.37904 0.6046,-0.6714 0.6046,-1.44046 0,-0.53071 -0.14527,-1.17238 -0.32287,-1.42593 -0.17759,-0.25356 -0.3583,-0.66371 -0.40159,-0.91157 -0.0432,-0.24776 -0.25183,-0.64262 -0.46339,-0.87734 -0.40393,-0.448 -0.32926,-1.06478 0.12877,-1.06478 0.14778,0 0.45275,-0.21501 0.67788,-0.47791 0.37403,-0.43685 0.37861,-0.52448 0.0536,-1.02053 -0.19557,-0.2985 -0.29668,-0.69638 -0.22461,-0.88408 0.0769,-0.20041 -0.11632,-0.55646 -0.46805,-0.86222 -0.32943,-0.28648 -0.54894,-0.65126 -0.48784,-0.81071 0.14829,-0.38638 -0.1572,-0.54903 -1.21231,-0.64565 -1.47234,-0.13472 -2.78688,-0.57054 -2.78688,-0.92383 0,-0.52448 -1.3205,-1.06591 -2.60532,-1.06824 -1.61778,0 -4.40113,0.38396 -5.69225,0.79118 -2.24218,0.70735 -5.08541,-0.26194 -5.34631,-1.82252 -0.0389,-0.23195 -0.16291,-0.4035 -0.27594,-0.38129 -0.11295,0.0225 -0.17777,-0.43089 -0.14407,-1.00697 0.0449,-0.76707 0.26151,-1.31074 0.80959,-2.03165 0.88788,-1.16806 1.59247,-1.40079 4.79477,-1.58392 1.91871,-0.10975 5.28989,-0.77683 5.6265,-1.11335 0.24111,-0.2412 0.12634,-2.15558 -0.2145,-3.57651 -0.19393,-0.80855 -0.31327,-1.58304 -0.26522,-1.72106 0.18848,-0.54194 -1.44703,-1.74249 -2.37389,-1.74249 -0.24907,0 -0.58049,-0.15374 -0.73639,-0.34171 -0.15599,-0.18788 -0.37515,-0.2851 -0.48707,-0.21588 -0.11191,0.0691 -0.20343,-0.0415 -0.20343,-0.2456 0,-0.20421 -0.0966,-0.31155 -0.21467,-0.23861 -0.11805,0.0726 -0.47479,-0.12747 -0.79273,-0.44541 -0.31794,-0.31794 -0.68601,-0.57807 -0.81797,-0.57807 -0.13188,0 -0.2399,-0.24543 -0.2399,-0.54557 0,-0.30005 -0.15962,-0.67805 -0.35467,-0.83992 -0.19505,-0.16186 -0.30152,-0.43262 -0.23662,-0.60174 0.0648,-0.16904 0.0346,-0.3074 -0.0683,-0.3074 -0.2781,0 0.0605,-1.8328 0.51238,-2.77651 0.32581,-0.67978 1.63585,-2.12007 3.47531,-3.82082 0.17068,-0.15772 0.4786,-0.28683 0.68445,-0.28683 0.20578,0 0.31752,-0.0916 0.2483,-0.20352 -0.0691,-0.112 0,-0.19902 0.15858,-0.19332 1.00074,0.0363 1.51858,-0.14562 2.17874,-0.7643 0.44057,-0.413 0.86412,-0.63277 1.03255,-0.53581 0.15711,0.0903 0.2126,0.083 0.12332,-0.0156 -0.0894,-0.099 0.0614,-0.36149 0.33557,-0.58316 0.36582,-0.29625 0.49182,-0.63874 0.47488,-1.29104 -0.013,-0.48827 0.0251,-0.64893 0.0838,-0.35709 0.0895,0.44507 0.20845,0.50824 0.73751,0.39209 0.34689,-0.076 0.90309,-0.0354 1.23607,0.0916 0.38552,0.14657 0.65498,0.15003 0.74183,0.01 0.0752,-0.12142 0.38259,-0.22071 0.6835,-0.22071 0.30524,0 0.70511,-0.22547 0.90439,-0.50997 0.19644,-0.28052 0.35718,-0.42147 0.35718,-0.31327 0,0.10819 0.23238,-0.0988 0.51636,-0.46002 0.28398,-0.36124 0.90128,-1.00472 1.37175,-1.43 1.23235,-1.11361 1.83323,-2.17165 1.64942,-2.90398 -0.10215,-0.40704 -0.0311,-0.72809 0.21968,-0.99167 0.7134,-0.75013 1.52065,-1.83479 1.52065,-2.04341 0,-0.79982 4.61822,-4.16192 5.35426,-3.89799 0.14726,0.0527 0.52587,-0.0233 0.84139,-0.1687 0.31552,-0.14553 1.21905,-0.2533 2.00789,-0.23938 0.78876,0.0138 1.43415,-0.0596 1.43415,-0.1629 0,-0.10336 0.10007,-0.18797 0.22227,-0.18797 0.12228,0 0.15452,0.18071 0.0717,0.4016 -0.12834,0.34239 -0.0969,0.35804 0.21337,0.10595 0.33764,-0.2743 2.37293,-0.59915 3.56562,-0.56908 0.28398,0.009 0.51636,-0.0795 0.51636,-0.1922 0,-0.11286 0.1209,-0.20516 0.26877,-0.20516 0.14778,0 0.43175,-0.13741 0.63104,-0.30532 0.19928,-0.16792 0.87855,-0.48577 1.50959,-0.70623 0.63104,-0.22055 1.35386,-0.49156 1.60629,-0.60226 1.32008,-0.57928 2.20364,-0.87406 3.04589,-1.01631 0.51368,-0.0868 0.99038,-0.30497 1.05943,-0.4849 0.0691,-0.17984 0.25779,-0.32719 0.41948,-0.32745 0.6835,0 2.98436,-3.08037 2.43766,-3.26254 -0.12064,-0.0406 -0.14933,-0.25555 -0.064,-0.4786 0.14311,-0.37281 0.19954,-0.37662 0.70156,-0.0475 0.49623,0.3252 0.59794,0.32365 1.11733,-0.0164 0.54583,-0.35769 0.5664,-0.45388 0.46131,-2.15912 -0.10085,-1.63741 -0.0726,-1.79461 0.34655,-1.90419 0.32675,-0.0856 0.45154,-0.3048 0.4391,-0.77182 -0.0216,-0.8254 -0.48422,-2.11816 -0.78574,-2.1981 -0.12617,-0.0337 -0.21199,-0.42216 -0.19064,-0.86394 0.0354,-0.73855 0.21717,-2.86562 0.27905,-3.26989 0.0147,-0.0947 0.21026,-0.17215 0.43496,-0.17215 0.52362,0 0.86921,0.94924 0.85314,2.34363 -0.0121,1.03903 0.0104,1.07671 0.56769,0.95668 0.33333,-0.0717 0.47117,-0.0441 0.32408,0.0657 -0.35683,0.26582 -0.63104,1.22328 -0.35035,1.22328 0.12522,0 0.19816,0.41542 0.16195,0.92322 -0.0605,0.84615 -0.0251,0.91044 0.41698,0.7701 0.42372,-0.13456 0.44507,-0.10794 0.17483,0.21769 -0.25874,0.3118 -0.25373,0.42493 0.032,0.71037 0.29971,0.2998 0.45708,0.26333 1.34229,-0.31076 0.55144,-0.3577 1.46499,-1.07715 2.03001,-1.59878 0.56502,-0.52155 1.36527,-1.23019 1.77836,-1.57458 0.41309,-0.34447 0.75108,-0.72697 0.75108,-0.85003 0,-0.3023 1.41911,-1.49861 1.77844,-1.49931 0.15772,-1.7e-4 0.28683,0.10276 0.28683,0.22893 0,0.12626 -0.10552,0.22945 -0.23437,0.22945 -0.12894,0 -0.34205,0.23238 -0.47367,0.51636 -0.13153,0.28398 -0.59181,0.77441 -1.02287,1.08993 -0.89679,0.65654 -1.13133,1.16927 -1.23313,2.69632 -0.032,0.48015 -0.47808,0.31958 -0.47808,-0.17215 0,-0.64496 -0.16308,-0.58256 -1.15838,0.44299 -1.80817,1.86322 -1.95664,2.60073 -0.52241,2.59486 0.35648,0 0.84139,0.0992 1.07749,0.22374 0.30351,0.15996 0.38344,0.15219 0.273,-0.0268 -0.09,-0.14571 0.0926,-0.34732 0.43124,-0.47609 0.54989,-0.20905 0.69776,-0.57789 0.6415,-1.60007 -0.0251,-0.46011 0.63544,-1.69324 0.81243,-1.51625 0.0795,0.0795 0.12004,0.50193 0.0907,0.93922 -0.0294,0.4372 0.0527,0.79498 0.18312,0.79498 0.21104,0 0.32563,-0.30377 0.27197,-0.72109 -0.0354,-0.27378 2.12456,-2.22118 3.09385,-2.78974 0.17206,-0.10094 0.31284,-0.29608 0.31284,-0.43366 0,-0.13749 0.13957,-0.36478 0.30999,-0.50486 0.3099,-0.25468 1.37037,-2.92749 1.42066,-3.58057 0.0147,-0.19013 0.0441,-0.60754 0.0657,-0.92764 0.0285,-0.41577 0.17025,-0.58178 0.49822,-0.58178 0.25243,0 0.45889,0.13274 0.45889,0.29495 0,0.1623 0.10517,0.29504 0.23376,0.29504 0.20689,0 0.2571,0.64297 0.24077,3.08771 0,0.37308 0.12211,0.76033 0.27681,0.86058 0.21466,0.13905 0.20015,0.23437 -0.0614,0.4022 -0.28355,0.18226 -0.2145,0.32606 0.40159,0.83646 0.4092,0.33903 0.74408,0.78504 0.74408,0.99124 0,0.50159 1.34418,0.42882 2.87858,-0.1559 0.62542,-0.23826 1.31782,-0.39243 1.53863,-0.34257 0.44999,0.10163 2.67134,-1.50691 2.68655,-1.94549 0.009,-0.15487 0.26911,-0.45146 0.5861,-0.65922 0.31707,-0.20775 0.63804,-0.62309 0.71331,-0.92314 0.0752,-0.30005 0.22902,-0.54557 0.34154,-0.54557 0.11251,0 0.4149,-0.21026 0.67191,-0.46728 0.25702,-0.25701 0.55707,-0.41179 0.66682,-0.34395 0.23299,0.14398 0.0553,1.01708 -0.2978,1.46681 -0.31647,0.40246 -0.78141,1.20124 -0.95408,1.63914 -0.2011,0.50988 -0.91113,2.04488 -1.46267,3.16229 -0.5778,1.17065 -0.60131,1.42715 -0.13092,1.42715 0.38007,0 0.75393,-0.26583 1.55133,-1.10307 0.62542,-0.65654 1.50829,-1.54658 1.78786,-1.80239 0.11572,-0.10586 0.56364,-0.60442 0.99539,-1.10808 0.43176,-0.50357 0.86585,-0.83482 0.96454,-0.73604 0.0988,0.0987 -0.0968,0.45915 -0.43452,0.80086 -1.43423,1.45134 -1.93893,2.08558 -2.24218,2.81765 -0.17681,0.42691 -0.63484,1.08829 -1.01794,1.46992 -0.86957,0.86611 -2.03659,2.41476 -1.81976,2.41476 0.0891,0 0,0.1807 -0.18986,0.40159 -0.1935,0.22081 -0.39589,0.72222 -0.44991,1.11422 -0.0855,0.6243 -0.0397,0.69828 0.37368,0.59717 0.25944,-0.0631 0.87925,-0.4099 1.37737,-0.77001 0.49822,-0.36003 1.06608,-0.6561 1.26209,-0.65809 0.31387,0 0.31534,-0.0302 0.0121,-0.22599 -0.29771,-0.19237 -0.29253,-0.22288 0.038,-0.2259 0.21026,0 0.4168,-0.0932 0.45889,-0.20266 0.0423,-0.10949 0.30887,-0.27136 0.59284,-0.35968 0.41793,-0.12998 0.51628,-0.0726 0.51628,0.30282 0,0.29097 -0.38422,0.72774 -1.03264,1.17384 -0.56795,0.3908 -1.03263,0.85185 -1.03263,1.0246 0,0.17267 -0.12903,0.36133 -0.28683,0.41914 -0.22616,0.083 -0.22755,0.16818 -0.009,0.40307 0.34939,0.37083 1.2651,0.0104 2.12879,-0.83845 1.18646,-1.1659 3.05185,-2.65207 3.58134,-2.85343 0.30204,-0.11485 0.54912,-0.31457 0.54912,-0.44394 0,-0.12929 0.11433,-0.23515 0.25399,-0.23515 0.13974,0 0.19911,0.1432 0.13196,0.31828 -0.0855,0.22323 0.01,0.28372 0.31958,0.20266 0.24302,-0.064 0.44179,-0.25831 0.44179,-0.43297 0,-0.36866 0.36616,-0.42371 0.57469,-0.0864 0.0786,0.12713 -0.0181,0.29306 -0.21588,0.36876 -0.19738,0.0761 -0.35881,0.31777 -0.35881,0.53779 0,0.69232 -0.49165,1.84551 -0.78678,1.84551 -0.15564,0 -0.41507,0.24673 -0.57651,0.54842 -0.16143,0.30161 -0.53295,0.6765 -0.82566,0.83318 -0.82462,0.44135 -2.29886,2.59097 -2.62009,3.82047 -0.40125,1.53569 -1.38765,3.54929 -2.15282,4.39474 -0.20965,0.23169 -0.3812,0.5422 -0.3812,0.68998 0,0.14786 -0.10059,0.26877 -0.22357,0.26877 -0.32338,0 -0.9622,1.32603 -0.71305,1.47995 0.11503,0.0709 0.25658,0 0.31474,-0.15902 0.0847,-0.23065 0.16636,-0.23091 0.40964,0 0.16722,0.15781 0.56735,0.29141 0.88926,0.29694 0.64962,0.0112 2.51319,0.47808 2.89629,0.7255 0.13525,0.0873 0.49934,0.0276 0.80916,-0.13343 0.30973,-0.16066 0.68445,-0.25174 0.83257,-0.2024 0.14821,0.0493 0.58913,-0.14657 0.97992,-0.43547 0.47713,-0.35268 1.06505,-0.53641 1.78985,-0.55905 0.59362,-0.0182 1.1309,-0.0596 1.19407,-0.0909 0.0631,-0.0311 0.21225,-0.038 0.33143,-0.0147 0.11926,0.0233 0.42899,-0.0631 0.68842,-0.19151 0.70908,-0.35104 2.23863,-0.7128 2.45321,-0.58014 0.10397,0.0639 0.38924,0.01 0.63416,-0.12151 0.3182,-0.17033 0.47012,-0.16333 0.53278,0.0242 0.0885,0.26574 1.25292,-0.33825 1.60949,-0.83482 0.10794,-0.15037 0.1699,-0.13369 0.17215,0.0467 0,0.20689 0.15901,0.2221 0.59207,0.057 0.81477,-0.30973 1.02511,-0.28069 0.8712,0.12047 -0.13473,0.35095 0.17008,0.4735 0.45907,0.18451 0.19435,-0.19427 0.79385,-0.33436 1.39784,-0.32658 0.24665,0 0.57772,-0.10146 0.73579,-0.23265 0.35337,-0.29331 0.83914,-0.0311 0.68531,0.36962 -0.11943,0.31129 0.37195,0.22746 2.26102,-0.38552 0.94924,-0.308 3.09782,-2.29014 3.09782,-2.85783 0,-0.16956 0.23238,-0.31449 0.51636,-0.32192 0.28398,-0.009 0.90353,-0.0432 1.37676,-0.0795 0.71375,-0.0545 0.86058,0.009 0.86058,0.36737 0,0.23826 0.20706,0.6555 0.46019,0.92721 0.30852,0.33107 0.38414,0.57003 0.22944,0.72463 -0.12686,0.12695 -0.23074,0.46831 -0.23074,0.7586 0,0.2902 -0.10327,0.52777 -0.22945,0.52777 -0.12617,0 -0.22944,0.20335 -0.22944,0.45189 0,0.24863 -0.1992,0.80665 -0.44273,1.24013 -0.24345,0.43349 -0.39745,0.83336 -0.34223,0.88858 0.0553,0.0553 -0.20888,0.71055 -0.58696,1.45618 -0.37818,0.74564 -0.68886,1.47407 -0.69042,1.61865 0,0.14459 -0.37048,0.55767 -0.81969,0.91787 -0.44922,0.36021 -1.1118,0.93827 -1.47243,1.28456 -0.36064,0.3462 -0.87216,0.66258 -1.13686,0.70294 -0.26462,0.0406 -0.60365,0.196 -0.75342,0.34577 -0.14968,0.14968 -0.35026,0.27222 -0.44567,0.27222 -0.0955,0 -0.67183,0.29383 -1.28083,0.65291 -0.60909,0.35907 -1.56879,0.71392 -2.13277,0.7885 -0.56389,0.0743 -1.25768,0.20585 -1.54165,0.29175 -0.38691,0.11693 -0.51628,0.0631 -0.51628,-0.21484 0,-0.20404 -0.10327,-0.371 -0.22944,-0.371 -0.12626,0 -0.22945,-0.15487 -0.22945,-0.34421 0,-0.42536 -0.0181,-0.42519 -1.10877,0.0112 -0.48871,0.19557 -0.98131,0.33825 -1.0946,0.31707 -0.11339,-0.0207 -0.41266,-0.0233 -0.66501,-0.009 -0.4232,0.032 -0.42769,0.0527 -0.057,0.26808 0.54393,0.31682 0.50487,0.58334 -0.11476,0.78236 -0.40549,0.13024 -0.43608,0.18762 -0.1426,0.26765 0.30887,0.0838 0.36427,0.39528 0.31915,1.79313 -0.0467,1.45402 0,1.7062 0.35277,1.79772 0.224,0.0588 0.49856,0.0156 0.61022,-0.0965 0.11762,-0.11762 0.46788,-0.0821 0.83309,0.0838 0.55456,0.25252 0.6135,0.37817 0.4913,1.04897 -0.0761,0.41914 -0.20188,0.9266 -0.27905,1.12761 -0.10232,0.26669 -0.0519,0.31647 0.18554,0.18416 0.17924,-0.0998 0.0346,0.1006 -0.32105,0.44524 -0.38155,0.36962 -0.99746,0.67373 -1.50164,0.74131 -1.1207,0.15029 -2.65198,1.46699 -2.44915,2.10598 0.0778,0.24561 0.0441,0.50686 -0.0752,0.58066 -0.39477,0.24397 0.28234,1.30011 0.91813,1.43207 0.83275,0.17284 1.25318,1.10402 0.67978,1.50562 -0.23091,0.16178 -0.44411,0.39736 -0.47367,0.52353 -0.0294,0.12626 -0.15434,0.2011 -0.27732,0.16645 -0.12297,-0.0346 -0.15823,0.0432 -0.0786,0.17206 0.0804,0.12937 -0.009,0.23515 -0.19324,0.23515 -0.18632,0 -0.37506,-0.10915 -0.41948,-0.24258 -0.0449,-0.13343 -0.25909,-0.17422 -0.47678,-0.0907 -0.21778,0.0838 -0.34154,0.23982 -0.27508,0.34733 0.0665,0.10742 0.27145,0.13749 0.45561,0.0665 0.18848,-0.0726 0.39771,0.0354 0.47842,0.24535 0.11848,0.30869 0.20525,0.32286 0.49822,0.0812 0.26176,-0.21605 0.37826,-0.22279 0.44454,-0.0259 0.15504,0.46036 1.17653,1.45437 1.49456,1.45437 0.16722,0 0.5078,0.14095 0.75669,0.31327 0.24898,0.17232 0.71081,0.38448 1.02633,0.47151 3.07389,0.84813 3.84484,1.18474 4.11793,1.79806 0.15487,0.34776 0.37265,0.57599 0.48404,0.5072 0.11131,-0.0691 0.68039,0.0927 1.26459,0.35882 0.64141,0.29219 1.41323,0.45863 1.948,0.42 0.48715,-0.0354 0.95901,0.01 1.04854,0.0988 0.0895,0.0895 0.4614,0.16282 0.82644,0.16282 0.42761,0 0.60771,0.0905 0.50642,0.2545 -0.11062,0.17898 0.10941,0.20949 0.74071,0.10284 0.49398,-0.0838 1.40381,-0.038 2.02198,0.10008 0.95667,0.21441 1.15371,0.19842 1.32499,-0.10759 0.11062,-0.19773 0.2998,-0.29859 0.42027,-0.22409 0.12055,0.0743 0.15719,0.23567 0.0812,0.35821 -0.0847,0.13698 0.10457,0.16204 0.49096,0.0648 0.68479,-0.17189 1.31721,0.37394 1.09736,0.94708 -0.0639,0.16722 0.0977,0.51861 0.35994,0.7808 0.2622,0.2622 0.4767,0.73484 0.4767,1.05036 0,0.57945 0.31241,0.76698 0.57365,0.34421 0.23507,-0.38034 0.63364,-0.25771 0.47825,0.14717 -0.11856,0.30887 -0.0838,0.3265 0.19125,0.098 0.26799,-0.22236 0.55318,-0.1826 1.41125,0.19696 0.59146,0.26168 1.23572,0.47574 1.43155,0.47574 0.70147,0 1.88025,0.5575 1.88025,0.88927 0,0.24275 0.17094,0.18122 0.60606,-0.21822 l 0.60598,-0.55628 -0.16523,0.68609 c -0.18511,0.76827 -0.56761,1.10592 -0.92435,0.81589 -0.27188,-0.22089 -2.64697,-0.42182 -2.6468,-0.22391 9e-5,0.0717 -0.3169,0.48499 -0.70441,0.91787 -0.54298,0.60667 -0.67581,0.93187 -0.57936,1.41816 0.0691,0.34706 0.0242,0.63104 -0.0986,0.63104 -0.32658,0 -0.27395,0.63138 0.0631,0.75773 0.20066,0.0752 0.15555,0.20845 -0.15046,0.44377 -0.27205,0.20905 -0.39244,0.50781 -0.31863,0.79023 0.0657,0.24967 0,0.60071 -0.13629,0.78003 -0.50374,0.64392 -2.40525,2.04712 -2.77409,2.04712 -0.20706,0 -0.31345,0.10207 -0.23627,0.22686 0.0786,0.12703 -0.009,0.17024 -0.19523,0.0982 -0.18451,-0.0709 -0.66768,0.0432 -1.07377,0.25304 -0.40618,0.21 -1.4739,0.43046 -2.37284,0.48983 -2.23164,0.14743 -2.67955,0.21424 -3.4277,0.51135 -0.73068,0.2902 -0.99193,0.32632 -0.77259,0.10699 0.0821,-0.0821 -0.13292,-0.30135 -0.47799,-0.48698 -0.95071,-0.51118 -4.28637,-0.39935 -5.20251,0.17448 -0.8146,0.51023 -1.96503,1.89589 -1.96503,2.36688 0,0.17777 -0.48438,0.75125 -1.07636,1.27436 -1.17903,1.04197 -2.13623,1.26251 -2.13623,0.49233 0,-0.25243 0.0904,-0.45898 0.20084,-0.45898 0.11036,0 0.20076,-0.25485 0.20076,-0.56639 0,-0.50323 -0.0544,-0.5384 -0.48758,-0.31553 -0.26825,0.13802 -0.71911,0.46166 -1.00205,0.71937 -0.28294,0.25762 -0.74762,0.49432 -1.03264,0.52587 -0.28501,0.0311 -0.60174,0.0657 -0.7038,0.0769 -0.10215,0.0104 -0.12782,0.11261 -0.057,0.22703 0.0709,0.11433 0.33496,0.15391 0.58723,0.088 0.57884,-0.15141 0.60891,0.31388 0.032,0.49701 -0.61842,0.19626 -1.13815,-0.07 -1.25188,-0.64021 l -0.099,-0.49691 -0.1706,0.51627 c -0.0938,0.28398 -0.31353,0.51636 -0.4881,0.51636 -0.17457,0 -0.31742,0.15167 -0.31742,0.33696 0,0.19444 0.13577,0.28492 0.32097,0.2138 0.17655,-0.0674 0.3818,-0.0251 0.45604,0.0953 0.16065,0.26004 -0.76439,0.65256 -2.03909,0.86516 -0.50487,0.0838 -1.07282,0.28345 -1.26209,0.44273 -0.43408,0.36521 -2.52416,0.81425 -2.52416,0.54237 0,-0.11096 -0.15495,-0.2017 -0.34421,-0.2017 -0.18935,0 -0.34422,-0.10319 -0.34422,-0.22945 0,-0.12617 -0.22503,-0.22945 -0.50002,-0.22945 -1.09279,0 -2.01187,-0.52958 -2.26845,-1.3071 -0.16411,-0.49718 -0.39745,-0.75817 -0.6778,-0.75817 -0.23523,0 -0.48672,-0.0957 -0.55905,-0.21251 -0.27421,-0.44377 -2.05706,0.35735 -3.57227,1.60517 -3.10647,2.55813 -4.25361,4.40044 -4.07576,6.54522 0.0605,0.73311 0.0104,1.24091 -0.12367,1.24091 -0.12461,0 -0.0717,0.18071 0.11831,0.4016 0.1897,0.22089 0.40834,0.58057 0.48586,0.7993 0.0856,0.24172 0.27931,0.34456 0.4938,0.26229 0.29141,-0.11183 0.35286,0.0864 0.35286,1.13556 0,1.84464 -0.49994,2.14616 -3.6141,2.17926 l -2.3521,0.0251 0,-1.08198 c 0,-0.59518 0.15745,-1.52463 0.34585,-2.06545 0.30515,-0.87595 0.30429,-1.05752 -0.009,-1.66151 -0.44455,-0.85963 -1.16426,-1.33217 -2.23898,-1.46975 -0.63312,-0.0812 -0.90257,-0.0104 -1.07308,0.28216 -0.2049,0.35156 -0.22832,0.35303 -0.23463,0.0147 0,-0.20646 -0.34257,-0.53373 -0.75272,-0.72723 -1.03627,-0.48879 -2.29818,-0.21138 -3.8292,0.84174 l -1.23996,0.85297 -2.03287,-0.0945 c -1.52973,-0.0709 -2.14443,-0.1954 -2.48346,-0.50219 -0.29495,-0.26695 -0.84683,-0.41577 -1.59809,-0.43107 -0.63121,-0.013 -1.14826,-0.0838 -1.14904,-0.1578 0,-0.0735 -0.41102,-0.15054 -0.91165,-0.17016 -0.96583,-0.038 -1.09849,0.0639 -3.57011,2.74497 -0.91459,0.9921 -1.19589,1.17229 -2.97744,1.90738 -0.50478,0.20828 -1.09719,0.47696 -1.31636,0.59708 -0.21916,0.12004 -0.54885,0.2183 -0.73275,0.2183 -0.18382,0 -0.49407,0.22815 -0.68938,0.50703 -0.26324,0.37584 -0.4219,0.44005 -0.6135,0.24846 -0.19159,-0.1916 -0.51852,-0.1801 -1.26424,0.0441 -0.81546,0.24535 -1.00576,0.24682 -1.00576,0.009 0,-0.1623 -0.20655,-0.34905 -0.45898,-0.41507 -0.56856,-0.14865 -0.63692,-1.42162 -0.10777,-2.00634 0.19315,-0.21346 0.43816,-0.69128 0.54445,-1.06185 0.35579,-1.24073 -1.06478,-2.24502 -1.84274,-1.30261 -0.63839,0.77329 -2.11678,1.22821 -3.54989,1.09227 -0.73932,-0.07 -1.47563,-0.23654 -1.63619,-0.3698 -0.59881,-0.497 -0.28459,-1.7997 0.66241,-2.74678 0.25338,-0.25339 0.59794,-0.78712 0.76568,-1.18603 0.26099,-0.62068 0.25373,-0.81201 -0.0501,-1.32656 -0.51887,-0.87846 -1.514,-1.37434 -2.81722,-1.40407 -0.63104,-0.0147 -1.14732,-0.0895 -1.14732,-0.16696 0,-0.25304 -1.32093,-0.92824 -1.81603,-0.92824 -0.26575,0 -0.66285,0.21855 -0.88244,0.48568 -0.7115,0.86524 -1.76963,1.80688 -2.03183,1.808 -0.14052,0 -0.53952,0.41076 -0.88667,0.91165 -0.57046,0.82315 -1.95051,2.07244 -2.28928,2.07244 -0.53537,0 -1.92207,1.27177 -2.13182,1.95501 -0.22624,0.73707 -0.1947,0.83646 0.43288,1.36449 0.63217,0.53191 0.66138,0.62663 0.44274,1.43604 -0.39892,1.47684 -4.38195,5.34121 -5.50515,5.34121 -0.11703,0 -0.53798,-0.27369 -0.93551,-0.60822 z m 63.7918,3.23938 c 0,-0.18512 -0.15253,-0.33652 -0.33894,-0.33652 -0.18641,0 -0.50806,-0.25814 -0.71478,-0.57366 -0.20672,-0.31552 -0.53157,-0.57366 -0.72178,-0.57366 -0.28148,0 -0.29271,-0.064 -0.0605,-0.34421 0.23144,-0.27888 0.22288,-0.34422 -0.0449,-0.34422 -0.25468,0 -0.30057,-0.2138 -0.20023,-0.93342 0.16281,-1.16719 1.10099,-1.88301 1.85285,-1.41349 0.27162,0.16964 0.45725,0.19159 0.45725,0.0544 0,-0.1273 0.10526,-0.23143 0.23385,-0.23143 0.13871,0 0.17146,0.2488 0.0804,0.61142 -0.12375,0.49329 -0.0847,0.58498 0.20283,0.47471 0.19592,-0.0752 0.54696,0.009 0.78012,0.18442 0.2482,0.18796 0.30498,0.32416 0.13706,0.32848 -0.38198,0.01 -0.36573,0.60391 0.0268,0.97033 0.47739,0.44593 0.0216,1.45368 -0.90534,2.00046 -0.63208,0.3729 -0.78487,0.39753 -0.78487,0.12661 z m -27.23788,0.85668 c -0.93066,-0.0536 -1.16503,-0.14216 -1.06548,-0.40159 0.07,-0.18296 0.0225,-0.33264 -0.10603,-0.33264 -0.34041,0 -0.21087,-0.5142 0.30653,-1.21619 0.3685,-0.50003 0.67174,-0.62888 1.64527,-0.69897 1.14585,-0.0821 1.19908,-0.0605 1.33347,0.55111 0.13101,0.59681 -0.14182,1.35818 -0.69128,1.92881 -0.12617,0.1311 -0.76629,0.20732 -1.42248,0.16947 z m -24.40243,0.73224 c -0.1349,-0.35501 -0.19116,-0.86144 -0.12488,-1.12545 0.1623,-0.64668 1.75987,-2.21858 2.11592,-2.08195 0.15651,0.0605 0.33064,-0.0657 0.38699,-0.27966 0.0726,-0.27724 0.1101,-0.24068 0.12911,0.12747 0.0147,0.28398 0.13681,0.51628 0.27153,0.51628 0.27171,0 0.13793,0.61202 -0.38863,1.77844 -0.18528,0.41015 -0.43521,0.74572 -0.55551,0.74572 -0.12021,0 -0.21864,0.15495 -0.21864,0.34421 0,0.18935 -0.14648,0.34422 -0.32546,0.34422 -0.17898,0 -0.48732,0.0622 -0.68523,0.1381 -0.24958,0.0957 -0.43495,-0.0596 -0.6052,-0.50738 z m 69.75091,2.29178 c -0.01,-0.23705 -0.0536,-0.61963 -0.097,-0.8502 -0.0441,-0.23066 0.1343,-0.63312 0.39563,-0.89436 0.42268,-0.42277 0.55974,-0.44446 1.24307,-0.19748 0.42234,0.1528 0.88771,0.2037 1.03419,0.11322 0.16895,-0.1044 0.20413,-0.064 0.0963,0.11044 -0.0935,0.15124 0,0.54065 0.21682,0.86533 0.28018,0.42752 0.30144,0.55957 0.0769,0.47877 -0.17034,-0.0614 -0.46728,0.0251 -0.65991,0.19185 -0.19254,0.16679 -0.78634,0.37308 -1.31938,0.45829 -0.847,0.13542 -0.97153,0.10059 -0.98683,-0.27586 z m 51.33715,0.71306 c 0.0946,-0.24673 -0.0311,-0.34084 -0.45604,-0.34084 -0.32278,0 -0.68246,-0.17086 -0.79931,-0.37965 -0.12556,-0.22443 -0.36184,-0.32235 -0.57772,-0.23956 -0.41447,0.1591 -0.7407,-0.19047 -0.3837,-0.4111 0.12825,-0.0795 0.2316,-0.31872 0.2297,-0.53217 0,-0.22383 -0.0752,-0.2896 -0.17215,-0.15539 -0.0927,0.1279 -0.68341,0.23118 -1.31255,0.22945 -1.08423,0 -1.15181,-0.0389 -1.29233,-0.69154 -0.0812,-0.37861 -0.16048,-0.50772 -0.17543,-0.28683 -0.0147,0.22081 -0.17837,0.40151 -0.36331,0.40151 -0.43176,0 -0.85064,-0.77735 -0.67106,-1.2454 0.18563,-0.48378 -0.12885,-0.45881 -0.51351,0.0406 -0.28933,0.37575 -0.33868,0.3646 -0.76603,-0.17207 -0.4092,-0.51411 -0.67252,-1.20003 -0.32857,-0.85608 0.0761,0.0761 0.39849,0.0398 0.71634,-0.0812 0.40367,-0.15349 0.67866,-0.1362 0.91182,0.057 0.26393,0.21908 0.37731,0.20811 0.5422,-0.0527 0.17043,-0.26929 0.20914,-0.25477 0.21199,0.0795 0,0.22477 0.1763,0.47505 0.3876,0.55611 0.21121,0.0812 0.57262,0.336 0.8031,0.56649 0.43202,0.43201 1.00766,0.58498 0.77312,0.2055 -0.0726,-0.11753 -0.0268,-0.27853 0.1012,-0.35778 0.12825,-0.0795 0.23402,-0.009 0.23497,0.15625 0,0.39382 1.07741,0.88581 1.54425,0.70666 0.24206,-0.0929 0.30913,-0.0493 0.19911,0.12842 -0.10621,0.1718 0.009,0.26842 0.30654,0.26842 0.25986,0 0.47246,0.0936 0.47246,0.20802 0,0.11442 0.20654,0.154 0.45897,0.088 0.34871,-0.0912 0.45898,-0.009 0.45898,0.35018 0,0.26876 0.1967,0.53269 0.45889,0.61592 0.5658,0.17958 0.60201,0.77328 0.057,0.94189 -0.22089,0.0683 -0.57841,0.21847 -0.79463,0.33358 -0.30204,0.16083 -0.3628,0.13041 -0.26229,-0.13144 z m -62.16796,6.02497 c -0.34386,-0.1146 -0.62516,-0.31406 -0.62516,-0.44325 0,-0.1292 -0.14959,-0.17751 -0.33255,-0.10734 -0.22218,0.0856 -0.2902,0.0173 -0.2049,-0.2049 0.07,-0.18287 0.0251,-0.33255 -0.0996,-0.33255 -0.18745,0 -0.43366,-0.48222 -0.59414,-1.16373 -0.0173,-0.0717 -0.21156,-0.31181 -0.43245,-0.5327 -0.2208,-0.22089 -0.40151,-0.60399 -0.40151,-0.85133 0,-0.24733 -0.12911,-0.49951 -0.28683,-0.56035 -0.45742,-0.17629 -0.45552,-1.59177 0,-1.99907 0.49312,-0.43815 2.16907,-0.9145 2.33923,-0.66475 0.23282,0.34188 0.89773,0.46987 1.00982,0.19445 0.0614,-0.15072 0.11961,-0.0933 0.12954,0.12756 0.0164,0.36927 0.2858,0.51178 0.79205,0.41939 0.11018,-0.0199 0.14138,0.11693 0.0691,0.30455 -0.0743,0.19237 0.10673,0.56977 0.41448,0.86593 0.43426,0.41793 0.49026,0.59198 0.2749,0.85375 -0.2272,0.27602 -0.16999,0.30377 0.35596,0.17275 0.58827,-0.14648 0.61368,-0.12194 0.41448,0.40203 -0.11676,0.30697 -0.1967,0.76378 -0.17777,1.01518 0.051,0.67823 -0.71781,1.96399 -1.41297,2.36299 -0.44144,0.25339 -0.78176,0.29236 -1.2346,0.14139 z"
      id="path3023" style="fill:#FFB000" />
</svg>