<?xml version="1.0" encoding="UTF-8" standalone="no"?>
<!-- Created with Inkscape (http://www.inkscape.org/) -->

<svg xmlns:dc="http://purl.org/dc/elements/1.1/" xmlns:cc="http://creativecommons.org/ns#"
   xmlns:rdf="http://www.w3.org/1999/02/22-rdf-syntax-ns#" xmlns:svg="http://www.w3.org/2000/svg"
   xmlns="http://www.w3.org/2000/svg" xmlns:sodipodi="http://sodipodi.sourceforge.net/DTD/sodipodi-0.dtd"
   xmlns:inkscape="http://www.inkscape.org/namespaces/inkscape" version="1.1" width="600" height="600" id="svg2"
   inkscape:version="0.48.3.1 r9886" sodipodi:docname="colorful-paint-splash-1.svg">
   <sodipodi:namedview pagecolor="#ffffff" bordercolor="#666666" borderopacity="1" objecttolerance="10"
      gridtolerance="10" guidetolerance="10" inkscape:pageopacity="0" inkscape:pageshadow="2"
      inkscape:window-width="1855" inkscape:window-height="1056" id="namedview10" showgrid="false"
      inkscape:zoom="0.92956192" inkscape:cx="720.90323" inkscape:cy="315.96211" inkscape:window-x="65"
      inkscape:window-y="24" inkscape:window-maximized="1" inkscape:current-layer="svg2" />
   <metadata id="metadata8">
      <rdf:RDF>
         <cc:Work rdf:about="">
            <dc:format>image/svg+xml</dc:format>
            <dc:type rdf:resource="http://purl.org/dc/dcmitype/StillImage" />
            <dc:title />
         </cc:Work>
      </rdf:RDF>
   </metadata>
   <path
      d="m 556.75331,327.52214 c 0.0687,-0.28507 0.27012,-0.45113 0.48436,-0.39951 0.2018,0.0487 0.32698,-0.0334 0.27817,-0.18197 -0.0487,-0.1487 0.0307,-0.24161 0.17608,-0.20657 0.14988,0.0361 0.16505,0.33587 0.035,0.69094 -0.28091,0.76641 -1.15585,0.85368 -0.97357,0.0971 z M 364.76419,281.33945 c 0.1567,-0.42902 0.13301,-0.65909 -0.0669,-0.66654 -0.18062,-0.007 -0.24934,-0.27786 -0.16789,-0.66279 0.0757,-0.35833 0.14918,-0.86642 0.16252,-1.12917 0.0136,-0.2628 0.12284,-0.57256 0.24235,-0.68858 0.11991,-0.11583 0.44271,-1.05277 0.71727,-2.08206 1.20512,-4.51761 2.14272,-7.45481 2.38643,-7.47565 0.14355,-0.0125 0.43788,-0.1306 0.65421,-0.26294 0.32987,-0.20178 0.41443,-0.14763 0.52356,0.33512 0.14851,0.65688 -0.12169,1.88429 -0.40046,1.81713 -0.10199,-0.0245 -0.17668,0.26554 -0.16598,0.64466 0.0125,0.4361 -0.17924,0.96167 -0.52209,1.43021 -0.41774,0.5713 -0.67986,1.43495 -1.14517,3.77291 -0.34071,1.71302 -0.71052,3.0672 -0.84953,3.1129 -0.13548,0.0447 -0.25568,0.21007 -0.26718,0.3681 -0.0365,0.50191 -0.8043,1.96544 -1.07784,2.05519 -0.15359,0.0501 -0.16376,-0.18586 -0.0241,-0.56869 z m 83.99768,20.98639 c 0.0703,-0.37643 0.1598,-0.86253 0.19811,-1.08059 0.0383,-0.21799 0.0156,-0.48649 -0.0511,-0.59678 -0.1136,-0.18782 0.004,-0.46317 0.53218,-1.23923 0.11986,-0.17655 0.31079,-0.61333 0.42402,-0.97079 0.23621,-0.74427 0.72213,-1.1259 1.03397,-0.8112 0.41574,0.41956 -1.18715,4.8537 -1.87686,5.19235 -0.31322,0.15371 -0.36357,0.0582 -0.26026,-0.49374 z m -57.13435,-12.11498 c -0.14815,-1.43211 -0.0497,-2.15474 0.32206,-2.3651 0.21502,-0.12172 0.42022,-0.34989 0.45604,-0.50705 0.0428,-0.17761 -0.053,-0.17347 -0.24811,0.0122 -0.26759,0.25466 -0.29921,0.23797 -0.21755,-0.11464 0.0545,-0.22642 0.19817,-0.38792 0.32353,-0.35772 0.12535,0.0302 0.20519,-0.11857 0.17754,-0.33066 -0.028,-0.2121 0.0665,-0.35741 0.21004,-0.32284 0.14325,0.0345 0.32343,-0.19862 0.40041,-0.51815 0.10756,-0.44645 0.22267,-0.52388 0.4974,-0.33484 0.27075,0.18639 0.34379,0.1415 0.30112,-0.18427 -0.031,-0.23654 0.0462,-0.40552 0.17133,-0.37536 0.12535,0.0302 0.28604,-0.1863 0.35705,-0.48103 0.071,-0.29481 0.38463,-0.66631 0.69686,-0.82549 0.39244,-0.20022 0.63781,-0.58077 0.79499,-1.23316 0.12501,-0.51889 0.33317,-0.918 0.46264,-0.8868 0.12938,0.0312 0.28476,-0.14884 0.34528,-0.40004 0.0605,-0.25121 0.23174,-0.49664 0.3804,-0.54545 0.1487,-0.0487 0.31686,-0.26696 0.37371,-0.48484 0.16373,-0.62796 0.89377,-1.10411 1.28232,-0.83663 0.44087,0.30348 0.11827,1.82992 -0.40123,1.89784 -0.19819,0.026 -0.51599,0.39393 -0.70621,0.81781 -0.23238,0.51773 -0.47791,0.74028 -0.74794,0.6778 -0.33179,-0.0799 -0.35242,-0.0423 -0.11538,0.20217 0.23342,0.2406 0.21511,0.34837 -0.0996,0.58331 -0.21216,0.15849 -0.67319,0.86817 -1.02444,1.5771 -0.35125,0.70893 -0.95947,1.85942 -1.35154,2.55664 -0.39208,0.69723 -0.67976,1.36884 -0.63913,1.49242 0.0405,0.12361 -0.38439,0.54982 -0.94424,0.94723 -0.75829,0.53805 -1.02823,0.62467 -1.05774,0.33942 z m -51.57278,1.26018 c -0.27652,-0.43108 -0.20734,-1.07907 0.46875,-4.39155 1.23475,-6.04896 1.36932,-6.60972 1.57185,-6.56119 0.1059,0.0253 0.17776,-0.16038 0.15993,-0.41287 -0.0571,-0.80474 0.64799,-4.12639 0.83577,-3.93688 0.0984,0.0993 0.2456,-0.0967 0.32724,-0.4355 0.0888,-0.36866 0.23252,-0.53121 0.35779,-0.40475 0.11511,0.11663 0.0754,0.70148 -0.0884,1.30045 -0.66871,2.4472 -2.81832,13.46087 -2.69816,13.82699 0.0277,0.084 -0.0993,0.46001 -0.28149,0.83631 -0.31534,0.65064 -0.34748,0.65935 -0.65597,0.17834 z m 20.27322,13.76915 c -0.48707,-0.90351 -0.39042,-2.71889 0.2377,-4.46304 0.0909,-0.25196 0.22816,-1.07246 0.30523,-1.82335 0.12706,-1.23727 0.20201,-1.40001 0.80094,-1.73787 0.43483,-0.24521 0.81431,-0.28358 1.10969,-0.11196 0.86481,0.50232 0.94997,0.95539 0.54725,2.91216 -0.26242,1.27372 -0.30918,2.10649 -0.14271,2.52982 0.16255,0.4134 0.14843,0.70556 -0.0408,0.84691 -0.15894,0.11879 -0.37002,0.41159 -0.46909,0.65084 -0.29845,0.7204 -1.35105,1.66687 -1.77373,1.5949 -0.21777,-0.0373 -0.47626,-0.21634 -0.57445,-0.39841 z m -22.69288,-4.64534 c -0.3633,-0.34834 -0.95742,-2.75309 -0.88025,-3.56263 0.0254,-0.26768 0.16121,-0.59906 0.30169,-0.73642 0.16359,-0.15989 0.1238,-0.28139 -0.11145,-0.33807 -0.25079,-0.0604 -0.313,-0.31177 -0.19675,-0.79428 0.11909,-0.49426 0.0556,-0.73349 -0.2117,-0.79788 -0.30196,-0.0728 -0.30742,-0.14784 -0.0263,-0.35764 0.24727,-0.1847 0.29056,-0.33118 0.14248,-0.48072 -0.30345,-0.30636 0.0807,-0.60797 0.61151,-0.48008 0.49159,0.11844 0.77902,0.87536 0.60567,1.59488 -0.11499,0.4773 0.21211,2.15253 0.34074,1.74519 0.0596,-0.18832 0.20814,0.39976 0.23469,0.92788 0.003,0.0693 0.0376,0.68348 0.0756,1.36486 0.075,1.34072 -0.0916,2.37023 -0.37085,2.29086 -0.097,-0.0234 -0.32779,-0.1965 -0.51489,-0.37589 z m 102.89545,60.23836 c -0.009,-0.29761 -0.20633,-0.64272 -0.43771,-0.76673 -0.23125,-0.12416 -0.37631,-0.40908 -0.32227,-0.6334 0.054,-0.22432 -0.0532,-0.5932 -0.23827,-0.81966 -0.5216,-0.63841 0.0599,-0.38888 0.78976,0.33889 0.35881,0.35775 0.61785,0.79387 0.57562,0.96913 -0.0423,0.17525 0.17327,0.5143 0.47881,0.75333 0.44443,0.34772 0.48177,0.4768 0.1869,0.64515 -0.28819,0.16454 -0.37726,0.13428 -0.40812,-0.13833 -0.0333,-0.29452 -0.0837,-0.30667 -0.32355,-0.078 -0.2201,0.20993 -0.288,0.14903 -0.30119,-0.27035 z m 0.81755,1.07665 c 0.19837,-0.12235 0.40566,-0.14886 0.46063,-0.0589 0.0549,0.0897 -0.10714,0.19011 -0.36063,0.22246 -0.36617,0.0469 -0.38664,0.0134 -0.1,-0.16348 z m -7.49018,9.32956 c -0.0465,-0.3553 0.16324,-0.60746 0.44763,-0.53893 0.0798,0.0192 0.0946,0.24688 0.0322,0.50574 -0.13073,0.54266 -0.41071,0.56205 -0.47984,0.0332 z m 8.68843,2.76457 c -0.57564,-0.26171 -0.59227,-0.59338 -0.0333,-0.66646 0.208,-0.0272 0.50097,0.15181 0.65124,0.397 0.29849,0.48784 0.31801,0.68945 0.0557,0.57354 -0.0928,-0.041 -0.39588,-0.17805 -0.67362,-0.30408 z M 229.22866,322.62142 c 0.1645,-0.23896 0.14139,-0.32124 -0.0717,-0.25159 -0.37847,0.12421 -0.28844,-0.38639 0.14125,-0.80397 0.16626,-0.16137 0.36465,-0.19153 0.44078,-0.067 0.0762,0.1245 -0.0229,0.27947 -0.22046,0.34424 -0.25126,0.0825 -0.29247,0.18493 -0.13738,0.34149 0.27294,0.27546 0.14332,0.92231 -0.1694,0.84697 -0.12535,-0.0302 -0.11785,-0.2148 0.0162,-0.41034 z m -0.33514,1.42795 c -0.0716,-0.11717 -0.0911,-0.3753 -0.0433,-0.57375 0.0638,-0.26481 0.1399,-0.2744 0.28566,-0.0359 0.10923,0.17869 0.12874,0.43681 0.0433,0.57375 -0.0854,0.13685 -0.21404,0.15307 -0.28565,0.036 z m 0.47342,1.81245 c -0.32831,-0.34374 -0.33691,-1.31385 -0.0127,-1.42028 0.1586,-0.0521 0.23256,0.11026 0.16939,0.37247 -0.0616,0.25575 -5e-5,0.53486 0.13679,0.62028 0.13694,0.0855 0.17674,0.2689 0.0886,0.40758 -0.0885,0.13859 -0.26011,0.14764 -0.38207,0.02 z m 194.70941,47.82211 c -0.29248,-0.3519 -0.44873,-0.72209 -0.34726,-0.82262 0.10157,-0.10061 0.0131,-0.22414 -0.19618,-0.27457 -0.20945,-0.0505 -0.29097,-0.18069 -0.18131,-0.28938 0.10976,-0.10877 0.0382,-0.48335 -0.15848,-0.83244 -0.24847,-0.4405 -0.26325,-0.66585 -0.048,-0.73651 0.20193,-0.0663 0.1641,-0.17897 -0.1085,-0.3234 -0.36098,-0.19115 -0.34631,-0.20815 0.10718,-0.12387 0.36186,0.0676 0.70186,0.49791 1.09359,1.38539 0.31268,0.70825 0.49897,1.35662 0.41398,1.44078 -0.0852,0.0842 -0.0287,0.32191 0.12579,0.52837 0.29636,0.39666 0.2999,0.82216 0.006,0.73812 -0.097,-0.0233 -0.41399,-0.33789 -0.70647,-0.68979 z m 27.676,9.39345 c -0.51699,-0.41187 -1.1747,-1.06572 -1.46167,-1.45301 -0.28696,-0.38738 -0.67053,-0.68477 -0.85235,-0.66102 -0.18173,0.0238 -0.4736,-0.21925 -0.64859,-0.5401 -0.17487,-0.32089 -0.39466,-0.60186 -0.48834,-0.62443 -0.20172,-0.0486 -2.43616,-2.19367 -2.77591,-2.66487 -0.12959,-0.17977 -0.34195,-0.29191 -0.47188,-0.24926 -0.12998,0.0424 -0.32929,-0.11132 -0.44267,-0.34284 -0.11354,-0.23127 -0.35223,-0.45553 -0.53051,-0.49849 -0.17828,-0.043 -0.27037,-0.30124 -0.20469,-0.57387 0.0824,-0.34186 8.6e-4,-0.48035 -0.26237,-0.44589 -0.3194,0.0417 -0.31655,-0.0141 0.0176,-0.34262 0.49899,-0.48976 0.58196,-0.46809 1.12614,0.29354 0.28989,0.40622 0.63611,0.61585 1.01094,0.61229 0.45048,-0.004 0.54645,0.0925 0.45736,0.46229 -0.0773,0.32086 0.009,0.45179 0.27612,0.41685 0.21378,-0.0276 0.50156,0.0995 0.63914,0.28413 0.13757,0.18426 0.33667,0.2821 0.44239,0.21743 0.10562,-0.0646 0.16294,0.003 0.12715,0.15224 -0.0358,0.14837 0.33015,0.60587 0.81317,1.01665 0.4829,0.41086 0.92548,0.90426 0.98353,1.09647 0.0674,0.22381 0.45044,0.39991 1.06456,0.48974 0.52745,0.0773 0.9417,0.21265 0.92025,0.30171 -0.0213,0.0886 0.37681,0.52875 0.8847,0.97798 0.50797,0.44924 0.90636,0.88808 0.8854,0.97504 -0.021,0.087 0.12578,0.44872 0.32603,0.80374 0.40687,0.72134 0.15786,1.32173 -0.47877,1.15448 -0.22852,-0.0639 -0.84001,-0.44656 -1.35701,-0.85833 z m -17.30675,12.41677 c -0.33854,-0.29944 -0.66382,-0.71631 -0.72282,-0.92636 -0.0589,-0.20994 -0.28712,-0.42581 -0.50698,-0.47958 -0.22003,-0.053 -0.66492,-0.32909 -0.98903,-0.61172 -0.3241,-0.28263 -0.93569,-0.59735 -1.35904,-0.69935 -0.42337,-0.102 -1.02353,-0.4058 -1.33369,-0.67511 -0.3101,-0.26921 -0.70806,-0.4707 -0.88427,-0.44772 -0.17629,0.0233 -0.345,-0.14535 -0.3749,-0.37469 -0.0302,-0.22922 -0.1563,-0.38328 -0.28063,-0.34247 -0.12449,0.0411 -0.15297,-0.15499 -0.0634,-0.43512 0.13377,-0.41874 0.31801,-0.4787 1.03453,-0.33684 0.47951,0.0951 0.85436,0.24495 0.83296,0.33376 -0.0713,0.29582 1.06927,1.21587 1.60685,1.29614 0.29189,0.0436 0.54998,0.22655 0.57346,0.40653 0.0258,0.19573 0.2973,0.34186 0.67524,0.36341 0.41834,0.0244 0.64976,0.16809 0.6834,0.42545 0.0284,0.21423 0.43374,0.61235 0.90161,0.8849 0.46788,0.27255 0.82922,0.58478 0.80298,0.69366 -0.0263,0.10896 0.16402,0.24903 0.42287,0.3114 0.25885,0.0624 0.49766,0.002 0.53069,-0.13581 0.033,-0.13702 0.13933,-0.1691 0.23635,-0.0711 0.2078,0.20972 0.18385,1.4304 -0.0271,1.38455 -0.079,-0.019 -0.36941,-0.0285 -0.64405,-0.0254 -0.27465,0.003 -0.77651,-0.23864 -1.11495,-0.5385 z M 305.60958,376.88373 c 0.0448,-0.18609 0.25498,-0.36098 0.46709,-0.38872 0.21218,-0.028 0.42113,-0.19794 0.46457,-0.37824 0.0434,-0.18021 0.29077,-0.27672 0.54954,-0.21437 0.25885,0.0624 0.44515,0.21925 0.41396,0.34872 -0.0312,0.12938 -0.15548,0.21144 -0.27613,0.18237 -0.12073,-0.0291 -0.33133,0.13219 -0.46804,0.35837 -0.30608,0.50629 -1.26936,0.58321 -1.15099,0.0919 z m 98.9328,56.18441 c -0.21234,-0.11338 -0.36219,-0.30496 -0.33331,-0.42485 0.0289,-0.11998 -0.0884,-0.25207 -0.26066,-0.29356 -0.17224,-0.0415 -0.39092,-0.40229 -0.48582,-0.80171 -0.095,-0.39943 -0.52205,-1.26307 -0.94898,-1.91919 -0.42701,-0.65615 -0.7455,-1.32109 -0.70779,-1.47761 0.0377,-0.15653 -0.14325,-0.3356 -0.40202,-0.39794 -0.25885,-0.0624 -0.44242,-0.2306 -0.40791,-0.37385 0.0346,-0.14333 -0.11677,-0.23702 -0.33613,-0.20836 -0.2195,0.0289 -0.31846,-0.0278 -0.22028,-0.12507 0.24566,-0.24332 -1.6003,-0.85393 -1.94459,-0.64326 -0.17442,0.10669 -0.31028,-0.0614 -0.36725,-0.45481 -0.0498,-0.34329 -0.12541,-0.50811 -0.1683,-0.36626 -0.11065,0.36706 -1.26889,-0.20205 -1.51314,-0.7435 -0.11007,-0.24413 -0.2108,-0.89456 -0.22369,-1.44542 -0.0309,-1.3131 -0.32273,-2.59991 -0.87993,-3.87982 -0.24859,-0.57093 -0.3594,-1.12974 -0.24625,-1.24187 0.11322,-0.11201 0.15596,-0.35586 0.0949,-0.54168 -0.12025,-0.36614 0.4162,-2.47247 0.70201,-2.75518 0.0959,-0.0955 0.0836,-0.26575 -0.0286,-0.37882 -0.11193,-0.11319 -0.12855,-0.51685 -0.0368,-0.89745 0.0942,-0.39093 0.0399,-0.72758 -0.1247,-0.77381 -0.15979,-0.0474 0.29072,-0.22633 1.00237,-0.40298 1.03698,-0.2573 1.31844,-0.24896 1.41761,0.042 0.10251,0.30062 0.1377,0.30768 0.20526,0.0405 0.0589,-0.24449 0.14301,-0.23943 0.33561,0.0187 0.13988,0.18721 0.75721,0.53124 1.37189,0.76449 0.61456,0.2334 1.21281,0.62963 1.32939,0.88075 0.11656,0.25121 0.26663,0.44186 0.33357,0.42376 0.37837,-0.10236 0.81588,0.18589 0.74258,0.49012 -0.0468,0.19408 0.0208,0.37846 0.1503,0.40965 0.12939,0.0312 0.20124,0.19782 0.15967,0.3704 -0.0416,0.17256 0.16473,0.69838 0.45849,1.16855 0.29368,0.47016 0.50596,0.98416 0.47169,1.14222 -0.0378,0.15729 0.12209,0.45184 0.34759,0.65266 0.22547,0.20091 0.38655,0.46213 0.35803,0.58051 -0.0754,0.31329 0.8615,2.78999 1.17384,3.10266 0.14617,0.14634 0.17972,0.35132 0.0745,0.4555 -0.10513,0.10427 -0.0659,0.39491 0.088,0.64611 0.15364,0.25116 0.23242,0.6514 0.17506,0.8895 -0.0574,0.23811 0.17003,0.80554 0.50528,1.26108 0.56076,0.7618 0.62542,0.79418 0.80631,0.40307 0.11688,-0.25265 0.20471,0.0938 0.21651,0.85505 0.0126,0.81944 0.24379,1.67161 0.64226,2.36799 0.67504,1.17966 0.60732,2.43887 -0.15121,2.81117 -0.22361,0.10978 -0.4949,0.42222 -0.60294,0.69434 -0.15599,0.39284 -0.35387,0.45637 -0.96061,0.30823 -0.42059,-0.10133 -0.78355,-0.10611 -0.80726,-0.008 -0.0455,0.18888 -0.36713,0.11699 -1.00409,-0.22413 z M 241.37645,397.5539 c 0.0138,-0.0571 0.14672,-0.14368 0.29537,-0.19249 0.14862,-0.0487 0.24343,0.0231 0.21033,0.16045 -0.033,0.13703 -0.16598,0.22367 -0.29536,0.1925 -0.12939,-0.0312 -0.224,-0.10374 -0.21034,-0.16046 z m 146.83287,39.60289 c -0.15528,-1.01141 0.0688,-2.56231 0.38517,-2.66618 0.1385,-0.0457 0.31302,-0.33732 0.38803,-0.64868 0.14942,-0.62021 1.09955,-1.03915 1.25856,-0.55496 0.0509,0.15396 -0.10427,1.18952 -0.34387,2.30136 -0.41513,1.92603 -0.78725,2.58726 -1.03361,1.83659 -0.0828,-0.25223 -0.16967,-0.23182 -0.32495,0.0766 -0.17606,0.3496 -0.23172,0.29139 -0.32933,-0.34469 z m -82.77289,-19.39515 c -0.13424,-0.21689 -0.40061,-0.5008 -0.59166,-0.63101 -0.44807,-0.3053 -0.33821,-1.76521 0.13759,-1.82739 0.18948,-0.0245 0.36916,-0.14716 0.39921,-0.27193 0.11222,-0.46578 0.86219,-0.71178 1.35856,-0.4457 0.31308,0.16788 0.47019,0.16662 0.41436,-0.003 -0.0554,-0.16882 0.13,-0.17428 0.48296,-0.0144 0.31509,0.14258 0.59253,0.41042 0.61664,0.59481 0.024,0.18446 0.2007,0.31485 0.39252,0.28978 0.54456,-0.0712 0.3828,1.62519 -0.18831,1.97454 -0.24627,0.15064 -0.56122,0.24659 -0.69993,0.21317 -0.13863,-0.0334 -0.27907,0.0514 -0.31208,0.18847 -0.033,0.13703 -0.14764,0.16079 -0.25468,0.0528 -0.10696,-0.10843 -0.49072,-0.0907 -0.85276,0.0391 -0.55205,0.19751 -0.69744,0.1719 -0.90242,-0.15873 z M 198.59336,392.9164 c -0.0655,-0.10706 -0.0928,-0.30414 -0.0606,-0.43789 0.0355,-0.14745 0.14179,-0.10709 0.27001,0.10238 0.11617,0.19005 0.14346,0.38711 0.0605,0.43789 -0.0834,0.051 -0.20449,0.005 -0.26993,-0.10238 z m -2.12862,0.83568 c -0.0486,-0.92588 0.0921,-1.10915 0.82955,-1.08038 0.92292,0.036 1.21068,0.38947 0.82992,1.01945 -0.19774,0.32704 -0.47163,0.40933 -0.96606,0.29021 -0.3795,-0.0914 -0.69144,-0.19502 -0.69341,-0.22928 z m 222.02694,-75.16007 c 0.0312,-0.12938 -0.0493,-0.26077 -0.17865,-0.29194 -0.12938,-0.0312 -0.26084,0.0492 -0.29201,0.17855 -0.0312,0.12947 0.0493,0.26086 0.17864,0.29203 0.12938,0.0312 0.26083,-0.0492 0.29202,-0.17864 z m -80.35444,84.05751 c 0.24524,-0.54637 0.28349,-0.89254 0.11595,-1.06127 -0.18463,-0.18635 -0.16823,-0.27654 0.0646,-0.35282 0.46968,-0.15414 0.0418,-0.86597 -1.00078,-1.66473 -0.48416,-0.37097 -0.89642,-0.90018 -0.91599,-1.1761 -0.0198,-0.27589 -0.11669,-0.52112 -0.21582,-0.545 -0.34691,-0.0836 -0.53433,0.17741 -0.43574,0.60652 0.0547,0.23808 0.13218,0.88886 0.17214,1.44616 0.0843,1.17564 0.45907,2.20776 0.83914,2.31053 0.14669,0.0353 0.26922,0.29679 0.27459,0.57187 0.0163,0.84362 0.70067,0.75968 1.10229,-0.13507 z m -2.52825,11.86623 c 0.10076,-0.47361 0.10076,-0.47361 -0.21517,-0.0519 -0.1736,0.23206 -0.35968,0.57934 -0.41359,0.77178 -0.0873,0.31088 -0.063,0.31676 0.21516,0.0519 0.17222,-0.16394 0.35837,-0.51119 0.4136,-0.77177 z m -8.15358,16.40706 c -0.44201,-0.31903 -1.28003,-1.62543 -1.00105,-1.56062 0.12804,0.0308 0.40481,-0.58997 0.61439,-1.3772 0.21309,-0.79964 0.51975,-1.47699 0.69533,-1.53461 0.19324,-0.0634 0.42447,-0.64533 0.60011,-1.51052 0.15716,-0.77408 0.44453,-1.59049 0.63803,-1.81437 0.19367,-0.22385 0.33756,-0.5403 0.31958,-0.70331 -0.0176,-0.16284 0.0957,-0.33821 0.25201,-0.38962 0.15655,-0.0513 0.34089,-0.32536 0.4097,-0.60879 0.17425,-0.72321 1.39287,-1.89351 1.67403,-1.60977 0.13508,0.13629 0.18888,0.11041 0.13176,-0.0632 -0.053,-0.16138 0.23944,-0.51674 0.64974,-0.78964 0.41031,-0.27298 0.80403,-0.73682 0.87487,-1.03088 0.18798,-0.78026 0.5607,-1.23955 0.80537,-0.99251 0.13044,0.13161 0.19328,0.0608 0.16153,-0.18118 -0.0283,-0.21796 0.0804,-0.47764 0.24284,-0.57664 0.1911,-0.1169 0.22562,-0.24984 0.0999,-0.37799 -0.10804,-0.1087 -0.31756,0.0334 -0.46574,0.31635 -0.25044,0.47827 -0.36329,0.48477 -1.60466,0.0917 -0.73432,-0.23292 -1.45367,-0.49406 -1.59823,-0.58107 -0.35597,-0.21421 -0.94956,-2.79307 -0.69991,-3.0404 0.1097,-0.10851 0.15216,-0.74969 0.0954,-1.42473 -0.0843,-0.99724 -0.0203,-1.34264 0.34148,-1.84164 0.24484,-0.33774 0.62219,-1.16901 0.83857,-1.84722 l 0.39329,-1.23322 -0.90268,-0.13481 c -1.28208,-0.19083 -1.36988,-0.79939 -0.56295,-3.89928 0.60608,-2.32751 0.61846,-2.50801 0.20923,-3.1044 -0.45739,-0.66729 -0.79339,-0.71241 -2.7866,-0.37498 -0.41565,0.0704 -0.88439,0.0395 -1.04153,-0.0687 -0.16401,-0.11329 -0.32372,-0.0389 -0.37503,0.17411 -0.0491,0.2039 -0.21067,0.2929 -0.35884,0.19765 -0.35822,-0.22996 -2.34583,0.7997 -2.62639,1.36057 -0.12172,0.24323 -0.44935,0.88664 -0.72805,1.42984 -0.27868,0.54311 -0.69186,1.58548 -0.91816,2.31633 -0.44627,1.44162 -0.93145,2.14086 -1.25717,1.81215 -0.11342,-0.11444 -0.086,-0.59969 0.0607,-1.07847 0.31772,-1.03462 -0.0215,-1.96457 -0.61061,-1.67545 -0.2074,0.10186 -0.51537,0.0899 -0.68449,-0.0265 -0.16906,-0.1163 -0.47084,-0.0894 -0.67038,0.0595 -0.19967,0.14915 -0.56184,0.22333 -0.80481,0.16479 -0.24298,-0.0585 -0.47931,0.0491 -0.5251,0.2391 -0.0471,0.19543 -0.20999,0.25841 -0.37484,0.14491 -0.16028,-0.11062 -0.82773,-0.0507 -1.48313,0.13266 -0.6553,0.18329 -1.34789,0.27049 -1.53892,0.19371 -0.5191,-0.20863 -0.99481,-1.08292 -0.65067,-1.19593 0.19006,-0.0624 0.23012,-0.20653 0.11985,-0.43105 -0.23462,-0.47806 0.26498,-0.88954 0.70922,-0.58383 0.26275,0.1809 0.44022,0.12205 0.61447,-0.20274 0.15021,-0.28035 0.52636,-0.45135 0.9729,-0.44226 0.539,0.0109 0.71989,-0.0968 0.69727,-0.41506 -0.0206,-0.29122 0.22586,-0.50837 0.76399,-0.67314 0.46776,-0.14322 0.77558,-0.3881 0.7485,-0.59525 -0.0295,-0.22453 0.10479,-0.30215 0.37089,-0.21413 0.23277,0.0765 0.57707,-0.0711 0.77924,-0.33504 0.19929,-0.26009 0.49531,-0.44087 0.65771,-0.40175 0.16241,0.0392 0.57524,-0.27343 0.91742,-0.69457 0.34218,-0.42114 0.75161,-0.77568 0.90974,-0.7878 0.30474,-0.0233 0.80006,0.64895 0.88188,1.19704 0.0934,0.62547 0.68987,-0.20794 0.81928,-1.14472 0.0968,-0.70046 0.19078,-0.85088 0.42843,-0.68722 0.38132,0.26245 0.41257,0.13052 0.23704,-0.98392 -0.12967,-0.80701 -0.0995,-0.90695 0.31038,-1.02998 0.37334,-0.11211 0.39284,-0.15764 0.10974,-0.25625 -0.18951,-0.0661 -0.43907,-0.12533 -0.55426,-0.13352 -0.11551,-0.007 -0.30915,-0.14472 -0.43031,-0.30743 -0.23036,-0.3083 -1.82414,-0.10604 -2.27371,0.28852 -0.12753,0.11204 -0.21134,0.11087 -0.18615,-0.003 0.11272,-0.50843 -0.82028,0.27591 -0.97747,0.82135 -0.11367,0.39433 -0.17923,0.45614 -0.18469,0.17401 -0.01,-0.52511 0.0167,-0.51566 -0.84919,-0.30184 -0.52279,0.12917 -0.9262,0.0555 -1.63681,-0.29915 l -0.94311,-0.4706 0.24261,-1.28739 c 0.1645,-0.87099 0.34817,-1.30125 0.56932,-1.33001 0.35605,-0.0466 0.96745,-2.12348 0.64785,-2.20048 -0.10317,-0.0249 0.0372,-0.87003 0.31187,-1.8782 0.5748,-2.10909 0.49534,-3.14891 -0.28831,-3.77408 -0.44447,-0.35456 -0.70187,-0.40671 -1.35939,-0.27506 -0.44608,0.089 -1.44077,0.0428 -2.21044,-0.10284 -0.89186,-0.16865 -1.47049,-0.16156 -1.59508,0.0194 -0.10795,0.15658 -0.38168,0.18442 -0.61006,0.062 -0.22784,-0.12245 -0.6092,-0.10322 -0.84726,0.0425 -0.23805,0.14567 -0.41193,0.17783 -0.38633,0.0716 0.0257,-0.10636 -0.31385,-0.28016 -0.75452,-0.38632 -0.44058,-0.10615 -0.78116,-0.1322 -0.75675,-0.0579 0.0247,0.0744 -0.53171,0.0127 -1.23563,-0.13689 -0.70388,-0.15002 -1.25527,-0.37442 -1.22509,-0.49969 0.0302,-0.12519 -0.15157,-0.10141 -0.40402,0.0532 -0.25231,0.15434 -0.55715,0.257 -0.67729,0.22805 -0.12023,-0.029 -0.25916,0.11606 -0.30887,0.32232 -0.0497,0.20626 -0.31547,0.3793 -0.59056,0.38467 -0.27525,0.006 -0.51672,0.0767 -0.53673,0.15862 -0.0824,0.3417 -1.75423,1.33683 -2.6156,1.55856 -0.51098,0.13148 -1.48477,0.45343 -2.16413,0.71557 -0.67934,0.26203 -1.82224,0.58822 -2.53974,0.72488 -0.71754,0.13656 -1.37684,0.31543 -1.46504,0.39739 -0.32069,0.29796 -1.09825,-0.16023 -1.60957,-0.94835 -0.45946,-0.70814 -0.47185,-0.84598 -0.10137,-1.12927 0.28288,-0.21631 0.31095,-0.28777 0.0851,-0.21683 -0.18724,0.0589 -0.30933,-0.008 -0.27492,-0.15069 0.034,-0.14106 0.23464,-0.27913 0.44592,-0.30672 0.21113,-0.0274 0.34156,-0.17985 0.28959,-0.33825 -0.0574,-0.17463 0.0323,-0.20057 0.22806,-0.0659 0.17757,0.12189 0.69066,0.0448 1.14041,-0.17194 0.44972,-0.21664 0.94321,-0.36771 1.09666,-0.33572 0.37872,0.0788 0.67603,-0.58667 0.59727,-1.33716 -0.04,-0.38166 0.0506,-0.68679 0.23843,-0.80143 0.16635,-0.10198 0.34855,-0.37597 0.40467,-0.60895 0.0562,-0.23297 0.24957,-0.38798 0.42978,-0.34456 0.18031,0.0435 0.42703,-0.0652 0.54831,-0.24134 0.12156,-0.17614 0.37657,-0.28272 0.56746,-0.23672 0.19088,0.046 0.56852,-0.11202 0.8393,-0.35116 0.27076,-0.23904 0.47074,-0.34518 0.4444,-0.23588 -0.0264,0.10939 0.14105,0.10599 0.37202,-0.008 0.23096,-0.11334 0.55029,-0.11642 0.70963,-0.007 0.2087,0.14362 0.29763,0.0334 0.31794,-0.39355 0.0169,-0.35443 0.13654,-0.56678 0.30483,-0.52623 0.15215,0.0366 0.23041,-0.0742 0.17392,-0.2463 -0.07,-0.21332 0.0448,-0.23367 0.3621,-0.0636 0.25568,0.13717 0.52987,0.14545 0.60959,0.0175 0.22707,-0.36362 0.63416,0.19812 0.5117,0.70642 -0.0605,0.25121 -0.18682,0.42488 -0.27975,0.38631 -0.48087,-0.19941 -0.74717,-0.0929 -1.00576,0.40083 -0.19133,0.36539 -0.39009,0.47272 -0.60342,0.32585 -0.175,-0.1204 -0.34453,-0.10968 -0.3768,0.0243 -0.0322,0.13375 0.11506,0.33636 0.32732,0.45008 0.34781,0.18647 0.34604,0.20008 -0.0191,0.13817 -0.2225,-0.0376 -0.44432,-0.19061 -0.49322,-0.33893 -0.0487,-0.1487 -0.21522,-0.29916 -0.36979,-0.33426 -0.17593,-0.0423 -0.17455,0.046 0.005,0.23132 0.23725,0.24463 0.21833,0.34603 -0.11061,0.59195 -0.21845,0.16321 -0.31009,0.31776 -0.20364,0.34341 0.10646,0.0257 0.0358,0.14302 -0.15681,0.26089 -0.6191,0.37879 -0.46563,0.60955 0.2378,0.35785 0.37491,-0.13414 0.87987,-0.13764 1.12226,-0.008 0.2422,0.13035 0.46125,0.15024 0.48635,0.0461 0.0252,-0.1046 0.39017,-0.22442 0.81102,-0.26623 0.42085,-0.0418 0.78955,-0.17708 0.8193,-0.30058 0.0297,-0.12343 0.39842,-0.2587 0.81927,-0.30051 0.42085,-0.0418 0.79866,-0.2149 0.83954,-0.38461 0.0409,-0.16971 0.31348,-0.38832 0.60578,-0.48582 0.45921,-0.15302 0.50065,-0.12579 0.30492,0.20031 -0.19912,0.33169 -0.17818,0.34367 0.17222,0.0984 0.21927,-0.15341 0.74231,-0.31017 1.16231,-0.34845 0.41998,-0.0382 0.80128,-0.22582 0.84729,-0.41679 0.0461,-0.19105 0.24312,-0.3114 0.43791,-0.26757 0.19542,0.0471 0.36703,-0.0999 0.38285,-0.32281 0.0158,-0.22437 0.87749,-0.94207 1.94671,-1.62176 1.57995,-1.00422 1.95145,-1.3574 2.10691,-2.00265 0.26425,-1.09683 0.26179,-1.14934 -0.0571,-1.13506 -0.15614,0.007 0.0758,-0.18912 0.51611,-0.43577 0.44008,-0.2467 0.90051,-0.42441 1.02326,-0.39484 0.12276,0.0296 0.25168,-0.0643 0.28645,-0.2086 0.0398,-0.16509 -0.17212,-0.17809 -0.57213,-0.035 -0.39077,0.13982 -0.74094,0.12071 -0.90977,-0.0497 -0.15094,-0.15237 -0.38507,-0.2406 -0.52034,-0.19648 -0.13523,0.0448 -0.30316,-0.0873 -0.37306,-0.29299 -0.1017,-0.29847 -0.14738,-0.29375 -0.22685,0.0236 -0.0527,0.21886 -0.009,0.48798 0.10081,0.59916 0.32149,0.32448 0.14139,0.61045 -0.4091,0.64947 -0.28075,0.0204 -0.47322,0.1492 -0.42787,0.28715 0.045,0.13788 -0.082,0.21128 -0.28256,0.16297 -0.20063,-0.0483 -0.54807,0.092 -0.77206,0.31188 -0.22401,0.2199 -0.5407,0.36771 -0.7037,0.32844 -0.16299,-0.0392 -0.32476,0.0467 -0.35953,0.19099 -0.10843,0.45007 -2.17302,1.47043 -2.28504,1.1292 -0.062,-0.1888 -0.37317,-0.30591 -0.81202,-0.30559 l -0.71149,6.8e-4 0.63927,-0.25916 c 0.35168,-0.14249 0.61882,-0.41636 0.59367,-0.60856 -0.0309,-0.23731 0.22698,-0.33556 0.80392,-0.30616 0.93836,0.048 1.12905,-0.17494 0.59074,-0.69052 -0.33716,-0.32293 -0.33432,-0.33469 0.0595,-0.24701 0.22643,0.0545 0.43901,-0.0139 0.47019,-0.14327 0.0312,-0.12938 0.21549,-0.19707 0.40965,-0.15029 0.19416,0.0467 0.38553,-0.0502 0.42537,-0.21558 0.0809,-0.33581 1.2243,-0.99461 1.58609,-0.91384 0.12772,0.0308 0.44281,-0.2056 0.69919,-0.52038 0.2563,-0.31481 0.5491,-0.55237 0.65067,-0.5279 0.10166,0.0245 0.36331,-0.18376 0.58164,-0.46274 0.82911,-1.05968 0.0135,-2.72284 -1.17204,-2.38985 -0.20976,0.0589 -0.75856,0.0835 -1.21944,0.0546 -0.97176,-0.0609 -2.46718,0.71526 -2.39801,1.24466 0.0649,0.49654 -1.31818,1.16995 -2.47342,1.20418 -0.52134,0.0155 -0.91705,0.12192 -0.8795,0.23648 0.0373,0.11451 -0.4491,0.28897 -1.08171,0.38769 -0.63259,0.0986 -1.16748,0.25146 -1.18871,0.3396 -0.0404,0.16735 -1.54591,0.23487 -3.6494,0.16375 -0.67912,-0.023 -1.74157,0.0515 -2.36099,0.16561 -0.61945,0.11416 -1.03457,0.11673 -0.92258,0.006 0.18053,-0.17891 -1.21111,-0.38477 -1.52854,-0.22612 -0.0597,0.0301 -0.2803,-0.0995 -0.49098,-0.28727 -0.21064,-0.18765 -0.40497,-0.24993 -0.43177,-0.1387 -0.0269,0.11149 -0.35425,0.0801 -0.72746,-0.0699 -0.37322,-0.15037 -0.5982,-0.35257 -0.49979,-0.45003 0.0982,-0.0975 -0.10479,-0.14099 -0.45165,-0.0964 -0.34675,0.0442 -0.68558,-0.01 -0.75297,-0.12007 -0.0674,-0.1102 -0.21644,-0.23695 -0.33118,-0.28166 -0.11478,-0.0446 -0.31121,-0.12032 -0.43683,-0.16747 -0.12554,-0.0471 -0.191,-0.27315 -0.14551,-0.50184 0.0725,-0.36361 0.0468,-0.36428 -0.20428,-0.005 -0.25671,0.36742 -0.29282,0.36529 -0.34318,-0.0205 -0.0309,-0.23706 -0.19738,-0.46508 -0.36979,-0.50662 -0.54266,-0.13074 -1.44132,-0.95634 -1.37044,-1.25901 0.0384,-0.1593 -0.18078,-0.42038 -0.48477,-0.57949 -0.30392,-0.15944 -0.51722,-0.43671 -0.47382,-0.61684 0.0434,-0.18005 -0.0696,-0.36318 -0.25105,-0.4069 -0.18147,-0.0437 -0.3657,-0.4395 -0.40937,-0.87955 -0.0437,-0.43998 -0.20775,-0.95561 -0.36442,-1.14581 -0.15674,-0.1903 -0.24835,-0.72919 -0.20364,-1.19774 0.0444,-0.46852 0.0901,-1.07373 0.10082,-1.34492 0.0103,-0.27141 0.17378,-0.61435 0.36343,-0.76209 0.25735,-0.20112 0.27642,-0.31128 0.0752,-0.43755 -0.20164,-0.12681 -0.16014,-0.23486 0.16702,-0.43498 0.23949,-0.14649 0.51018,-0.57641 0.60151,-0.95549 0.11256,-0.46721 0.28407,-0.66067 0.53284,-0.60073 0.20172,0.0486 0.32861,-0.0279 0.28204,-0.17002 -0.0467,-0.14217 0.22443,-0.36924 0.60254,-0.50446 0.37812,-0.13531 0.65476,-0.34566 0.61486,-0.46745 -0.04,-0.12182 0.17528,-0.19769 0.47843,-0.16866 0.36653,0.035 0.56122,-0.0894 0.58114,-0.37175 0.0224,-0.3107 0.12786,-0.3573 0.39402,-0.17397 0.24636,0.16958 0.33048,0.14807 0.26005,-0.0658 -0.0629,-0.19169 0.0462,-0.28017 0.27696,-0.22457 0.20937,0.0505 0.33969,-0.0334 0.28948,-0.18618 -0.14579,-0.44421 1.16118,-0.97133 1.72096,-0.69397 0.35467,0.17568 0.48142,0.14622 0.4486,-0.10571 -0.0426,-0.32636 1.16984,-0.24796 4.24751,0.27476 0.29606,0.05 0.55733,0.0119 0.58071,-0.0851 0.0234,-0.097 0.19384,-0.14006 0.37867,-0.0955 0.18493,0.0446 0.53475,-0.0404 0.77748,-0.18898 0.41442,-0.25351 3.42613,0.0468 4.71207,0.46997 1.45223,0.47789 1.80536,0.63043 2.0546,0.88765 0.15313,0.15805 0.35869,0.20588 0.47058,0.11337 0.10972,-0.0938 0.81804,-0.0467 1.57344,0.10466 1.04908,0.21009 1.59145,0.17897 2.29588,-0.13151 0.50733,-0.22366 1.04477,-0.37713 1.19432,-0.3411 0.14955,0.036 0.29738,-0.0403 0.32858,-0.16983 0.0312,-0.12938 0.2042,-0.1997 0.3845,-0.15626 0.18022,0.0434 0.42584,-0.0636 0.54575,-0.23777 0.12019,-0.17418 0.35999,-0.21907 0.53346,-0.0997 0.44758,0.3081 1.25914,0.0252 1.38362,-0.48225 0.0639,-0.26532 0.31433,-0.40882 0.65279,-0.37653 0.30112,0.029 0.57131,-0.0462 0.60034,-0.16658 0.029,-0.12039 0.16018,-0.19298 0.29158,-0.16131 0.13133,0.0316 0.84391,-0.30089 1.58343,-0.73893 0.7395,-0.43796 1.46679,-0.76694 1.61609,-0.73096 0.14938,0.036 0.49483,-0.2729 0.76778,-0.68636 0.27289,-0.41357 0.64052,-0.7171 0.81687,-0.67462 0.17635,0.0425 0.57129,-0.11571 0.87771,-0.3515 0.30633,-0.23581 0.85162,-0.48899 1.21168,-0.5626 0.36006,-0.0736 0.52407,-0.17287 0.36436,-0.22059 -0.15971,-0.0474 -0.26307,-0.19983 -0.2298,-0.33795 0.0347,-0.14384 0.24573,-0.13921 0.49378,0.0108 0.33257,0.20101 0.42112,0.16812 0.38062,-0.14049 -0.0285,-0.22128 0.0644,-0.3742 0.20788,-0.33963 0.14333,0.0346 0.30569,-0.12245 0.36102,-0.34877 0.0549,-0.22795 0.77784,-0.68936 1.61844,-1.03407 0.8348,-0.34245 1.53576,-0.69679 1.55762,-0.78754 0.0219,-0.0906 0.36651,-0.15828 0.7659,-0.15015 0.81084,0.0164 1.17406,-0.20277 1.55287,-0.93679 0.26912,-0.52115 0.009,-0.78631 -0.31972,-0.32593 -0.1045,0.14594 -0.1157,-0.0777 -0.0256,-0.49632 0.12965,-0.60452 0.077,-0.75047 -0.25676,-0.70678 -0.2791,0.0364 -0.36095,-0.0407 -0.24316,-0.22935 0.0973,-0.15648 0.42518,-0.31367 0.72789,-0.34954 0.42403,-0.0502 0.50174,0.005 0.3386,0.24238 -0.11649,0.1699 -0.0587,0.41318 0.13079,0.54336 0.18829,0.12981 0.30688,0.38328 0.26345,0.56358 -0.16489,0.6844 0.35537,0.39265 0.71042,-0.39846 0.27656,-0.61625 0.40569,-0.72791 0.50671,-0.43804 0.11681,0.335 0.17944,0.34768 0.45224,0.0921 0.17421,-0.16337 0.35297,-0.44041 0.3972,-0.61554 0.043,-0.17828 0.21429,-0.22643 0.38318,-0.11017 0.34464,0.23725 0.81675,-0.28966 0.52415,-0.58496 -0.10534,-0.10627 -0.14258,-0.39632 -0.0828,-0.6445 0.23339,-0.96872 -2.41292,-2.42854 -4.02861,-2.22239 -0.34786,0.0444 -0.68258,-8.6e-4 -0.7438,-0.10097 -0.17666,-0.28879 -1.10108,-0.5348 -1.54002,-0.41014 -0.28716,0.0817 -0.31403,0.13715 -0.0942,0.19553 0.16946,0.0409 0.22162,0.16523 0.11816,0.26777 -0.1038,0.10246 -0.10088,0.27482 0.007,0.38304 0.10704,0.10846 0.0868,0.35337 -0.0451,0.54507 -0.16032,0.23304 -0.13523,0.31411 0.0764,0.24474 0.21971,-0.0722 0.2522,0.16192 0.10655,0.7665 -0.2679,1.11197 -0.91922,1.44182 -1.68824,0.85484 -0.7769,-0.59306 -0.91151,-1.0512 -0.60927,-2.07363 0.14792,-0.49959 0.18627,-0.92815 0.0851,-0.95252 -0.10082,-0.0243 -0.18746,-0.25762 -0.19246,-0.51839 -0.004,-0.26071 -0.34876,-0.7485 -0.76384,-1.08371 -0.41498,-0.33529 -0.72726,-0.72306 -0.69385,-0.86178 0.0335,-0.13871 -0.0844,-0.51842 -0.26195,-0.84386 -0.41957,-0.76938 -0.42758,-1.97732 -0.0127,-1.91097 1.49444,0.23924 2.32017,0.46467 2.2821,0.6227 -0.0251,0.1041 0.11327,0.22757 0.30734,0.27433 0.19416,0.0468 0.32794,0.18888 0.29736,0.31582 -0.0306,0.12695 0.19248,0.3607 0.49559,0.51942 0.30319,0.15838 0.47988,0.35927 0.39268,0.44556 -0.0875,0.0863 0.0637,0.39341 0.33527,0.6824 0.27156,0.2889 0.5102,0.45698 0.53032,0.37347 0.02,-0.0831 0.15953,0.0127 0.30982,0.21385 0.21363,0.28588 0.47144,0.34372 1.18102,0.26498 0.49925,-0.0555 0.92809,-0.1854 0.953,-0.28883 0.0249,-0.10342 0.25081,-0.13851 0.50202,-0.078 0.2512,0.0605 0.54664,0.0208 0.65662,-0.088 0.12283,-0.12171 0.38301,-0.003 0.67513,0.30773 0.51736,0.55052 1.67759,1.06526 1.55431,0.68959 -0.0421,-0.12784 0.1686,-0.17513 0.4679,-0.10506 0.40211,0.0969 0.4725,0.0534 0.26862,-0.15707 -0.21651,-0.22337 -0.15976,-0.29255 0.26442,-0.32272 0.29708,-0.0211 0.57368,-0.1777 0.61469,-0.34793 0.041,-0.17038 0.31103,-0.31432 0.60003,-0.3199 0.28908,-0.006 0.48559,-0.13156 0.43682,-0.28002 -0.0487,-0.14845 0.0125,-0.30278 0.13514,-0.34328 0.36429,-0.11953 0.48056,-1.40651 0.28776,-3.18568 -0.16499,-1.52239 -0.14059,-1.68932 0.28426,-1.9492 0.42227,-0.25838 0.49009,-0.24248 0.74616,0.17087 0.15432,0.25239 0.3941,0.48617 0.53281,0.51959 0.13863,0.0334 0.22849,0.15852 0.19968,0.27807 -0.0288,0.11948 0.3035,0.13535 0.73841,0.0352 0.7883,-0.18147 1.30105,-1.01469 0.71602,-1.16328 -0.2197,-0.0529 -0.21262,-0.1019 0.0256,-0.18371 0.32371,-0.11091 0.63281,-0.80536 0.8036,-1.80578 0.0519,-0.3037 -0.006,-0.51927 -0.12813,-0.47915 -0.12223,0.0399 -0.14473,-0.2667 -0.0497,-0.68188 0.88915,-3.88615 1.03465,-5.30512 0.67849,-6.63205 -0.49396,-1.84051 -0.1499,-2.88967 0.95342,-2.90653 0.5425,-0.009 0.87438,-0.18279 1.07439,-0.56467 0.48691,-0.92994 0.94805,-0.52655 0.68749,0.60148 -0.34911,1.51179 -0.35445,1.63726 -0.0612,1.54125 0.14862,-0.0487 0.24112,0.0323 0.20554,0.18001 -0.0356,0.14787 0.0784,0.25622 0.25321,0.24074 0.38492,-0.0341 0.58201,-1.33504 0.254,-1.67675 -0.14866,-0.15484 -0.0903,-0.20603 0.16705,-0.14652 0.48117,0.10703 1.43443,-0.9695 1.65141,-1.87015 0.0869,-0.36069 0.27964,-0.69578 0.42829,-0.74459 0.14871,-0.0487 0.29588,-0.19459 0.32707,-0.32407 0.0312,-0.12938 -0.0649,-0.19538 -0.21368,-0.14658 -0.28583,0.0939 -0.27816,0.0403 0.57117,-3.95877 0.28899,-1.36182 0.60842,-3.10762 0.70952,-3.87957 0.14885,-1.13734 0.25876,-1.41354 0.58053,-1.45549 0.62808,-0.0821 0.91646,0.54401 0.69334,1.5055 -0.10869,0.48806 -0.24208,1.60478 -0.28707,2.48403 -0.0973,1.90616 -0.17512,2.94364 -0.25526,3.40319 -0.0583,0.33424 0.47049,1.37893 0.72943,1.44131 0.0731,0.0176 0.11738,-0.19573 0.0974,-0.47442 -0.026,-0.36486 0.0714,-0.48078 0.34671,-0.41445 0.21046,0.0507 0.34597,-0.0196 0.30115,-0.15634 -0.12126,-0.36932 0.7682,-0.83124 1.1262,-0.5849 0.17383,0.12011 0.22183,0.42671 0.10931,0.70041 -0.22882,0.55682 0.36309,1.55093 0.9393,1.57748 0.45104,0.0206 0.67638,-0.5449 1.51816,-3.81088 0.34839,-1.35382 0.73924,-2.50496 0.86742,-2.55844 0.1282,-0.0536 0.15431,-0.33421 0.0575,-0.62397 -0.25723,-0.77161 0.74829,-1.89164 1.52939,-1.70345 0.38698,0.0932 0.53321,0.26704 0.45959,0.54639 -0.063,0.22449 -0.16311,0.87257 -0.23025,1.43829 -0.067,0.56584 -0.1964,1.01077 -0.28714,0.98891 -0.0906,-0.0218 -0.36056,0.65939 -0.60008,1.51372 -0.2396,0.85432 -0.53544,1.65127 -0.65762,1.771 -0.67797,0.66443 -0.49964,1.87829 0.31198,2.12503 0.31296,0.095 0.59168,0.0786 0.61963,-0.0375 0.0279,-0.1157 0.2625,-0.15935 0.52135,-0.097 0.26146,0.063 0.50837,-0.0435 0.55561,-0.23959 0.0468,-0.19416 0.17418,-0.33147 0.28307,-0.30524 0.21398,0.0516 1.3928,-1.94606 1.9617,-3.32409 0.23204,-0.56208 0.47479,-0.81916 0.71802,-0.76057 0.21811,0.0525 0.34838,-0.0576 0.3205,-0.27097 -0.0528,-0.40376 1.45048,-1.54308 1.89468,-1.43607 0.15786,0.038 0.24397,-0.0622 0.19126,-0.22273 -0.0527,-0.16052 0.3108,-0.5344 0.80783,-0.83076 0.49702,-0.29636 0.94483,-0.71169 0.99502,-0.92299 0.14987,-0.62206 1.39565,-2.40762 1.71165,-2.44891 0.57836,-0.0757 2.4356,0.74048 2.36375,1.03866 -0.0394,0.16349 0.0857,0.40546 0.27794,0.53773 0.28966,0.1994 0.27106,0.44488 -0.10847,1.43207 -0.8557,2.22569 -1.44576,3.93873 -1.6265,4.72216 -0.22415,0.97093 0.40269,1.99461 1.5313,2.50111 0.44536,0.19993 0.89546,0.5378 1.00003,0.75091 0.1521,0.3099 0.35448,0.36978 1.0109,0.29956 0.45152,-0.0485 0.93393,-0.19636 1.07208,-0.3285 0.13817,-0.13222 0.40946,-0.1314 0.60297,0.002 0.26719,0.18385 0.3378,0.1365 0.29419,-0.19829 -0.0317,-0.24222 0.0778,-0.59943 0.24366,-0.79369 0.71181,-0.83549 1.12187,-1.4882 1.70821,-2.71873 0.34313,-0.72022 0.80617,-1.42088 1.02886,-1.55711 0.34541,-0.21128 0.36372,-0.31532 0.12404,-0.70668 -0.1544,-0.25241 -0.25843,-0.55117 -0.23122,-0.66409 0.0272,-0.11283 -0.21805,-0.46455 -0.54507,-0.78157 -0.32694,-0.31701 -0.52947,-0.64083 -0.44994,-0.71963 0.0794,-0.0788 -0.0453,-0.44063 -0.27739,-0.8042 l -0.42186,-0.66095 0.79136,-1.57823 c 1.0306,-2.05501 0.99484,-2.01838 1.81627,-1.86368 0.76005,0.14311 1.16014,0.73651 1.03035,1.52758 -0.0705,0.42909 -0.0564,0.43701 0.13557,0.0771 0.11819,-0.22123 0.33475,-0.31946 0.4819,-0.21814 0.14726,0.10126 0.43975,0.12551 0.64992,0.0542 0.28603,-0.0973 0.30613,-0.14936 0.08,-0.20668 -0.195,-0.047 -0.0868,-0.21924 0.30136,-0.47604 0.33213,-0.21964 0.66286,-0.64417 0.73492,-0.94327 0.0721,-0.29917 0.2117,-0.52448 0.31084,-0.5006 0.0989,0.0238 0.47853,-0.35353 0.84355,-0.83851 0.45629,-0.60619 0.69963,-0.77273 0.77836,-0.53278 0.15222,0.46363 0.54324,0.0767 0.47206,-0.46691 -0.0294,-0.22479 0.0506,-0.38372 0.17854,-0.35291 0.12753,0.0308 0.43999,-0.23011 0.69442,-0.57958 0.25434,-0.3495 0.56679,-0.61033 0.69432,-0.57961 0.12763,0.0308 0.21107,-0.10382 0.18559,-0.29912 -0.0747,-0.57109 0.97449,-2.02693 1.44793,-2.00922 0.51924,0.0195 1.32435,-0.43324 1.64774,-0.92656 0.34645,-0.52847 1.37495,-0.0658 1.88843,0.84948 0.36385,0.64857 0.3731,0.93633 0.0595,1.85177 -0.22496,0.65704 -0.70229,1.38492 -1.21197,1.84855 -0.73748,0.6709 -1.08881,1.21962 -0.95271,1.48824 0.0237,0.0457 -0.58376,0.47227 -1.34866,0.94776 -0.76498,0.47547 -1.42632,1.01145 -1.46959,1.19108 -0.0433,0.17963 -0.23749,0.2884 -0.43165,0.24162 -0.19408,-0.0467 -0.40532,0.0984 -0.46938,0.32258 -0.0638,0.22428 -0.39578,0.67642 -0.73725,1.00492 -0.7829,0.75312 -0.74217,0.69813 -1.98152,2.67654 -0.57152,0.91222 -1.09135,1.87512 -1.15509,2.13969 -0.0638,0.26465 -0.47571,1.01335 -0.91547,1.66388 -0.43976,0.65053 -0.75913,1.30607 -0.70971,1.45665 0.0499,0.1507 -0.0347,0.24382 -0.18673,0.2072 -0.15913,-0.0384 -0.27255,0.14208 -0.26709,0.42493 0.006,0.32555 -0.14058,0.50233 -0.43656,0.5232 -0.32666,0.0232 -0.50599,0.28043 -0.67002,0.9613 -0.12317,0.51123 -0.14983,0.90599 -0.0586,0.8774 0.0914,-0.0287 0.26637,0.12818 0.38969,0.34909 0.14428,0.25824 0.13213,0.37914 -0.0346,0.33899 -0.14215,-0.0342 -0.2179,0.0614 -0.16827,0.21253 0.15956,0.48629 0.63752,0.11448 0.63168,-0.49149 -0.004,-0.42846 0.13878,-0.62401 0.5282,-0.72576 0.29346,-0.0765 0.58374,-0.34712 0.64501,-0.60144 0.14609,-0.60634 0.72119,-0.44939 1.1956,0.32627 0.28507,0.46603 0.29432,0.64605 0.0378,0.73029 -0.25927,0.0851 -0.25839,0.31608 0.003,0.96728 0.18923,0.47051 0.43402,0.87723 0.54407,0.90374 0.10998,0.0265 0.36869,0.16439 0.5749,0.30617 0.29631,0.20392 0.36228,0.16106 0.31456,-0.20317 -0.0491,-0.37576 0.027,-0.41441 0.41112,-0.20843 0.43968,0.23571 0.4803,0.18149 0.60376,-0.80801 l 0.13246,-1.06085 1.062,0.18119 c 0.8512,0.14552 1.151,0.0793 1.51062,-0.33306 1.78212,-2.0433 1.9105,-2.25478 2.3818,-3.92469 0.28068,-0.99527 0.58429,-1.68839 0.71314,-1.62917 0.12332,0.0564 0.42241,-0.12357 0.66478,-0.40049 0.42166,-0.48163 0.46174,-0.48086 0.92957,0.0169 0.26886,0.28612 0.46367,0.69735 0.43293,0.91385 -0.1998,1.40599 -0.38262,1.8833 -0.89661,2.34563 -0.31893,0.28664 -0.62058,0.69008 -0.67033,0.89659 -0.0498,0.20652 -0.17851,0.35426 -0.28605,0.32835 -0.25062,-0.0604 -1.28056,1.81256 -1.53525,2.79187 -0.10818,0.41209 -0.26915,0.67475 -0.35983,0.5833 -0.0907,-0.0912 -0.2301,0.10457 -0.30989,0.43576 -0.0798,0.33119 -0.27778,0.57186 -0.44008,0.53489 -0.19903,-0.048 -0.20016,0.0309 -0.002,0.2352 0.25538,0.26313 0.24095,0.30935 -0.11054,0.35552 -0.2683,0.0351 -0.4142,0.25587 -0.43322,0.65584 -0.0178,0.36889 -0.1389,0.57652 -0.31105,0.53504 -0.15527,-0.0374 -0.27016,0.0739 -0.25537,0.24711 0.0151,0.17343 -0.23324,0.75781 -0.5513,1.29872 -0.87768,1.49263 -1.49559,3.37665 -1.13583,3.46333 0.1624,0.0392 0.2074,0.12464 0.0998,0.19081 -0.47165,0.28843 1.39604,1.64236 3.02821,2.19506 1.06178,0.35954 2.04828,0.87811 2.66906,1.40298 0.54152,0.45795 1.15458,0.87357 1.36227,0.92361 0.20768,0.05 0.34941,0.20819 0.3149,0.35144 -0.0345,0.14325 0.11238,0.23757 0.32641,0.20958 0.22826,-0.0295 0.80547,0.45788 1.39623,1.18006 0.5538,0.67701 1.13919,1.26322 1.30087,1.30279 0.16172,0.039 0.25564,0.23067 0.20886,0.42483 -0.0468,0.19408 0.0684,0.38992 0.2559,0.4351 0.36984,0.0891 1.20343,1.77435 1.09675,2.21721 -0.036,0.14955 0.1463,0.32291 0.40515,0.38527 0.26146,0.063 0.43279,0.27022 0.38554,0.46632 -0.0468,0.19416 0.0208,0.37846 0.1503,0.40965 0.12938,0.0312 0.29909,-0.20795 0.37704,-0.5315 0.0882,-0.36606 0.27507,-0.55616 0.49469,-0.50324 0.19407,0.0467 0.38118,-0.0322 0.41571,-0.17551 0.0345,-0.14325 0.19893,-0.16666 0.36539,-0.0522 0.1664,0.11476 0.39772,0.0701 0.51389,-0.0985 0.1406,-0.20428 0.56749,-0.22098 1.27742,-0.05 0.90512,0.21807 1.30758,0.10827 1.1409,-0.3112 -0.0208,-0.0539 0.37509,-0.30423 0.88101,-0.55675 0.50587,-0.25263 0.95576,-0.60871 0.99976,-0.79137 0.044,-0.18256 0.27147,-0.28589 0.50546,-0.22952 0.23399,0.0563 0.83842,-0.24345 1.34316,-0.66632 0.50466,-0.42288 1.02539,-0.75123 1.15706,-0.72955 0.41107,0.0671 2.33012,-2.48818 2.68718,-3.57839 0.18736,-0.57107 0.45869,-1.07737 0.60377,-1.12501 0.1451,-0.0477 0.38459,-0.43811 0.53225,-0.86763 0.52689,-1.53242 1.09898,-2.69714 1.30095,-2.64848 0.11293,0.0272 0.25117,-0.14111 0.3073,-0.37408 0.0561,-0.23298 0.24165,-0.50901 0.41243,-0.61347 0.17067,-0.1044 0.40407,-0.54668 0.51852,-0.98295 0.11484,-0.43609 0.34775,-0.90213 0.5183,-1.03554 0.17054,-0.13341 0.26341,-0.31887 0.20631,-0.41209 -0.0566,-0.0936 0.24478,-0.36594 0.67071,-0.60591 0.42592,-0.23998 0.77853,-0.56715 0.7836,-0.72691 0.005,-0.15972 0.36979,-0.33573 0.81038,-0.39083 0.62501,-0.0782 0.79896,-0.21251 0.79131,-0.61064 -0.005,-0.28066 0.072,-0.42784 0.1717,-0.32709 0.1,0.10053 0.23409,-0.0348 0.29828,-0.30123 0.13305,-0.55224 0.38383,-0.56044 0.7358,-0.0241 0.20004,0.30465 0.24985,0.233 0.28318,-0.40718 0.0289,-0.55422 0.14788,-0.7909 0.41498,-0.82584 0.40742,-0.0532 0.92718,-1.67413 0.56473,-1.76145 -0.34875,-0.084 -0.33256,-0.79065 0.0297,-1.29966 l 0.34052,-0.47843 -0.11851,0.55832 c -0.0825,0.38681 -0.004,0.54324 0.25371,0.5095 0.22139,-0.0293 0.3858,0.14095 0.40554,0.41763 0.0479,0.67443 1.78253,1.7432 2.55116,1.57175 0.28735,-0.064 0.43843,-0.0111 0.40172,0.14122 -0.0322,0.13402 0.0567,0.27145 0.19764,0.30541 0.14106,0.034 0.38597,0.29629 0.54425,0.58279 0.45909,0.83109 1.77314,1.55632 2.4257,1.33867 0.45852,-0.15284 0.71094,-0.0298 1.6837,0.82068 0.62941,0.55032 1.11148,1.13698 1.07127,1.30383 -0.0402,0.16678 0.1301,0.35216 0.37829,0.41196 0.59383,0.14307 1.13842,0.52628 1.08182,0.76119 -0.0809,0.33581 1.05043,2.26482 1.7314,2.95202 0.5463,0.55137 0.6241,0.79927 0.43767,1.39483 -0.39811,1.27206 -0.36219,1.50339 0.36413,2.20525 0.39028,0.37804 0.74681,0.97916 0.79226,1.33581 0.0456,0.3566 0.21546,0.69043 0.37769,0.7417 0.16218,0.0515 0.67785,0.82894 1.14587,1.72813 0.46799,0.89928 1.09279,1.90816 1.38858,2.24192 0.29578,0.33377 0.51775,0.6909 0.49344,0.79367 -0.0247,0.10267 0.41678,0.94694 0.98026,1.87607 1.35516,2.23449 1.89925,3.26847 1.80333,3.42714 -0.043,0.0714 0.11455,0.25988 0.35088,0.41833 0.23624,0.15843 0.34441,0.3725 0.24034,0.4757 -0.10397,0.10313 -0.0171,0.29242 0.19385,0.42076 0.21074,0.12811 0.51823,0.60221 0.68344,1.05323 0.16522,0.45103 0.43268,0.8522 0.59433,0.8915 0.16182,0.039 0.27123,0.16597 0.24342,0.28141 -0.0278,0.11535 0.22314,0.35262 0.55764,0.52716 0.64483,0.33652 1.88143,1.70757 2.07283,2.29824 0.0628,0.19381 0.20419,0.3741 0.31426,0.40061 0.11005,0.0265 0.48529,0.48103 0.83387,1.01 0.92654,1.40613 1.10467,1.59804 1.82963,1.97163 1.26541,0.65192 2.16238,1.47933 2.45112,2.26111 0.16022,0.43373 0.37061,0.80798 0.46765,0.83172 0.097,0.0233 0.14893,0.15669 0.11552,0.29532 -0.0954,0.39588 0.40649,1.07602 0.87818,1.18992 0.59273,0.14281 1.43398,1.38419 1.21019,1.78506 -0.16331,0.29267 -0.14617,0.2968 0.15451,0.0373 0.21266,-0.18353 0.38274,-0.18878 0.45808,-0.0141 0.0659,0.15277 0.49297,0.58901 0.949,0.96938 2.2647,1.88888 2.7356,2.84656 1.47269,2.99529 -0.40127,0.0473 -0.69537,-0.10531 -1.03678,-0.53825 -0.26208,-0.33231 -0.56645,-0.61017 -0.67624,-0.61751 -0.5486,-0.0364 -0.79582,-0.27174 -0.91088,-0.86598 -0.0694,-0.35905 -0.28753,-0.69161 -0.48464,-0.7391 -0.62702,-0.15106 -2.96753,-1.74957 -3.15681,-2.15608 -0.10025,-0.21518 -0.30287,-0.42019 -0.45041,-0.45573 -0.14753,-0.0355 -0.24814,-0.14779 -0.2235,-0.25003 0.0682,-0.28297 -2.30753,-2.70991 -3.44566,-3.52005 -0.55477,-0.39482 -0.97714,-0.85038 -0.93865,-1.01231 0.039,-0.16173 -0.0682,-0.32756 -0.23699,-0.36822 -0.16888,-0.0407 -0.62232,-0.54213 -1.00772,-1.1142 -0.38539,-0.57208 -0.79323,-1.06245 -0.9064,-1.08971 -0.11318,-0.0272 -0.18104,-0.15215 -0.15085,-0.27751 0.0302,-0.12535 -0.11857,-0.20519 -0.33066,-0.17754 -0.21209,0.028 -0.36085,-0.0523 -0.33065,-0.17762 0.0303,-0.12543 -0.51446,-0.43817 -1.21034,-0.6949 -1.15338,-0.42544 -2.0401,-1.01056 -2.24879,-1.4837 -0.0442,-0.10086 -0.38037,-0.19778 -0.74628,-0.21535 -0.73729,-0.035 -1.73429,0.74889 -1.66139,1.30639 0.0255,0.19681 -0.15979,0.41974 -0.41166,0.49551 -0.42648,0.12793 -0.42919,0.14506 -0.038,0.24641 0.23213,0.0559 0.37127,0.23701 0.31128,0.39376 -0.23191,0.60469 -0.18149,0.88984 0.17188,0.97497 0.20173,0.0486 0.28381,0.1706 0.18244,0.27107 -0.10153,0.10043 0.15873,0.62076 0.57814,1.15605 0.4194,0.53537 0.73616,1.08282 0.70393,1.21657 -0.0717,0.29784 1.24589,2.49067 1.53903,2.5613 0.22709,0.0547 0.81617,1.09712 0.75755,1.34043 -0.0196,0.0815 0.10908,0.31874 0.286,0.52751 0.29721,0.35073 0.28274,0.41409 -0.19072,0.83222 l -0.51263,0.45261 -0.0888,-0.69681 c -0.0547,-0.42894 -0.24233,-0.70543 -0.48798,-0.71929 -0.21961,-0.012 -0.46906,-0.25878 -0.55462,-0.5475 -0.0856,-0.28872 -0.25313,-0.70119 -0.37235,-0.9166 -0.11929,-0.21549 -0.17077,-0.58294 -0.11446,-0.81668 0.0881,-0.3658 -0.0524,-0.44419 -1.01028,-0.56376 -0.75786,-0.0946 -1.14864,-0.24918 -1.22584,-0.48406 -0.20456,-0.62309 -0.87391,0.42656 -0.95781,1.50204 -0.0426,0.54203 -0.01,1.00173 0.0718,1.02143 0.27298,0.0658 0.51987,1.13783 0.30992,1.34584 -0.238,0.23592 -0.94328,-0.66729 -0.84373,-1.08048 0.0346,-0.14333 -0.15406,-0.52318 -0.41907,-0.8441 -0.265,-0.32093 -0.44078,-0.75397 -0.39067,-0.96234 0.10452,-0.43493 -0.98127,-0.86605 -1.51903,-0.60314 -0.93807,0.45856 -1.24229,3.55501 -0.48769,4.96309 0.17398,0.3246 0.28456,0.72201 0.24575,0.88307 -0.0388,0.16107 0.0511,0.25286 0.19983,0.20407 0.14862,-0.0487 0.231,0.0743 0.18284,0.27419 -0.048,0.19954 0.37085,0.75311 0.9309,1.2301 0.56007,0.4769 1.06143,0.99861 1.11418,1.15932 0.0526,0.16069 0.3,0.44616 0.54941,0.63443 0.49078,0.37043 1.1995,1.06458 1.34004,1.3125 0.42598,0.75155 1.22987,1.46285 1.64419,1.45475 0.32157,-0.006 0.46983,0.1043 0.41784,0.32006 -0.0436,0.18131 0.16846,0.57963 0.47143,0.88507 0.30296,0.30545 0.92101,1.09474 1.37343,1.7539 0.45245,0.65907 0.95881,1.23123 1.12525,1.27132 0.16643,0.0401 0.26685,0.22137 0.22313,0.40284 -0.0437,0.18148 0.21151,0.5172 0.56714,0.74609 0.35571,0.22891 0.61986,0.52758 0.58705,0.66377 -0.0328,0.13611 0.14587,0.29702 0.39708,0.35754 0.61416,0.14797 0.69371,0.49853 0.20671,0.91119 -0.37294,0.31603 -0.41932,0.28974 -0.65546,-0.3702 -0.14661,-0.40983 -0.47548,-0.76526 -0.77727,-0.84018 -0.42462,-0.10231 -0.44572,-0.15717 -0.11524,-0.27293 0.31916,-0.11192 0.27065,-0.17694 -0.22304,-0.29882 -0.34749,-0.0837 -0.89943,-0.35012 -1.22775,-0.58754 -0.32825,-0.2374 -0.77414,-0.45212 -0.99086,-0.47722 -0.21682,-0.0247 -0.41744,-0.22396 -0.44591,-0.44194 -0.0283,-0.21796 -0.29332,-0.45503 -0.58845,-0.52659 -0.29524,-0.0711 -0.83237,-0.42516 -1.19382,-0.7856 -0.36154,-0.36045 -0.77035,-0.68259 -0.90856,-0.71588 -0.13829,-0.0334 -0.46954,-0.33723 -0.73628,-0.67528 -0.26673,-0.33815 -0.55841,-0.63251 -0.6483,-0.65417 -0.23054,-0.0556 -0.41562,0.98791 -0.21713,1.22223 0.0905,0.10626 0.11339,0.47614 0.0512,0.82125 -0.0619,0.34529 0.008,0.65674 0.15567,0.69247 0.14793,0.0357 0.29281,0.24797 0.32205,0.47157 0.0759,0.58033 0.047,0.61464 -0.30981,0.36902 -0.17558,-0.12053 -0.24425,-0.2938 -0.15271,-0.38446 0.0912,-0.0907 -0.0163,-0.27533 -0.23926,-0.4101 -0.22321,-0.13467 -0.56495,-0.83925 -0.75973,-1.56532 -0.19469,-0.72605 -0.45208,-1.48596 -0.57195,-1.68872 -0.11979,-0.20273 -0.36657,-1.04872 -0.54839,-1.87985 -0.18174,-0.83111 -0.46858,-1.54442 -0.63728,-1.58507 -0.16879,-0.0407 -0.39969,-0.26296 -0.51316,-0.49413 -0.21746,-0.44299 -2.01419,-0.94992 -2.10036,-0.59226 -0.0261,0.10822 0.0575,0.22195 0.1856,0.25282 0.12813,0.0308 2.3e-4,0.22415 -0.28335,0.42971 -0.672,0.48613 -0.86507,0.4197 -1.25582,-0.43199 -0.37691,-0.82168 -1.49215,-1.87253 -1.58372,-1.49245 -0.0334,0.13846 -0.18792,0.19847 -0.34335,0.13338 -0.15554,-0.065 -0.45686,-0.0932 -0.66965,-0.0623 -0.21278,0.0305 -0.60811,0.0439 -0.87843,0.0291 -0.2703,-0.0144 -0.49569,0.10157 -0.50086,0.25845 -0.005,0.15687 -0.12837,0.20447 -0.27446,0.10571 -0.34772,-0.23551 -1.10967,0.74319 -1.34767,1.73106 -0.17219,0.71473 0.24947,2.43097 0.85549,3.48199 0.12639,0.21927 0.14257,0.52549 0.0359,0.68059 -0.1232,0.1793 -0.055,0.265 0.1784,0.23321 0.26664,-0.0349 0.3305,0.12585 0.22476,0.56475 -0.0824,0.3417 -0.0143,0.64557 0.15358,0.68601 0.16577,0.0399 0.34473,0.41916 0.39772,0.8427 0.0562,0.4493 0.003,0.74781 -0.12554,0.71664 -0.12225,-0.0295 -0.24497,-0.22703 -0.27271,-0.43915 -0.028,-0.21209 -0.19592,-0.42064 -0.3737,-0.46347 -0.17778,-0.0429 -0.32597,-0.35863 -0.32928,-0.70167 -0.003,-0.34319 -0.15326,-0.65935 -0.3333,-0.70273 -0.18013,-0.0434 -0.28922,-0.23778 -0.24246,-0.43185 0.0467,-0.19417 -0.008,-0.37537 -0.12173,-0.40277 -0.11368,-0.0274 -0.26172,-0.39916 -0.32907,-0.82616 -0.0672,-0.42707 -0.2153,-0.79884 -0.32906,-0.82625 -0.11367,-0.0274 -0.17144,-0.19642 -0.12826,-0.37563 0.11282,-0.46831 -0.76767,-1.33496 -1.209,-1.19007 -0.19981,0.0656 -0.45411,0.34146 -0.56514,0.61304 -0.24384,0.59701 -1.4485,1.24523 -1.49494,0.80441 -0.0908,-0.86307 -0.87606,-1.19386 -1.44403,-0.60817 -0.35424,0.36526 -0.61573,0.27621 -0.99108,-0.33754 -0.17196,-0.281 -0.37094,-0.53472 -0.44218,-0.5637 -0.0713,-0.0288 -0.30826,-0.18788 -0.52667,-0.35321 -0.45412,-0.34364 -1.06764,-0.19944 -1.59578,0.37441 -0.1979,0.21518 -0.6185,0.53565 -0.93459,0.71231 -0.57371,0.32064 -0.57403,0.32198 -0.18718,0.77699 0.21223,0.25033 0.60579,0.476 0.87454,0.50137 0.53064,0.0496 1.32581,1.22141 1.19573,1.76131 -0.0441,0.18281 0.0272,0.29724 0.15842,0.25417 0.13118,-0.043 0.14488,0.23919 0.0305,0.62728 -0.20484,0.69523 -0.71445,1.04571 -1.31914,0.9075 -0.16929,-0.0408 -0.63304,-0.67361 -1.02943,-1.41074 -0.39631,-0.73711 -0.96315,-1.77549 -1.25959,-2.30764 l -0.53885,-0.96747 -1.61371,0.15658 c -1.03756,0.10071 -2.01093,0.39698 -2.72662,0.82983 -0.97181,0.58786 -1.14651,0.81192 -1.37637,1.76601 -0.29676,1.23177 -0.16225,2.0803 0.34925,2.20353 0.18962,0.0457 0.29371,0.29477 0.23135,0.55363 -0.0624,0.25885 -8.7e-4,0.4976 0.13582,0.53061 0.13702,0.033 0.16451,0.144 0.0611,0.24655 -0.10381,0.10246 -0.0894,0.28612 0.0316,0.40816 0.12206,0.12319 0.0946,0.46085 -0.0619,0.75963 -0.23594,0.45056 -0.17844,0.60415 0.35412,0.94687 0.34962,0.22504 0.6589,0.58659 0.68727,0.80348 0.0291,0.22239 0.21973,0.37232 0.43727,0.34385 0.22155,-0.0293 0.45769,0.16538 0.5547,0.4564 0.0929,0.27876 0.32193,0.48683 0.5088,0.46243 0.1953,-0.0258 0.3009,0.11693 0.2482,0.33571 -0.0749,0.31112 -7e-4,0.34972 0.40969,0.21293 0.41031,-0.13679 0.57106,-0.0531 0.88503,0.46009 0.26058,0.42599 0.67646,0.69776 1.29609,0.84704 0.50182,0.1209 0.99314,0.38434 1.09183,0.58537 0.0987,0.20103 0.51962,0.60344 0.93537,0.89419 0.41574,0.29083 0.73907,0.59879 0.71844,0.6844 -0.0207,0.0856 0.36478,0.46247 0.85636,0.83737 0.49164,0.37499 0.94591,0.83752 1.00955,1.02797 0.0636,0.19036 0.47347,0.43231 0.91078,0.53766 0.4373,0.10536 0.91556,0.38868 1.06294,0.62962 0.14741,0.24086 0.534,0.50209 0.85914,0.58043 0.32515,0.0783 0.63176,0.26607 0.68132,0.41713 0.0498,0.1512 0.2088,0.23583 0.35377,0.18826 0.14503,-0.0477 0.46682,0.12936 0.715,0.39396 0.24828,0.26418 0.86191,0.7195 1.3636,1.01176 0.50163,0.29223 0.89057,0.62044 0.86432,0.72941 -0.0263,0.10897 0.0359,0.20171 0.13713,0.20602 0.40285,0.017 2.11171,0.87278 2.18415,1.09345 0.0427,0.12913 0.27886,0.28336 0.52553,0.34279 0.4231,0.10194 0.8618,1.00625 0.57373,1.18246 -0.0738,0.0444 0.18008,0.11005 0.56333,0.1446 0.38333,0.0346 0.96484,0.29113 1.29246,0.56953 0.32761,0.27841 0.73937,0.49086 0.91518,0.47215 0.21009,-0.0223 0.23493,0.0886 0.0723,0.32517 -0.21772,0.31628 -0.17933,0.33664 0.32098,0.16979 0.52773,-0.1759 1.04335,0.0915 0.64561,0.33475 -0.29381,0.17972 -2.3616,-0.28309 -2.44859,-0.54815 -0.0447,-0.13557 -0.23677,-0.22603 -0.4274,-0.20111 -0.23442,0.0307 -0.27011,-0.0651 -0.10988,-0.29848 0.18737,-0.27221 0.11872,-0.34146 -0.32987,-0.33282 -0.74332,0.0143 -1.18465,-0.30674 -1.08945,-0.79228 0.0602,-0.30491 0.008,-0.29804 -0.23902,0.0313 -0.2738,0.36606 -0.30451,0.36621 -0.23194,0.002 0.0627,-0.31534 -0.0571,-0.41894 -0.48024,-0.41493 -0.34596,0.003 -0.92002,-0.30965 -1.48538,-0.80997 -0.50675,-0.44841 -1.35421,-0.99544 -1.88323,-1.21562 -0.52914,-0.2201 -1.57553,-0.88227 -2.32554,-1.47142 -0.74982,-0.58921 -1.44523,-1.07365 -1.54522,-1.07667 -0.38771,-0.0117 -0.88297,-0.55826 -0.72065,-0.79516 0.10558,-0.15413 -0.10452,-0.32627 -0.55037,-0.45075 -0.41593,-0.11621 -0.61703,-0.0962 -0.47511,0.0472 0.16741,0.16888 -0.0205,0.31384 -0.58619,0.45285 -0.45779,0.11248 -0.85909,0.31519 -0.8917,0.45054 -0.0326,0.13534 -0.24465,0.35947 -0.47121,0.49806 -0.22655,0.13858 -0.49451,0.37412 -0.59545,0.52341 -0.13252,0.19582 -0.2463,0.13089 -0.40914,-0.23334 -0.18419,-0.41212 -0.35201,-0.48856 -0.91514,-0.41665 -0.40837,0.052 -0.72263,-0.0125 -0.77057,-0.1581 -0.0447,-0.13548 -0.43726,-0.26491 -0.87305,-0.28768 -0.43568,-0.0232 -1.38269,-0.14849 -2.10431,-0.27914 -2.41407,-0.43724 -4.09215,-0.58205 -4.14613,-0.35798 -0.0294,0.12207 -0.24087,0.10873 -0.46986,-0.0297 -0.22891,-0.1387 -0.511,-0.15777 -0.62668,-0.0432 -0.11562,0.11465 -0.40547,0.16136 -0.64407,0.10387 -0.27398,-0.066 -0.59299,0.14311 -0.86625,0.56778 -0.36585,0.56843 -0.5223,0.63154 -1.01385,0.40893 -0.37001,-0.16737 -0.65458,-0.1577 -0.78359,0.0306 -0.11097,0.16172 -0.30312,0.26966 -0.42637,0.23996 -0.12316,-0.0296 -0.14293,-0.13434 -0.0438,-0.23252 0.32928,-0.32628 -1.88509,-0.1593 -2.44714,0.18451 -0.30381,0.18584 -0.83564,0.80121 -1.18184,1.36744 -0.3463,0.5662 -1.02312,1.30851 -1.50412,1.64944 -0.481,0.34094 -0.94075,0.84087 -1.02163,1.11091 -0.0811,0.27 -0.2035,0.6454 -0.27296,0.8341 -0.0695,0.1887 -0.0433,0.61824 0.058,0.95465 0.10129,0.33633 0.10214,0.69291 0.002,0.79237 -0.1004,0.0994 -0.0907,0.27318 0.0211,0.38617 0.11194,0.11319 0.12905,0.51484 0.0379,0.89308 -0.39861,1.65454 -0.40766,4.25275 -0.0165,4.75954 0.68083,0.8822 2.15798,3.32804 2.16878,3.59128 0.0684,1.66116 -0.3166,2.3321 -1.22123,2.12829 -1.39315,-0.31431 -2.08874,-0.7788 -2.87388,-1.92062 -0.45415,-0.66046 -0.83939,-1.14388 -0.85618,-1.07423 -0.0168,0.0697 -0.2162,-0.14899 -0.44319,-0.48564 -0.22701,-0.33665 -0.63353,-0.74172 -0.90345,-0.90018 -0.26993,-0.15846 -0.46387,-0.39986 -0.43098,-0.53639 0.0372,-0.15434 -0.10049,-0.16955 -0.36368,-0.0405 -0.33311,0.16358 -0.40864,0.14609 -0.35295,-0.085 0.0454,-0.18878 -0.14022,-0.28767 -0.53341,-0.2839 -0.33162,0.003 -0.61351,-0.10603 -0.62624,-0.24208 -0.0125,-0.13618 -0.28518,-0.2424 -0.60536,-0.23581 -0.83409,0.017 -1.28813,0.80536 -1.25391,2.17723 0.029,1.16393 0.48484,1.85511 1.16486,1.76622 0.20849,-0.0271 0.53539,0.18676 0.72633,0.47527 0.19102,0.28861 0.71412,0.76621 1.16261,1.06129 1.48772,0.97882 1.76682,1.41692 1.39832,2.1952 -0.53523,1.13058 -0.85026,1.19549 -2.09027,0.4304 -1.44968,-0.89471 -2.60885,-2.05215 -2.50139,-2.49819 0.0478,-0.19853 -0.007,-0.38347 -0.12089,-0.41101 -0.11427,-0.0276 -0.21574,-0.30408 -0.2254,-0.61451 -0.0135,-0.43438 -0.0829,-0.50196 -0.30159,-0.29339 -0.2202,0.20999 -0.29026,0.19898 -0.31157,-0.0484 -0.0219,-0.25604 -0.21801,-0.30383 -0.98651,-0.23769 -0.52713,0.0435 -1.31122,-0.0507 -1.7425,-0.20948 -0.5288,-0.19495 -0.80681,-0.19438 -0.85601,0.01 -0.0395,0.16408 -0.19309,0.21482 -0.34125,0.1129 -0.16608,-0.11468 -0.58951,0.23968 -1.10501,0.92415 -1.14903,1.52566 -1.7823,1.99169 -2.63794,1.94093 -0.40189,-0.0239 -1.0063,0.0544 -1.34317,0.17376 -0.33688,0.11947 -0.59339,0.13519 -0.57012,0.0349 0.10023,-0.41605 -0.95705,0.99259 -1.16641,1.55979 -0.16837,0.45536 -0.41282,0.62172 -0.93244,0.6337 -1.01883,0.0233 -1.44642,0.29902 -2.03736,1.31323 -0.28848,0.49524 -0.92301,1.15059 -1.41006,1.45646 -0.75702,0.47525 -1.03774,0.51216 -1.93327,0.25436 -0.57633,-0.16552 -1.21762,-0.42741 -1.42526,-0.581 -0.24402,-0.18039 -0.57057,-0.1739 -0.92223,0.0175 -0.29943,0.16325 -0.65033,0.19001 -0.77977,0.0595 -0.12934,-0.13062 -0.32858,-0.14671 -0.44275,-0.0355 -0.22418,0.21801 -1.42819,0.14075 -4.07926,-0.26177 -1.30573,-0.19823 -1.96938,-0.15553 -2.97136,0.19119 -0.70958,0.24551 -1.32415,0.58743 -1.36567,0.75974 -0.0423,0.17535 -0.32848,0.25244 -0.64984,0.17501 -0.3159,-0.0761 -0.66678,-0.0468 -0.77981,0.0652 -0.1132,0.11193 -0.3115,0.0949 -0.44121,-0.0378 -0.12971,-0.13277 -0.42851,-0.25551 -0.66399,-0.27286 -0.23533,-0.0176 -0.39942,-0.15046 -0.36448,-0.29547 0.035,-0.14518 -0.0556,-0.22485 -0.20116,-0.1771 -0.14553,0.0476 -0.46499,-0.0916 -0.70966,-0.30946 -0.24472,-0.21808 -1.11266,-0.64764 -1.92869,-0.95464 -1.63747,-0.61595 -2.34327,-0.47833 -2.32535,0.45421 0.005,0.27031 -0.0719,0.40918 -0.17207,0.30833 -0.0999,-0.1005 -0.23987,0.005 -0.31124,0.23588 -0.0715,0.23043 -0.18016,0.51902 -0.24073,0.64133 -0.0614,0.12218 -0.17191,0.40358 -0.2464,0.62529 -0.0739,0.22185 -0.24985,0.34747 -0.39018,0.27943 -0.14034,-0.0676 -0.4316,0.1979 -0.64736,0.59092 -0.21578,0.3931 -0.4711,0.69569 -0.56738,0.6725 -0.0963,-0.0232 -0.43266,0.25986 -0.74748,0.62902 -0.39824,0.4671 -0.82812,1.55594 -1.41353,3.58061 -0.94515,3.2689 -1.34985,4.22549 -1.65662,3.91593 -0.13149,-0.13275 -0.20497,-0.0112 -0.19846,0.3282 0.006,0.29663 -0.10147,0.57612 -0.23887,0.62106 -0.13721,0.0452 -0.21052,0.2004 -0.16318,0.34524 0.0477,0.14501 -0.0552,0.36938 -0.22833,0.4987 -0.17315,0.12941 -0.45083,0.62156 -0.61716,1.09386 -0.16622,0.47224 -0.45556,0.95225 -0.64271,1.06673 -0.18724,0.11454 -0.45788,0.69621 -0.60157,1.29264 -0.14372,0.59652 -0.45296,1.24694 -0.6873,1.44552 -0.23423,0.19851 -0.42199,0.5668 -0.41709,0.81839 0.005,0.25174 -0.1121,0.4284 -0.25392,0.39423 -0.1445,-0.0348 -0.30098,0.0955 -0.34776,0.28966 -0.0468,0.19416 -0.20223,0.32471 -0.34548,0.2902 -0.14333,-0.0346 -0.23782,0.11081 -0.21013,0.32281 0.028,0.21218 -0.0447,0.36267 -0.16065,0.33474 -0.11603,-0.0279 -0.49133,0.52584 -0.83394,1.23062 -0.3426,0.70478 -0.85579,1.4066 -1.14045,1.55946 -0.28466,0.15285 -0.54638,0.3979 -0.5817,0.54451 -0.0353,0.14661 -0.17015,0.24097 -0.29954,0.2098 -0.12946,-0.0312 -0.2736,0.10218 -0.32036,0.29626 -0.0467,0.19416 -0.27063,0.30974 -0.49759,0.25703 -0.22651,-0.0546 -0.63531,-0.10151 -0.9076,-0.10809 -0.27213,-0.007 -0.63411,-0.11277 -0.80427,-0.23555 z m 8.68052,3.97001 c -0.36358,-0.24165 -0.54844,-0.5654 -0.4815,-0.84324 0.0597,-0.24802 0.003,-0.4765 -0.12668,-0.5077 -0.37034,-0.0892 0.0481,-1.40518 0.54323,-1.70796 0.24553,-0.15019 0.6146,-0.17079 0.82012,-0.0457 0.30926,0.1882 0.32432,0.17103 0.0871,-0.0997 -0.23488,-0.26851 -0.15816,-0.34344 0.42817,-0.41828 1.06809,-0.13629 2.23036,0.21901 2.66211,0.81381 0.90439,1.24567 -0.49261,3.42905 -1.96676,3.07389 -0.3606,-0.0869 -0.74654,-0.0678 -0.85769,0.0423 -0.23787,0.23577 -0.3293,0.21046 -1.10856,-0.30708 z m 14.31294,11.8937 c -0.51246,-0.99666 -0.38549,-2.20071 0.24066,-2.28258 0.49077,-0.0642 1.75368,1.96551 1.75683,2.82356 0.002,0.55963 -0.0758,0.60985 -0.76446,0.49434 -0.60202,-0.10059 -0.86707,-0.32357 -1.23303,-1.03532 z m 84.40273,23.05606 c 0.0463,-0.23659 -0.0266,-0.39381 -0.16196,-0.34944 -0.5303,0.17403 -0.87239,-0.3996 -0.82444,-1.38268 0.0704,-1.44417 0.0946,-1.52565 0.40975,-1.37975 0.15392,0.0717 0.31823,-0.0291 0.36499,-0.22319 0.0467,-0.19416 0.29064,-0.30351 0.54185,-0.24299 0.25113,0.0605 0.53368,0.0337 0.62779,-0.0595 0.23553,-0.2334 1.62221,0.0816 1.55664,0.3537 -0.0291,0.12073 0.0863,0.25307 0.25646,0.29406 0.35169,0.0848 0.75647,1.70171 0.59444,2.37425 -0.17345,0.71995 -1.52277,1.2037 -2.36809,0.84892 -0.44207,-0.18561 -0.79127,-0.20575 -0.90135,-0.0529 -0.0989,0.13743 -0.14192,0.0564 -0.0958,-0.18032 z M 251.78245,431.83809 c -0.17663,-0.10477 -0.50816,-0.46546 -0.73666,-0.80213 -0.3121,-0.4601 -0.33012,-0.64213 -0.0725,-0.73268 0.26841,-0.0943 0.27953,-0.19392 0.051,-0.45869 -0.20874,-0.24194 -0.20398,-0.35174 0.0164,-0.38556 0.16968,-0.0258 0.28687,-0.21331 0.26039,-0.41632 -0.0266,-0.2033 0.0898,-0.33572 0.25587,-0.2957 0.16729,0.0403 0.57045,-0.072 0.89593,-0.24969 0.3255,-0.17768 1.03016,-0.2825 1.566,-0.23305 0.91858,0.0847 0.98599,0.14065 1.18046,0.98017 0.16648,0.71845 0.11748,1.05279 -0.25369,1.73185 -0.25292,0.46283 -0.56963,0.91251 -0.70368,0.99924 -0.31627,0.2047 -2.04452,0.10798 -2.4598,-0.1375 z m 38.05972,10.23158 c -0.15476,-0.3605 -0.16676,-0.68776 -0.027,-0.73364 0.1487,-0.0487 0.18552,-0.35346 0.0895,-0.74203 -0.20848,-0.84405 0.20298,-1.75349 0.87243,-1.92796 0.38092,-0.0994 0.52052,-0.29648 0.51645,-0.72904 -0.004,-0.48336 0.18115,-0.66332 1.00591,-0.97406 0.75177,-0.28335 1.07455,-0.29705 1.25663,-0.0532 0.13477,0.18039 0.4016,0.30743 0.59295,0.2825 0.27545,-0.036 0.25638,0.25156 -0.0916,1.38156 -0.67801,2.20138 -0.82868,2.54261 -1.13408,2.56868 -0.15587,0.0131 -0.26369,0.17542 -0.23956,0.36008 0.0239,0.18472 -0.16085,0.46101 -0.41088,0.61403 -0.25021,0.15306 -0.48899,0.41803 -0.53078,0.58887 -0.0448,0.18617 -0.38591,0.25139 -0.84833,0.16283 -0.55995,-0.10735 -0.84921,-0.32683 -1.05167,-0.79855 z m 72.66,31.85062 c -0.0417,-0.0669 -0.0176,-0.36274 0.0533,-0.65705 0.071,-0.29431 0.0412,-0.6236 -0.0659,-0.73181 -0.44949,-0.45363 -0.14329,-4.39553 0.33257,-4.28087 0.20962,0.0505 0.22713,-0.0156 0.0738,-0.26936 -0.14179,-0.23167 -0.10076,-0.45478 0.13142,-0.71521 0.50074,-0.56197 0.75701,-0.37747 0.72911,0.52501 -0.0137,0.44171 0.0524,1.04582 0.14673,1.34243 0.35033,1.10134 0.47279,3.10169 0.25712,4.20125 -0.21919,1.11641 -0.23329,1.1307 -0.90133,0.92113 -0.37331,-0.11749 -0.71301,-0.26787 -0.75454,-0.33495 z m 7.52023,7.95289 c -0.28221,-0.82509 -0.34589,-2.7255 -0.0994,-2.96969 0.147,-0.14565 0.23649,-0.35842 0.19923,-0.47274 -0.0857,-0.26137 0.92369,-1.22792 1.21035,-1.15886 0.11679,0.0282 0.48968,0.51968 0.82855,1.09228 0.56261,0.95079 0.58697,1.16218 0.28084,2.43284 -0.1844,0.76539 -0.44434,1.37942 -0.5777,1.36436 -0.13322,-0.0152 -0.34269,-0.0372 -0.46516,-0.0499 -0.1224,-0.0126 -0.32131,0.0378 -0.44172,0.11146 -0.33467,0.20472 -0.80532,0.0286 -0.93473,-0.34974 z M 227.55629,459.99789 c -0.0442,-0.51681 0.21477,-1.19765 0.51012,-1.34286 0.20718,-0.10173 0.37396,-0.14386 0.37058,-0.0937 -0.0721,1.07905 -0.26947,1.6461 -0.54966,1.57859 -0.17904,-0.0431 -0.32791,-0.10745 -0.33106,-0.14198 z"
      id="path3017" style="fill:#14C13A" inkscape:connector-curvature="0" />
</svg>